<svg width="100" height="100" viewBox="0 0 100 100" fill="none" xmlns="http://www.w3.org/2000/svg">
<path fill-rule="evenodd" clip-rule="evenodd" d="M49.8659 6.5C25.9156 6.5 6.5 25.9156 6.5 49.8659C6.5 73.8162 25.9156 93.2318 49.8659 93.2318C73.8162 93.2318 93.2318 73.8162 93.2318 49.8659C93.2318 25.9156 73.8162 6.5 49.8659 6.5ZM0 49.8659C0 22.3257 22.3257 0 49.8659 0C77.4061 0 99.7318 22.3257 99.7318 49.8659C99.7318 77.4061 77.4061 99.7318 49.8659 99.7318C22.3257 99.7318 0 77.4061 0 49.8659ZM13.9848 45.2047C13.9848 43.4097 15.4399 41.9547 17.2348 41.9547H45.2044C46.9993 41.9547 48.4544 43.4097 48.4544 45.2047C48.4544 46.9996 46.9993 48.4547 45.2044 48.4547H20.4848V53.6086H45.2044C46.9993 53.6086 48.4544 55.0637 48.4544 56.8586C48.4544 58.6536 46.9993 60.1086 45.2044 60.1086H17.2348C15.4399 60.1086 13.9848 58.6536 13.9848 56.8586V45.2047ZM84.8278 41.9547C86.6227 41.9547 88.0778 43.4097 88.0778 45.2047V56.8586C88.0778 58.6536 86.6227 60.1086 84.8278 60.1086H56.8583C55.0634 60.1086 53.6083 58.6536 53.6083 56.8586C53.6083 55.0637 55.0634 53.6086 56.8583 53.6086H81.5778V48.4547H56.8583C55.0634 48.4547 53.6083 46.9996 53.6083 45.2047C53.6083 43.4097 55.0634 41.9547 56.8583 41.9547H84.8278Z" fill="#2C2727"/>
</svg>
