<svg width="233" height="50" viewBox="0 0 233 50" fill="none" xmlns="http://www.w3.org/2000/svg">
<mask id="mask0_673_1387" style="mask-type:luminance" maskUnits="userSpaceOnUse" x="0" y="0" width="233" height="50">
<path d="M233 0H0V50H233V0Z" fill="white"/>
</mask>
<g mask="url(#mask0_673_1387)">
<path d="M50 25C50 29.9445 48.5338 34.778 45.7868 38.8893C43.0397 43.0005 39.1352 46.2048 34.5671 48.097C29.9989 49.9892 24.9723 50.4843 20.1228 49.5196C15.2732 48.555 10.8187 46.174 7.32234 42.6777C3.82603 39.1814 1.44501 34.7268 0.480379 29.8773C-0.484251 25.0277 0.0108321 20.0011 1.90302 15.4329C3.79521 10.8648 6.99953 6.96029 11.1108 4.21326C15.222 1.46622 20.0555 0 25 0C31.6304 0 37.9893 2.63392 42.6777 7.32233C47.3661 12.0107 50 18.3696 50 25ZM47.737 25C47.737 20.503 46.4035 16.1071 43.9051 12.368C41.4068 8.62892 37.8557 5.71466 33.7011 3.99375C29.5464 2.27284 24.9748 1.82257 20.5642 2.69989C16.1537 3.5772 12.1024 5.74269 8.92252 8.92251C5.7427 12.1023 3.57721 16.1537 2.6999 20.5642C1.82258 24.9748 2.27285 29.5464 3.99376 33.7011C5.71467 37.8557 8.62893 41.4068 12.368 43.9051C16.1071 46.4035 20.5031 47.737 25 47.737C31.0302 47.737 36.8135 45.3415 41.0775 41.0775C45.3415 36.8135 47.737 31.0302 47.737 25ZM21.4 20.748H6.91101C6.50125 20.748 6.10828 20.9108 5.81853 21.2005C5.52879 21.4903 5.36601 21.8832 5.36601 22.293V27.705C5.36588 27.908 5.40575 28.109 5.48333 28.2966C5.56091 28.4841 5.6747 28.6546 5.81818 28.7981C5.96166 28.9417 6.13202 29.0556 6.31953 29.1333C6.50705 29.211 6.70803 29.251 6.91101 29.251H21.4C21.5687 29.251 21.7305 29.184 21.8497 29.0647C21.969 28.9454 22.036 28.7837 22.036 28.615V27.43C22.0357 27.2614 21.9687 27.0998 21.8494 26.9806C21.7302 26.8614 21.5686 26.7943 21.4 26.794L18.687 26.767H8.71601C8.31601 26.767 7.83001 26.505 7.83001 26.167V23.833C7.83001 23.496 8.31401 23.233 8.71601 23.233H18.687L21.4 23.207C21.5687 23.207 21.7305 23.14 21.8497 23.0207C21.969 22.9014 22.036 22.7397 22.036 22.571V21.385C22.0357 21.2164 21.9687 21.0548 21.8494 20.9356C21.7302 20.8164 21.5686 20.7493 21.4 20.749M28.6 20.749C28.4314 20.7493 28.2698 20.8164 28.1506 20.9356C28.0314 21.0548 27.9643 21.2164 27.964 21.385V22.57C27.9643 22.7386 28.0314 22.9002 28.1506 23.0194C28.2698 23.1386 28.4314 23.2057 28.6 23.206L31.313 23.233H41.283C41.683 23.233 42.17 23.495 42.17 23.833V26.168C42.17 26.505 41.685 26.768 41.283 26.768H31.313L28.6 26.794C28.4314 26.7943 28.2698 26.8614 28.1506 26.9806C28.0314 27.0998 27.9643 27.2614 27.964 27.43V28.616C27.9643 28.7846 28.0314 28.9462 28.1506 29.0654C28.2698 29.1846 28.4314 29.2517 28.6 29.252H43.089C43.4988 29.252 43.8917 29.0892 44.1815 28.7995C44.4712 28.5097 44.634 28.1168 44.634 27.707V22.294C44.6341 22.091 44.5943 21.89 44.5167 21.7024C44.4391 21.5149 44.3253 21.3444 44.1818 21.2009C44.0384 21.0573 43.868 20.9434 43.6805 20.8657C43.493 20.788 43.292 20.748 43.089 20.748H28.6V20.749Z" fill="white"/>
<path d="M105.461 21.2178C105.547 21.4034 105.685 21.5605 105.858 21.6708C106.03 21.781 106.231 21.8398 106.435 21.8402H108.532C108.638 21.8404 108.743 21.8195 108.841 21.779C108.94 21.7384 109.029 21.6788 109.104 21.6037C109.18 21.5285 109.239 21.4393 109.28 21.341C109.321 21.2428 109.342 21.1375 109.342 21.0311C109.342 20.9399 109.326 20.8494 109.296 20.7635L106.545 11.8462C106.462 11.6507 106.323 11.4839 106.146 11.3667C105.969 11.2496 105.761 11.1874 105.549 11.1877H104.922C104.717 11.188 104.516 11.2467 104.344 11.357C104.171 11.4672 104.034 11.6244 103.947 11.8101L103.376 13.6834C103.34 13.8178 103.322 13.9564 103.322 14.0954C103.322 14.1788 103.328 14.262 103.341 14.3444L105.461 21.2178Z" fill="white"/>
<path d="M110.962 26.1084C110.845 25.8024 110.638 25.5391 110.368 25.3533C110.098 25.1675 109.778 25.0679 109.451 25.0678H104.772C104.42 25.0676 104.078 24.9529 103.798 24.7411C103.517 24.5293 103.313 24.232 103.217 23.8941L102.197 20.6229C102.166 20.5169 102.101 20.4239 102.013 20.3577C101.924 20.2916 101.816 20.2559 101.706 20.2559C101.595 20.2559 101.488 20.2916 101.399 20.3577C101.31 20.4239 101.246 20.5169 101.214 20.6229L95.848 38.0156C95.8436 38.0569 95.8416 38.0985 95.8418 38.1401C95.842 38.3052 95.8747 38.4686 95.938 38.6211C96.0013 38.7735 96.0941 38.912 96.2109 39.0287C96.3278 39.1453 96.4665 39.2377 96.6191 39.3008C96.7716 39.3638 96.9352 39.3962 97.1002 39.396H98.3276C98.5992 39.3961 98.8657 39.323 99.0993 39.1844C99.3328 39.0457 99.5246 38.8466 99.6544 38.6081L102.418 29.6535C102.537 29.3521 102.744 29.0934 103.012 28.911C103.28 28.7286 103.596 28.6308 103.92 28.6303H106.561C106.903 28.6308 107.236 28.7394 107.512 28.9407C107.788 29.1419 107.994 29.4254 108.099 29.7505L110.837 38.6118C110.967 38.8503 111.159 39.0494 111.392 39.1881C111.626 39.3268 111.892 39.3999 112.164 39.3997H113.391C113.556 39.3999 113.72 39.3675 113.873 39.3045C114.025 39.2415 114.164 39.149 114.281 39.0324C114.398 38.9158 114.49 38.7773 114.554 38.6248C114.617 38.4723 114.65 38.3089 114.65 38.1438C114.65 38.1022 114.648 38.0607 114.644 38.0193L110.962 26.1084Z" fill="white"/>
<path d="M75.3187 11.1854H64.6139C63.9207 11.1854 63.2558 11.4608 62.7656 11.951C62.2754 12.4412 62 13.1061 62 13.7994V36.7859C62 37.4792 62.2754 38.144 62.7656 38.6342C63.2558 39.1245 63.9207 39.3998 64.6139 39.3998H75.3187C75.6042 39.3998 75.8781 39.2864 76.08 39.0845C76.2819 38.8826 76.3954 38.6087 76.3954 38.3232V36.3179C76.3955 36.1764 76.3678 36.0362 76.3138 35.9055C76.2597 35.7747 76.1804 35.6558 76.0804 35.5557C75.9804 35.4556 75.8617 35.3762 75.731 35.322C75.6003 35.2678 75.4602 35.2399 75.3187 35.2399H67.2279V35.2275C66.6566 35.2275 66.2134 34.4072 66.2134 33.7263V16.8552C66.2134 16.1743 66.6566 15.3553 67.2279 15.3553V15.3453H75.3187C75.6042 15.3453 75.8781 15.2319 76.08 15.03C76.2819 14.8281 76.3954 14.5542 76.3954 14.2686V12.2621C76.3954 11.9766 76.2819 11.7027 76.08 11.5008C75.8781 11.2989 75.6042 11.1854 75.3187 11.1854Z" fill="white"/>
<path d="M178.44 11.1842H167.735C167.042 11.1842 166.377 11.4596 165.887 11.9498C165.396 12.44 165.121 13.1049 165.121 13.7981V36.7859C165.121 37.1292 165.189 37.4691 165.32 37.7862C165.451 38.1034 165.644 38.3915 165.887 38.6343C166.129 38.877 166.418 39.0695 166.735 39.2009C167.052 39.3323 167.392 39.3999 167.735 39.3999H178.44C178.725 39.3999 178.999 39.2864 179.201 39.0845C179.403 38.8826 179.516 38.6087 179.516 38.3232V36.3179C179.516 36.0322 179.403 35.7582 179.201 35.5561C178.999 35.354 178.725 35.2403 178.44 35.24H170.349V35.2288C169.778 35.2288 169.335 34.4085 169.335 33.7289V16.8552C169.335 16.1743 169.778 15.3541 170.349 15.3541V15.3454H178.44C178.725 15.345 178.999 15.2313 179.201 15.0292C179.403 14.8271 179.516 14.5531 179.516 14.2674V12.2609C179.516 11.9753 179.403 11.7015 179.201 11.4996C178.999 11.2976 178.725 11.1842 178.44 11.1842Z" fill="white"/>
<path d="M144.311 11.005H133.606C132.913 11.005 132.248 11.2804 131.758 11.7706C131.268 12.2608 130.992 12.9257 130.992 13.6189V36.6055C130.992 37.2987 131.268 37.9636 131.758 38.4538C132.248 38.944 132.913 39.2194 133.606 39.2194H144.311C144.596 39.2194 144.87 39.106 145.072 38.904C145.274 38.7021 145.388 38.4283 145.388 38.1427V36.1374C145.388 35.9959 145.36 35.8558 145.306 35.725C145.252 35.5942 145.173 35.4754 145.073 35.3753C144.973 35.2752 144.854 35.1958 144.723 35.1416C144.592 35.0874 144.452 35.0595 144.311 35.0595H136.22V35.0508C135.649 35.0508 135.206 34.2305 135.206 33.5496V26.5492C135.232 25.8821 135.661 25.1128 136.215 25.1128H139.764C139.905 25.1128 140.045 25.0849 140.176 25.0307C140.307 24.9765 140.426 24.8971 140.526 24.797C140.626 24.6969 140.705 24.5781 140.759 24.4473C140.813 24.3165 140.841 24.1764 140.841 24.0349V22.0346C140.841 21.749 140.727 21.4752 140.525 21.2732C140.323 21.0713 140.049 20.9579 139.764 20.9579H136.213C135.659 20.9579 135.229 20.1886 135.203 19.5215V16.6747C135.203 15.9939 135.646 15.1748 136.218 15.1748V15.1661H144.308C144.594 15.1658 144.868 15.0521 145.07 14.85C145.272 14.6478 145.385 14.3739 145.385 14.0882V12.0767C145.385 11.7911 145.272 11.5173 145.07 11.3154C144.868 11.1134 144.594 11 144.308 11" fill="white"/>
<path d="M127.449 11.026H122.543C122.475 11.0123 122.406 11.0052 122.337 11.0049H120.328C120.258 11.0051 120.188 11.0122 120.119 11.026H115.209C114.924 11.026 114.65 11.1395 114.448 11.3414C114.246 11.5433 114.133 11.8172 114.133 12.1027V14.1093C114.133 14.3948 114.246 14.6687 114.448 14.8706C114.65 15.0725 114.924 15.186 115.209 15.186H118.235C118.799 15.186 119.231 15.9863 119.247 16.661V38.1438C119.247 38.2853 119.275 38.4255 119.329 38.5562C119.384 38.6869 119.463 38.8056 119.563 38.9056C119.663 39.0056 119.782 39.0849 119.913 39.1389C120.044 39.193 120.184 39.2207 120.325 39.2205H122.331C122.616 39.2205 122.89 39.1071 123.092 38.9052C123.294 38.7033 123.407 38.4294 123.407 38.1438V16.6734C123.407 15.9963 123.854 15.1797 124.422 15.1797H127.447C127.732 15.1797 128.006 15.0663 128.208 14.8644C128.41 14.6624 128.523 14.3886 128.523 14.103V12.1027C128.523 11.8172 128.41 11.5433 128.208 11.3414C128.006 11.1395 127.732 11.026 127.447 11.026" fill="white"/>
<path d="M211.743 11.1966H209.737C209.452 11.1966 209.178 11.31 208.976 11.5119C208.774 11.7137 208.66 11.9876 208.659 12.2733L208.615 16.8664V33.7387C208.615 34.4196 208.17 35.2399 207.599 35.2399H203.648C203.077 35.2399 202.634 34.4196 202.634 33.7387V16.8639L202.588 12.2708C202.588 11.9852 202.474 11.7114 202.272 11.5094C202.07 11.3075 201.796 11.1941 201.511 11.1941H199.506C199.22 11.1941 198.946 11.3075 198.744 11.5094C198.542 11.7113 198.428 11.9851 198.428 12.2708V36.7921C198.428 37.4853 198.703 38.1502 199.193 38.6404C199.684 39.1306 200.348 39.406 201.042 39.406H210.203C210.896 39.406 211.561 39.1306 212.051 38.6404C212.541 38.1502 212.817 37.4853 212.817 36.7921V12.2708C212.817 11.9851 212.703 11.7113 212.501 11.5094C212.299 11.3075 212.025 11.1941 211.739 11.1941" fill="white"/>
<path d="M195.094 35.2387H187.003V35.23C186.432 35.23 185.988 34.4097 185.988 33.7301V12.282C185.988 11.9962 185.875 11.722 185.673 11.5198C185.471 11.3177 185.196 11.2041 184.911 11.2041H182.858C182.572 11.2044 182.298 11.3181 182.097 11.5203C181.895 11.7224 181.781 11.9964 181.781 12.282V36.7847C181.781 37.4779 182.057 38.1428 182.547 38.633C183.037 39.1232 183.702 39.3986 184.395 39.3986H195.1C195.241 39.3986 195.382 39.3707 195.512 39.3165C195.643 39.2623 195.762 39.1829 195.862 39.0828C195.962 38.9827 196.041 38.8639 196.095 38.7331C196.149 38.6023 196.177 38.4622 196.177 38.3207V36.3166C196.177 36.1751 196.149 36.035 196.095 35.9042C196.041 35.7734 195.962 35.6546 195.862 35.5545C195.762 35.4544 195.643 35.375 195.512 35.3208C195.382 35.2666 195.241 35.2387 195.1 35.2387" fill="white"/>
<path d="M230.4 20.6081V13.8118C230.4 13.4686 230.332 13.1286 230.201 12.8115C230.069 12.4944 229.877 12.2062 229.634 11.9635C229.391 11.7208 229.103 11.5282 228.786 11.3969C228.469 11.2655 228.129 11.1979 227.786 11.1979H225.85C225.565 11.1979 225.291 11.3113 225.089 11.5132C224.887 11.7152 224.773 11.989 224.773 12.2746V14.0359C224.773 14.1976 224.81 14.3572 224.881 14.5027C224.951 14.6482 225.054 14.7759 225.18 14.8761C225.48 14.9964 225.736 15.2036 225.917 15.4708C226.098 15.7381 226.195 16.0533 226.195 16.376V19.7866C226.195 20.1092 226.098 20.4244 225.917 20.6917C225.736 20.959 225.48 21.1661 225.18 21.2865C225.054 21.3867 224.951 21.5143 224.881 21.6598C224.81 21.8054 224.773 21.965 224.773 22.1267V24.2427C224.773 24.4044 224.81 24.564 224.881 24.7095C224.951 24.855 225.054 24.9827 225.18 25.0829C225.48 25.2033 225.736 25.4104 225.917 25.6777C226.098 25.9449 226.195 26.2601 226.195 26.5828V34.2255C226.195 34.5481 226.098 34.8634 225.917 35.1306C225.736 35.3979 225.48 35.605 225.18 35.7254C225.054 35.8256 224.951 35.9533 224.881 36.0988C224.81 36.2443 224.773 36.4039 224.773 36.5656V38.3331C224.773 38.6187 224.887 38.8925 225.089 39.0944C225.291 39.2964 225.565 39.4098 225.85 39.4098H227.786C228.129 39.4098 228.469 39.3422 228.786 39.2108C229.103 39.0795 229.391 38.8869 229.634 38.6442C229.877 38.4015 230.069 38.1133 230.201 37.7962C230.332 37.479 230.4 37.1391 230.4 36.7959V25.8185C230.398 25.1425 230.134 24.4934 229.664 24.0076C229.194 23.5218 228.553 23.2371 227.878 23.2133C228.553 23.1895 229.194 22.9048 229.664 22.419C230.134 21.9332 230.398 21.2842 230.4 20.6081Z" fill="white"/>
<path d="M220.514 11.1978H217.084C216.799 11.1978 216.525 11.3113 216.323 11.5132C216.121 11.7151 216.008 11.989 216.008 12.2745V38.3331C216.008 38.4746 216.035 38.6147 216.089 38.7455C216.143 38.8762 216.223 38.9951 216.323 39.0952C216.423 39.1953 216.541 39.2747 216.672 39.3289C216.803 39.3831 216.943 39.411 217.084 39.411H220.514C220.8 39.411 221.074 39.2974 221.276 39.0953C221.478 38.8931 221.592 38.6189 221.592 38.3331V36.5693C221.592 36.4074 221.555 36.2477 221.484 36.1022C221.414 35.9566 221.311 35.829 221.183 35.7291C220.884 35.6087 220.628 35.4016 220.447 35.1343C220.266 34.867 220.169 34.5518 220.169 34.2292V26.5877C220.169 26.2651 220.266 25.9499 220.447 25.6826C220.628 25.4153 220.884 25.2082 221.183 25.0878C221.311 24.9878 221.413 24.8602 221.484 24.7147C221.555 24.5691 221.592 24.4094 221.592 24.2476V22.1316C221.592 21.9698 221.555 21.81 221.484 21.6645C221.414 21.5189 221.311 21.3913 221.183 21.2914C220.884 21.171 220.628 20.9639 220.447 20.6966C220.266 20.4293 220.169 20.1141 220.169 19.7915V16.3759C220.169 16.0533 220.266 15.7381 220.447 15.4708C220.628 15.2035 220.884 14.9964 221.183 14.876C221.311 14.7761 221.414 14.6485 221.484 14.5029C221.555 14.3574 221.592 14.1976 221.592 14.0358V12.2708C221.591 11.9851 221.478 11.7113 221.276 11.5094C221.073 11.3075 220.799 11.1941 220.514 11.1941" fill="white"/>
<path d="M90.7654 11.1854H88.8299C88.6884 11.1853 88.5482 11.213 88.4175 11.267C88.2867 11.3211 88.1678 11.4003 88.0677 11.5003C87.9676 11.6003 87.8882 11.7191 87.834 11.8498C87.7798 11.9805 87.752 12.1206 87.752 12.2621V14.0272C87.752 14.189 87.7888 14.3487 87.8595 14.4942C87.9302 14.6397 88.033 14.7673 88.1602 14.8674C88.4596 14.9877 88.7161 15.1949 88.8969 15.4621C89.0777 15.7294 89.1744 16.0446 89.1747 16.3673V19.7803C89.1746 20.1032 89.078 20.4187 88.8972 20.6862C88.7165 20.9537 88.4598 21.161 88.1602 21.2815C88.0329 21.3814 87.9301 21.509 87.8593 21.6546C87.7886 21.8001 87.7519 21.9598 87.752 22.1217V24.2377L89.2207 38.3232C89.2207 38.4646 89.2486 38.6048 89.3028 38.7355C89.357 38.8662 89.4364 38.9849 89.5365 39.0849C89.6366 39.1849 89.7555 39.2642 89.8863 39.3182C90.017 39.3723 90.1572 39.4 90.2987 39.3998H92.3039C92.5895 39.3998 92.8634 39.2864 93.0653 39.0845C93.2672 38.8826 93.3806 38.6087 93.3806 38.3232L91.7712 23.0129C92.2478 22.8145 92.655 22.4794 92.9415 22.0499C93.2279 21.6204 93.3807 21.1156 93.3806 20.5994V13.7994C93.3806 13.1061 93.1052 12.4412 92.615 11.951C92.1248 11.4608 91.46 11.1854 90.7667 11.1854" fill="white"/>
<path d="M83.4942 11.1842H80.065C79.7794 11.1842 79.5056 11.2976 79.3036 11.4996C79.1017 11.7015 78.9883 11.9753 78.9883 12.2609V38.3244C78.9883 38.61 79.1017 38.8838 79.3036 39.0858C79.5056 39.2877 79.7794 39.4011 80.065 39.4011H82.0715C82.357 39.4011 82.6309 39.2877 82.8328 39.0858C83.0347 38.8838 83.1482 38.61 83.1482 38.3244V26.5778C83.1485 26.2552 83.2452 25.94 83.426 25.6727C83.6067 25.4054 83.8633 25.1983 84.1626 25.0779C84.2898 24.9779 84.3927 24.8503 84.4634 24.7048C84.5341 24.5592 84.5709 24.3996 84.5709 24.2377V22.1217C84.571 21.9599 84.5342 21.8001 84.4635 21.6546C84.3928 21.509 84.2899 21.3815 84.1626 21.2815C83.8633 21.1611 83.6067 20.954 83.426 20.6867C83.2452 20.4195 83.1485 20.1043 83.1482 19.7816V16.366C83.1485 16.0434 83.2452 15.7282 83.426 15.4609C83.6067 15.1936 83.8633 14.9865 84.1626 14.8661C84.2899 14.7662 84.3928 14.6386 84.4635 14.493C84.5342 14.3475 84.571 14.1878 84.5709 14.0259V12.2609C84.5706 11.9752 84.4569 11.7014 84.2548 11.4995C84.0526 11.2976 83.7799 11.1842 83.4942 11.1842Z" fill="white"/>
</g>
</svg>
