<svg width="500" height="270" viewBox="0 0 500 270" fill="none" xmlns="http://www.w3.org/2000/svg">
<g clip-path="url(#clip0_213_4439)">
<rect width="500" height="270" fill="white"/>
<mask id="mask0_213_4439" style="mask-type:luminance" maskUnits="userSpaceOnUse" x="-52" y="-27" width="617" height="347">
<path d="M564.889 -27H-52V320H564.889V-27Z" fill="white"/>
</mask>
<g mask="url(#mask0_213_4439)">
<path d="M564.889 -27H-52V320H564.889V-27Z" fill="#FEE9CB"/>
</g>
<mask id="mask1_213_4439" style="mask-type:luminance" maskUnits="userSpaceOnUse" x="-52" y="-27" width="617" height="347">
<path d="M564.889 -27H-52V320H564.889V-27Z" fill="white"/>
</mask>
<g mask="url(#mask1_213_4439)">
<path d="M567.105 -28.9286C566.013 9.36997 570.029 48.6002 566.173 86.4811C550.59 98.9795 531.056 107.526 514.091 118.546C456.836 151.319 395.212 192.252 325.073 188.975C268.492 185.248 217.47 147.881 160.89 151.576C98.0767 160.765 45.5126 194.308 -21.9596 177.569C-31.2772 175.769 -48.563 174.613 -51.7117 164.685C-54.0893 149.166 -51.1333 132.362 -51.294 116.619C8.30648 122.466 53.4165 73.1794 108.422 61.0987C155.492 48.2468 199.285 73.7256 244.266 80.6656C308.59 84.3284 349.652 27.4911 376.416 -19.611C264.412 153.761 217.213 34.1419 108.262 56.3114C52.7418 68.7134 8.78842 120.217 -51.4225 115.783C-51.4225 113.117 -51.4225 110.482 -51.4225 107.815C18.2024 111.092 73.7867 42.5599 143.444 45.4837C212.362 54.6085 262.934 96.2806 324.816 38.6079C347.917 20.1977 359.483 -7.85151 379.372 -28.1896C441.51 -31.1134 504.645 -28.0611 567.105 -28.9286Z" fill="#FEDFA7"/>
</g>
<mask id="mask2_213_4439" style="mask-type:luminance" maskUnits="userSpaceOnUse" x="-52" y="-27" width="617" height="347">
<path d="M564.889 -27H-52V320H564.889V-27Z" fill="white"/>
</mask>
<g mask="url(#mask2_213_4439)">
<path d="M405.462 168.251C394.153 173.97 383.004 173.97 372.08 168.251C375.871 195.85 372.561 224.574 362.184 254.487L410.25 256.318C406.008 229.619 404.402 200.252 405.462 168.251Z" fill="#D29B66"/>
<path d="M370.218 -83.6129C363.342 -77.4761 361.64 -65.1705 365.077 -46.7281C348.209 -39.4346 341.109 -21.8276 343.808 6.09305C326.715 16.7601 318.714 31.6361 319.775 50.6568C301.204 64.2798 297.637 80.184 309.14 98.3693C292.111 124.394 294.424 138.178 316.112 139.656C308.24 161.825 319.068 170.275 348.595 164.974C355.182 171.432 363.021 172.525 372.082 168.283C383.006 174.002 394.155 174.002 405.464 168.283C412.533 168.444 416.935 165.135 418.67 158.387C439.168 166.838 453.53 163.046 461.788 147.014C470.88 118.129 466.703 97.8874 449.321 86.2886C452.149 69.2599 449.868 58.625 442.542 54.3839C445.434 31.122 440.935 15.2821 428.951 6.86416C432.839 -5.08807 429.787 -15.6908 419.794 -24.8799C427.698 -49.1057 423.907 -61.2185 408.42 -61.2185C402.316 -89.1392 389.592 -96.5933 370.218 -83.6129ZM376.098 137.053C370.186 147.11 361.897 147.11 351.133 137.053C338.121 138.403 331.341 132.523 330.763 119.446C320.642 120.796 313.67 116.266 309.847 105.856C313.638 116.266 320.61 120.796 330.763 119.446C331.341 132.555 338.121 138.403 351.133 137.053C361.897 147.142 370.186 147.142 376.098 137.053ZM422.14 104.763C433.674 108.94 441.61 101.807 445.98 83.3005C441.642 101.807 433.674 108.972 422.14 104.763C416.645 117.615 406.428 121.149 391.488 115.398C378.7 124.523 367.584 122.563 358.105 109.518C367.584 122.563 378.733 124.523 391.488 115.398C406.46 121.181 416.645 117.615 422.14 104.763ZM366.941 70.0953C376.355 78.9952 383.809 78.9952 389.335 70.0953C383.809 78.9952 376.323 78.9952 366.941 70.0953C355.76 76.6176 348.788 72.8263 346.025 58.7214C337.542 61.7094 330.924 59.5246 326.201 52.1027C330.924 59.4925 337.51 61.7094 346.025 58.7214C348.788 72.8263 355.76 76.6176 366.941 70.0953Z" fill="#F8D96F"/>
<path d="M396.274 142.739L398.491 142L399.423 141.808L401.447 140.876L402.54 140.522L404.371 139.43L405.464 139.077L408.227 137.245C408.355 136.988 408.355 136.828 408.227 136.699H407.68L401.994 139.269L400.901 139.462L399.07 140.201L393.929 141.133H389.881L386.764 140.587H386.411L385.318 140.233L384.965 140.04L384.033 139.848L381.27 138.563L377.061 135.799C376.193 135.189 375.487 135.253 374.844 135.992L374.651 136.185L374.105 136.924L373.752 137.663L372.659 139.141L370.828 140.779L370.089 141.326L368.065 142.418H367.711L367.358 142.611H366.619L365.88 142.804H364.948L364.209 142.611H363.47L362.538 142.257L361.799 142.065L358.683 140.587L356.466 139.109L352.257 135.639C351.903 135.285 351.389 135.157 350.779 135.285H348.948L348.016 135.478H347.084L341.75 134.739L340.273 134H339.726L339.373 133.647L338.634 133.293H338.441L338.248 133.1L337.895 132.908L337.349 132.361L336.61 131.815L336.064 131.076L335.517 130.53L335.164 129.791L334.232 128.313L333.493 126.675L333.3 125.743L332.947 124.811L332.208 121.148L332.015 119.317C332.015 118.224 331.533 117.775 330.537 118.032H329.605L328.866 118.224H327.228C326.489 118.353 325.396 118.289 323.919 118.032L322.441 117.839L321.702 117.646L320.963 117.293L320.224 117.1L317.653 115.815L317.107 115.269L316.754 115.076L315.468 113.983L313.252 111.606L311.613 108.682L311.259 108.329L309.974 105.758C309.974 105.405 309.846 105.34 309.621 105.565C309.267 105.565 309.203 105.694 309.428 105.919L309.621 106.851L309.974 107.59L310.167 108.521L311.259 110.899L314.183 115.301L315.468 116.586L315.822 116.779L316.561 117.518L316.914 117.71L317.653 118.257L320.963 119.895L323.533 120.634L327.196 120.988H329.22V121.534L329.413 122.626V123.558L330.344 127.606L330.698 128.699L331.244 129.63L332.176 131.655L332.529 132.008L332.722 132.554L334.939 134.932L336.417 136.024H336.61L336.803 136.217L338.28 137.149L338.827 137.342L339.18 137.534L342.843 138.627L345.06 138.98L350.393 138.787L354.249 142.097L357.719 144.314L358.651 144.667L359.582 145.213L360.675 145.567L361.607 145.76L362.699 146.113H363.245L363.791 146.306H365.816L367.101 146.113H367.647L368 145.92L368.547 145.727H368.9L369.093 145.535L370.185 145.181L373.655 142.804L375.133 141.165L376.226 139.526L376.418 139.334L380.82 141.711L384.129 142.804H384.676L385.768 143.157H386.314L387.407 143.35L391.808 143.543L396.274 142.739ZM446.011 82.9461C445.754 82.6891 445.658 82.7533 445.658 83.1389L444.18 87.5406L443.634 88.6331L443.28 89.7255L442.348 91.7496L441.995 92.842L441.641 93.3882L439.81 96.6976L439.071 97.6294L438.525 98.5611L437.786 99.4929L435.955 101.324L435.408 101.678L434.669 102.417H434.316L433.77 102.963L430.846 104.055H430.492L429.946 104.248H426.83L424.806 103.702L423.713 103.509L422.781 103.156C421.689 102.802 420.95 103.091 420.564 104.087L420.018 105.019L419.665 106.112L416.002 111.252L413.624 113.276L413.271 113.63L412.918 113.823H412.725L410.893 114.915L407.97 115.847L405.945 116.2L400.612 116.008L397.495 115.461L395.278 114.722H394.732L392.162 113.791C391.423 113.534 390.877 113.598 390.523 113.983L389.591 114.722L387.567 116.008L387.214 116.2L386.668 116.554L386.121 116.746L384.644 117.678L380.788 118.963L380.435 119.156L379.888 119.349H379.342L378.603 119.542H378.057L376.965 119.735H374.748L374.201 119.542H373.655L372.563 119.349L369.253 118.257L366.33 116.618L361.735 112.955L361.382 112.409L360.835 112.056L360.482 111.702L360.129 111.156L358.49 109.325C358.361 109.196 358.169 109.196 357.944 109.325C357.815 109.582 357.815 109.742 357.944 109.871L358.683 110.802L359.229 111.895L359.582 112.248L359.936 112.795L360.868 113.726C361.125 114.208 361.671 114.883 362.506 115.75L364.145 117.389L368.354 120.313L369.446 120.859L370.731 121.212L371.278 121.566L373.302 122.112H373.848L374.587 122.305L375.872 122.498H378.442L378.989 122.305H379.728L380.274 122.112H381.013L387.053 120.088L388.146 119.349L388.692 119.156L389.238 118.803L390.33 118.257L391.616 117.325L395.471 118.61L396.564 118.803L397.656 119.156L402.604 119.895H405.721L406.267 119.702H407.552L412.5 118.224L413.046 117.871L413.592 117.678L414.685 116.939L414.877 116.746L415.231 116.554L416.709 115.461L420.179 111.799L422.749 107.59L422.942 106.658L424.034 107.011L426.412 107.365H429.721L431.007 107.011H431.553L432.292 106.658L434.669 105.726L435.762 104.987L436.115 104.634L437.208 103.895L437.561 103.348L438.107 102.995L439.746 100.971L442.123 96.9225L443.055 94.7056L443.409 94.1594L445.047 89.0186L445.24 87.9262L445.593 86.8338L445.947 85.0024V84.4562L446.14 83.3638C446.429 83.0746 446.365 82.9461 446.011 82.9461ZM345.477 57.0818L344.739 57.4352L342.907 57.9814H342.554L342.2 58.1742L341.654 58.3669H340.915L340.176 58.5597H336.321L333.75 57.8207L332.658 57.2745L331.565 56.5356L330.826 56.1821L330.634 55.9893L330.28 55.7966L329.927 55.4431L329.573 55.2504L329.381 54.8969L328.834 54.5435L327.356 52.9049L327.003 52.3587L326.457 51.8125H325.911V52.3587L326.264 52.9049L326.617 53.6439L327.356 54.7363L327.71 55.4753L329.541 57.3067L329.734 57.6601L330.473 58.0135L331.019 58.5597L333.043 59.8449L333.59 60.0377L334.329 60.3911L335.806 60.9373L336.738 61.1301H337.477L337.831 61.3229H341.301L342.04 61.1301H342.779L343.132 60.9373H343.485L344.417 60.7445L344.61 60.5518L344.803 60.9052L345.156 62.7366L346.088 65.1142L346.281 65.4676L347.02 67.4918L347.566 68.4235L347.919 69.3553L348.658 70.0943L348.851 70.6405L351.229 72.8574L351.775 73.2108L352.128 73.5643H352.482L352.675 73.757L353.221 73.9498L353.767 74.3032L354.859 74.496L355.952 74.8494H359.261L360.354 74.6567L364.209 73.3715L365.494 72.6325L366.04 72.4397L366.587 72.0863L366.94 72.4397L370.603 75.0101L371.342 75.3635L372.081 75.9097L375.39 77.3877L376.322 77.5805L378.153 77.7732L378.7 77.966H379.246L380.177 77.7732H381.109L381.655 77.5805L383.68 76.6487H384.033L384.226 76.4559L384.579 76.2631L386.057 75.1707L386.25 74.8173L386.603 74.4639L388.82 71.7007L389.559 70.2228C389.913 69.8694 389.881 69.6766 389.367 69.6766H389.013L387.921 71.1545L386.828 72.2469L383.712 74.6245L383.358 74.8173H383.005L382.266 75.1707L381.527 75.3635H378.603L377.125 75.0101L376.386 74.6567L375.647 74.4639L375.101 74.1105L373.623 73.3715L373.077 72.8253L372.338 72.4719L371.792 71.9256L371.053 71.5722L368.129 68.8091C367.518 68.1986 366.844 68.0701 366.105 68.4556L362.795 70.0943L361.317 70.6405L358.747 71.1867H356.53L356.177 70.9939H355.823L355.084 70.8011L354.345 70.4477H354.152L353.799 70.0943L353.06 69.7408L351.968 68.6484L351.775 68.295L351.421 67.9416L350.49 66.6564L349.012 63.5398L347.534 58.3991V58.2063C347.277 57.2424 346.666 56.8568 345.702 57.1139H345.477V57.0818Z" fill="#CBA932"/>
<path d="M407.295 65.146L406.941 65.3388L405.849 66.4312L405.303 66.7846L404.756 67.3308L404.017 67.877L403.086 68.8088L402.732 69.0016L402.379 69.355L402.025 69.5478L401.672 69.9012L401.318 70.094L400.772 70.4474L398.748 71.5398L397.27 72.086H395.631L394.154 71.8932L393.8 71.7005H393.447L392.708 71.347L391.969 71.1542L390.876 70.4153L389.784 69.8691L389.591 69.6763L389.045 69.8691V70.2225L389.238 70.4153V70.7687L389.591 71.1221L389.784 71.6683L390.33 72.0217L390.684 72.7607L391.037 72.9535L391.23 73.3069L391.583 73.6604L392.129 74.0138L392.483 74.2066L392.836 74.56L395.76 75.4917H397.784L400.162 74.7528C401.126 74.3993 401.865 73.9495 402.379 73.4676L402.925 73.1142L403.278 72.7607L403.825 72.4073L404.178 72.0539L404.917 71.1221L405.11 70.7687L405.463 70.4153L406.556 68.9373L407.295 67.4593L407.648 66.3669L407.841 66.1742V65.9814L408.034 65.6279V65.5316C408.387 65.1781 408.355 64.9854 407.841 64.9854H407.487L407.295 65.146Z" fill="#CBA932"/>
<path d="M359.42 6.0957L359.066 6.83469V7.92709L359.259 9.40506V10.4975L359.613 12.8751L360.352 15.4454L362.183 18.9154L362.729 19.6544L365.3 22.032L368.77 23.3172L369.509 23.51H371.34L372.079 23.3172C373.171 23.3172 374.167 23.1244 375.003 22.771L376.834 22.032L377.38 21.6786L377.926 21.4858L379.212 20.554L379.951 20.2006L380.69 19.6544L381.043 19.301L381.396 19.1082L381.589 18.7548L381.782 18.2086H381.043L379.212 18.7548L378.858 18.9476H378.505L377.573 19.301L376.481 19.4938L376.127 19.6865H375.388L374.296 19.8793L370.633 20.0721L370.087 19.8793H369.541L367.324 18.9476L364.561 16.3772L363.822 15.2848L360.352 7.57367V7.38089L359.805 6.28848L359.42 6.0957Z" fill="#CBA932"/>
<path d="M385.446 17.627L385.992 18.1732L386.346 18.366L387.438 19.1049L388.916 19.8439L393.318 20.7757H394.603L395.342 20.5829H395.888L398.651 19.6511L400.868 18.0125L402.7 16.1811L403.985 14.157L405.077 11.5866L405.623 9.36966V8.27726L405.431 7.92383L405.077 8.11661L404.884 8.30939L403.599 9.948L403.053 10.4942L402.7 11.2332L402.153 11.9722L401.414 12.5184L401.222 12.8718L399.39 14.7032L399.037 14.896L398.683 15.2494L397.045 16.3418L395.213 17.0808L394.282 17.2736H393.735L393.189 17.4663H388.788L388.434 17.2736H388.081L386.795 17.0808H385.703L385.35 17.2736L385.446 17.627Z" fill="#CBA932"/>
<path d="M414.072 7.73183L413.141 7.92461L408.546 8.11739L407.807 7.92461H405.43C405.173 7.92461 405.076 8.05313 405.076 8.27804L405.43 8.63146L405.783 8.82424L406.136 9.17767L408.9 10.4629L410.924 11.0091H411.47L412.016 11.2018L415.872 11.0091L418.442 10.2701L421.366 8.43869L423.936 5.86832L424.129 5.32211C424.611 4.45461 424.997 3.84415 425.221 3.49072L426.153 0.566927L426.346 0.213499V-0.525481C426.603 -0.782518 426.539 -0.878906 426.153 -0.878906L425.8 -0.686129L423.968 1.33804L423.776 1.69146L423.422 1.88424L423.229 2.23767L422.876 2.59109L422.523 2.78387L422.33 3.1373L420.498 4.77591L418.86 5.86832L415.197 7.50693H414.651L414.072 7.73183Z" fill="#CBA932"/>
</g>
<mask id="mask3_213_4439" style="mask-type:luminance" maskUnits="userSpaceOnUse" x="-52" y="-27" width="617" height="347">
<path d="M564.889 -27H-52V320H564.889V-27Z" fill="white"/>
</mask>
<g mask="url(#mask3_213_4439)">
<path d="M477.525 124.232C476.594 132.939 476.08 141.389 475.951 149.582C462.039 147.686 453.91 137.244 451.565 118.191C448.802 119.187 446.135 119.959 443.564 120.537C445.332 147.526 456.448 164.297 476.915 170.852C479.935 200.636 489.799 226.918 506.539 249.634L565.432 269.136C544.516 245.682 530.218 216.123 522.539 180.426C542.17 175.286 554.444 161.631 559.392 139.493C554.99 140.425 550.62 140.554 546.315 139.879C543.295 150.803 534.395 158.996 519.615 164.458C517.848 152.538 516.756 139.943 516.306 126.642C502.362 131.493 489.413 130.722 477.525 124.232Z" fill="#D29B66"/>
<path d="M439.514 4.09958C417.826 3.87467 407.641 16.855 408.894 43.1049C368.507 63.1538 367.19 77.5158 405.007 86.1908C407.609 113.854 420.461 125.293 443.627 120.505C446.197 119.959 448.864 119.156 451.627 118.16C455.45 117.003 459.499 115.429 463.708 113.469C468.174 117.999 472.8 121.565 477.555 124.2C489.443 130.69 502.392 131.461 516.368 126.546C517.589 126.16 518.81 125.71 520.063 125.196C528.609 133.518 537.413 138.369 546.377 139.815C550.683 140.49 555.052 140.361 559.454 139.43C566.49 137.984 573.623 134.546 580.916 129.084C606.974 128.313 615.874 116.071 607.616 92.4239C630.653 70.7364 630.396 50.6554 606.845 32.1809C609.64 14.2204 603.857 2.26819 589.495 -3.70792C580.949 -28.8333 565.623 -37.2191 543.485 -28.8654C527.292 -52.2558 506.408 -55.1153 480.833 -37.444C446.486 -45.1873 432.703 -31.3394 439.514 4.09958ZM443.209 32.3737L444.558 31.0242L446.133 29.8675C446.39 29.739 446.582 29.739 446.711 29.8675C446.968 30.1246 446.968 30.3174 446.711 30.4459L443.787 33.1769L439.482 38.2534L439.096 39.0245L438.518 39.7956L438.132 40.5667L437.94 41.5306L437.554 42.3017V42.6873L437.361 43.0728V44.0367L437.747 45.3861L438.711 46.7356L439.867 47.6995L440.253 48.085L441.41 48.6634L443.177 49.2417L443.948 49.6273L444.526 49.82H444.912L447.257 50.5912C448.028 51.1052 448.093 51.7478 447.45 52.5511L440.446 63.0896L437.522 68.7444L435.562 74.3992L435.369 75.7487L435.562 77.0981C435.562 77.8692 435.819 78.5439 436.333 79.058L437.104 79.6363L438.068 80.0219L440.799 80.4074H443.723L452.88 78.4475H453.265C454.551 78.1905 455.225 78.7688 455.225 80.2147L455.418 81.3713V82.3352L455.611 83.4919V84.4558L455.804 85.6125V85.998L455.996 86.5763L456.382 88.5362L457.346 91.46L457.539 91.8456L457.924 92.2312L458.31 93.0023L459.466 94.1589L460.238 94.5445L461.812 94.93H463.579L463.965 94.7373H464.35L467.274 93.7734L472.736 90.464L473.122 90.0785L473.507 89.8857L474.471 89.1146C475.242 88.472 476.11 88.6005 477.009 89.5001L479.355 92.4239L481.122 93.9983L481.315 94.3838L483.467 96.151L484.238 96.5365L485.01 97.1149L486.584 97.6932L487.355 98.0787H487.741L488.126 98.2715H488.704L489.09 98.4643H491.05L491.435 98.2715L492.399 98.0787H492.785L495.516 96.7293L495.901 96.3437L496.287 96.151L496.865 95.5726L497.251 95.3799L497.636 94.9943L497.829 94.6087L498.215 94.416L498.793 93.6449L499.564 93.0665L500.143 92.2954C500.528 91.7813 500.978 91.6528 501.492 91.9099L502.841 92.4882L503.42 92.8737L504.576 93.2593L505.155 93.6449L506.504 94.0304H507.083L507.854 94.2232H508.818L509.203 94.416H510.36L511.709 94.2232L515.019 93.2593L516.175 92.4882L516.368 92.2954L516.754 92.1026L516.946 91.9099L517.332 91.7171L517.525 91.5243L517.91 91.3315L518.296 90.946L518.874 90.5604L520.448 88.9861L520.834 88.4077C521.091 88.2792 521.284 88.2792 521.412 88.4077C521.669 88.6648 521.669 88.8575 521.412 88.9861L520.641 90.1427L517.525 93.2593L517.139 93.4521L516.946 93.6449L516.175 94.0304L515.019 94.8015L510.52 96.151H507.597L506.826 95.9582H506.054L503.131 95.1871L502.36 94.8015L501.203 94.416L500.625 95.1871L499.853 95.9582L499.661 96.3437L497.701 98.3037L497.315 98.4964L496.93 98.882L496.351 99.2675L494.006 100.424L493.62 100.81H493.042L491.885 101.195L491.5 101.388H487.805L487.419 101.195H487.034L483.339 99.8459L479.033 96.9221L476.688 94.7694L475.339 93.195L475.146 93.0023L474.76 93.3878L473.796 93.9662L472.832 94.7373L468.752 97.0827L466.406 98.0466L465.25 98.2394L464.093 98.625C463.065 98.882 462.133 98.882 461.362 98.625L458.438 98.0466L456.093 96.2795L454.133 93.5485L453.747 93.1629L452.173 88.472L451.98 87.3153V86.737L451.787 86.1587L451.595 85.002V83.8453L451.402 82.6887L447.321 83.6525L444.012 84.0381C443.241 84.1666 442.052 84.2309 440.51 84.2309L436.815 83.6525L435.048 82.6887L433.281 81.3392L432.124 79.3793L431.739 77.4194L431.931 73.5317L433.088 70.2224L437.586 61.451L444.012 52.294H443.434L439.353 50.3341L438.775 49.9486L436.815 48.1814C436.301 47.6674 435.915 46.9605 435.658 46.0287C435.401 45.6432 435.273 44.9363 435.273 43.8761V42.7194L436.847 38.8317L437.426 37.8678L438.197 37.0967L438.775 36.3256L440.124 34.9762L440.703 34.205L441.474 33.4339L443.209 32.3737ZM579.696 64.1499V63.186L579.31 61.2261V60.8405L579.117 60.2622V59.2983C578.86 59.0412 578.924 58.9127 579.31 58.9127C579.567 58.6557 579.696 58.72 579.696 59.1055L580.467 61.0654L580.852 63.0253L581.238 63.9892L581.816 67.1058L582.009 71.7967L581.816 72.375V73.3389L581.623 74.4956L581.431 74.6884V75.0739L581.238 75.4595L580.852 76.6162L580.467 77.3873L580.274 77.58L580.081 78.1584L579.696 78.5439L578.924 79.5078L577.157 80.8573L575.005 82.0139L574.041 82.3995H573.462L573.077 82.5923H572.884L570.731 82.9778H568.771L569.157 84.3273V85.2912L569.35 86.255V89.3716L569.157 90.3355V90.9138L568.964 91.1066V91.2994L568.579 92.4561L567.615 94.416L566.844 95.3799L565.687 96.5365L565.301 96.7293L563.342 97.886L562.763 98.0787L562.378 98.2715L561.799 98.4643H561.414L560.45 98.8499H559.293L558.329 99.0426L552.482 98.8499V99.4282L552.096 100.585L551.903 101.742L550.329 106.432L548.498 110.192L548.112 110.577L547.341 111.734L546.763 112.119L546.57 112.312L546.377 112.698L545.799 113.083C545.028 113.854 544.289 114.304 543.646 114.433L542.875 114.818L541.718 115.204H540.947L540.369 115.397H538.216L537.06 115.011H536.481L536.096 114.818H535.903L534.746 114.433L532.401 113.276L531.822 113.083L531.437 112.698L530.28 112.119L525.589 108.424V108.039C525.846 107.782 526.039 107.718 526.168 107.846L531.051 110.77L532.208 111.156L533.172 111.734L534.329 112.119L535.292 112.312L536.449 112.698H536.835L537.413 112.891H539.566L539.951 112.698H540.722L540.915 112.505H541.493L541.879 112.312L542.265 111.927C542.907 111.67 543.421 111.284 543.839 110.77L544.224 110.577L544.61 110.192L544.803 109.806L545.188 109.228L545.381 108.842L545.767 108.457L546.152 107.493L546.731 106.529L547.116 105.565L547.309 104.601L548.273 101.292L549.044 96.7936C549.301 95.6369 550.008 95.0907 551.197 95.2192L554.506 95.6048H556.659L557.044 95.412H558.811L560.386 95.0264H560.771L560.964 94.8337L561.35 94.6409H561.735L562.313 94.2553L562.699 94.0625L562.892 93.8698L563.277 93.677L564.434 92.5203L565.012 91.3637V90.9781L565.205 90.5925V90.207L565.398 90.0142L565.591 89.2431V86.7049L565.398 85.9337V85.1626L565.205 84.3915V83.4276L564.82 81.8533V81.6605L564.627 81.275C564.884 80.1183 565.526 79.5078 566.587 79.5078L567.551 79.7006H571.245L572.209 79.5078H572.98L575.519 78.5439L576.868 77.58L577.446 77.0017L577.639 76.6162L578.025 76.2306V76.0378L578.41 75.6523L578.796 74.8812V74.4956L578.989 74.11V73.9173L579.181 73.1462L579.374 72.7606V71.9574L579.567 71.5718V70.9935L579.76 70.6079V65.1459L579.696 64.1499ZM498.793 37.6429L498.6 37.8357V40.5667L498.793 41.145L498.986 42.3017L499.179 42.6873V43.0728L499.371 43.2656L499.757 44.0367L499.95 44.2295V44.4223H500.143L500.528 44.8078L501.299 45.3861L502.649 45.9645H503.227L503.613 46.1573H504.384L504.962 46.35H506.729L508.079 46.1573H509.042L510.392 45.7717H511.163L511.934 45.5789H515.051L515.822 45.7717H516.593L517.942 46.1573L518.714 46.5428L519.292 46.7356L520.063 47.1211L520.641 47.5067L520.448 47.3139L522.987 48.2778L524.143 48.4706L524.529 48.6634H525.493L526.65 48.8562H528.417L528.802 48.6634H529.188L529.381 48.4706H529.573L529.766 48.2778H529.959L530.537 47.6995H530.73L531.308 47.1211V46.9284L531.501 46.7356L531.694 46.1573L532.079 45.5789L532.272 45.1934V44.615L532.658 43.2656V42.1089L532.851 41.3378V39.9884L533.043 39.41C533.557 38.2534 534.264 37.9642 535.196 38.6389L539.084 40.2133L540.048 40.4061H540.626L540.819 40.5988H542.779L543.164 40.4061H543.55L544.128 40.2133L544.514 40.0205H544.899L545.285 39.6349L546.056 39.2494L547.405 37.8999L547.598 37.5144L547.984 37.1288L548.562 36.3577L549.333 34.3978L549.526 34.0123L550.49 31.474L550.683 30.5101L551.068 29.3535L551.261 28.3896V27.8112L551.454 27.2329L552.225 22.9275V21.9637L552.61 19.6182L552.803 19.4254C553.06 19.4254 553.189 19.5539 553.189 19.811L553.381 24.1163L552.996 27.6185V28.5824L552.225 33.0805L551.454 35.426L551.261 35.8115L550.683 37.5787L549.719 39.153L549.526 39.5386L547.759 41.4985L546.184 42.6551L545.799 42.8479H545.606L545.028 43.2335L544.449 43.4262H543.678L543.1 43.619L541.75 43.8118H540.176L539.983 43.619H539.405L538.056 43.4262L536.096 42.6551V44.0046L535.132 47.8923L534.746 48.6634L534.361 49.0489L534.168 49.4345L533.59 50.0128L533.397 50.3984L533.011 50.7839L532.24 51.3623L529.895 52.5189L528.931 52.7117H528.16L527.196 52.9045H526.425L524.85 52.7117L524.079 52.5189H523.308L519.003 51.1695L518.81 50.9767L517.653 50.5912L517.268 50.2056L516.689 50.0128H516.111L514.954 49.6273H511.645L511.067 49.82H510.488L509.91 50.0128H509.717L508.143 50.2056H504.448L503.87 50.0128H503.098L502.713 49.82H502.327L501.942 49.6273H501.556L500.785 49.2417L499.211 48.6634L498.633 48.085L497.861 47.6995L497.669 47.3139L497.283 46.9284H497.09V46.7356L496.705 46.35L495.741 44.3901V44.0046L495.355 43.2335V42.4624L495.162 41.6912V38.7674L495.355 37.9963V37.2574L491.468 36.8718L486.006 35.2974L482.503 33.1448L481.154 31.1849L480.961 30.0282L481.154 28.8715L481.54 27.7149L481.925 26.9437L484.463 23.8272L487.194 21.4817L488.769 20.5178C489.026 20.3893 489.219 20.3893 489.347 20.5178C489.604 20.7749 489.604 20.9676 489.347 21.0962L484.271 26.3654L483.499 27.7149L483.114 29.2892C482.985 29.5462 483.05 29.9318 483.307 30.4459C483.564 30.96 483.821 31.2812 484.078 31.4098L486.809 32.9841L493.813 34.1408C494.584 34.2693 495.773 34.3336 497.315 34.3336H497.508C498.408 34.5906 498.857 35.2332 498.857 36.2935L498.793 37.6429Z" fill="#FA852B"/>
<path d="M498.599 37.8356L498.791 37.6428L498.984 36.2934C498.984 35.2652 498.534 34.5905 497.635 34.3334H497.442C495.868 34.3334 494.711 34.2692 493.94 34.1407L486.936 32.984L484.205 31.4096C483.948 31.2811 483.691 30.9598 483.434 30.4458C483.176 29.9317 483.112 29.5461 483.241 29.2891L483.626 27.7147L484.397 26.3653L489.474 21.096C489.731 20.9675 489.731 20.7747 489.474 20.5177C489.345 20.3892 489.153 20.3892 488.896 20.5177L487.321 21.4816L484.59 23.8271L482.052 26.9436L481.666 27.7147L481.281 28.8714L481.088 30.0281L481.281 31.1847L482.63 33.1446L486.132 35.2973L491.594 36.8717L495.482 37.2572V37.8356L495.289 38.6067V41.5305L495.482 42.3016V43.0727L495.868 43.8438V44.2294L496.832 46.1893L497.217 46.5748V46.7676H497.41L497.795 47.1532L497.988 47.5387L498.759 47.9243L499.338 48.5026L500.912 49.0809L501.683 49.4665H502.069L502.454 49.6593H502.84L503.225 49.8521H503.996L504.575 50.0448H508.27L509.844 49.8521H510.037L510.615 49.6593H511.194L511.772 49.4665H515.081L516.238 49.8521H516.816L517.395 50.0448L517.78 50.4304L518.937 50.8159L519.13 51.0087L523.435 52.3582H524.206L524.977 52.5509L526.551 52.7437H527.323L528.286 52.5509H529.058L530.021 52.3582L532.367 51.2015L533.138 50.6232L533.524 50.2376L533.716 49.8521L534.295 49.2737L534.487 48.8882L534.873 48.5026L535.259 47.7315L536.222 43.8438V42.4944L538.182 43.2655L539.532 43.4583H540.11L540.303 43.651H541.877L543.227 43.4583L543.805 43.2655H544.576L545.155 43.0727L545.733 42.6871H545.926L546.311 42.4944L547.886 41.3377L549.653 39.3778L549.845 38.9922L550.809 37.4179L551.388 35.6508L551.58 35.2652L552.352 32.9197L553.123 28.4216V27.4577L553.508 23.9556L553.315 19.6502C553.315 19.3932 553.187 19.2646 552.93 19.2646L552.737 19.4574L552.352 21.8029V22.7668L551.58 27.0721L551.388 27.6505V28.2288L551.195 29.1927L550.809 30.3494L550.617 31.3133L549.653 33.8515L549.46 34.2371L548.689 36.197L548.11 36.9681L547.725 37.3536L547.532 37.7392L546.183 39.0886L545.412 39.4742L545.026 39.8597H544.64L544.255 40.0525L543.677 40.2453H543.291L542.905 40.4381H540.946L540.753 40.2453H540.174L539.211 40.0525L535.323 38.4782C534.423 37.8356 533.684 38.0926 533.17 39.2493L532.977 39.8276V41.1771L532.785 41.9482V43.1048L532.399 44.4543V45.0326L532.206 45.4182L531.821 45.9965L531.628 46.5748L531.435 46.7676V46.9604L530.857 47.5387H530.664L530.086 48.1171H529.893L529.7 48.3098H529.507L529.315 48.5026H528.929L528.544 48.6954H526.776L525.62 48.5026H524.656L524.27 48.3098L523.114 48.1171L520.575 47.1532L520.768 47.3459L520.19 46.9604L519.419 46.5748L518.84 46.3821L518.069 45.9965L516.72 45.6109H515.949L515.178 45.4182H512.061L511.29 45.6109H510.519L509.169 45.9965H508.205L506.856 46.1893H505.089L504.511 45.9965H503.739L503.354 45.8037H502.776L501.426 45.2254L500.655 44.6471L500.269 44.2615H500.077V44.0687L499.884 43.8759L499.498 43.1048L499.306 42.9121V42.7193L499.113 42.3337L498.92 41.1771L498.727 40.5987V37.8356M579.694 63.1859V64.1497L579.887 65.1136V70.5757L579.694 70.9612V71.5396L579.501 71.9251V72.5034L579.308 72.889L579.116 73.6601V73.8529L578.923 74.2384V74.624L578.537 75.3951L578.152 75.7807V75.9734L577.766 76.359L577.573 76.7446L576.995 77.3229L575.646 78.2868L573.107 79.2507H572.336L571.372 79.4434H567.677L566.713 79.2507C565.685 79.2507 565.011 79.829 564.754 81.0178L564.946 81.4033V81.5961L565.332 83.1705V84.1344L565.525 84.9055V85.6766L565.717 86.4477V88.9859L565.525 89.757L565.332 89.9498V90.3354L565.139 90.7209V91.1065L564.561 92.2632L563.404 93.4198L563.019 93.6126L562.826 93.8054L562.44 93.9982L561.862 94.3837H561.476L561.091 94.5765L560.898 94.7693H560.512L558.938 95.1548H557.171L556.785 95.3476H554.633L551.323 94.9621C550.167 94.8335 549.428 95.3476 549.171 96.5364L548.4 101.035L547.436 104.344L547.243 105.308L546.857 106.272L546.279 107.236L545.894 108.199L545.508 108.585L545.315 108.971L544.93 109.549L544.737 109.934L544.351 110.32L543.966 110.513C543.58 111.027 543.066 111.412 542.391 111.669L542.006 112.055L541.62 112.248H541.042L540.849 112.441H540.078L539.692 112.633H537.54L536.961 112.441H536.576L535.419 112.055L534.455 111.862L533.299 111.477L532.335 110.898L531.178 110.513L526.294 107.589C526.166 107.46 525.973 107.525 525.716 107.782V108.167L530.182 112.119L531.339 112.698L531.724 113.083L532.303 113.276L534.648 114.433L535.805 114.818H535.998L536.383 115.011H536.961L538.118 115.396H540.271L540.849 115.204H541.62L542.777 114.818L543.548 114.433C544.191 114.304 544.897 113.854 545.701 113.083L546.279 112.698L546.472 112.312L546.665 112.119L547.243 111.734L548.014 110.577L548.4 110.191L550.167 106.689L551.741 101.998L551.934 100.842L552.319 99.6851V99.1068L558.167 99.2996L559.131 99.1068H560.288L561.251 98.7212H561.637L562.215 98.5284L562.601 98.3357L563.179 98.1429L565.139 96.9862L565.525 96.7934L566.681 95.6368L567.452 94.6729L568.416 92.713L568.802 91.5563V91.3635L568.995 91.1708V90.5924L569.187 89.6285V86.512L568.995 85.5481V84.5842L568.609 83.2347H570.569L572.722 82.8492H572.915L573.3 82.6564H573.878L574.842 82.2708L576.995 81.1142L578.762 79.7647L579.533 78.8008L579.919 78.4153L580.112 77.837L580.304 77.6442L580.69 76.8731L581.075 75.7164L581.268 75.3308V74.9453L581.461 74.7525L581.654 73.5959V72.632L581.847 72.0536L581.654 67.3627L581.075 64.2461L580.69 63.2822L580.304 61.3223L579.533 59.3624C579.533 58.9769 579.405 58.9126 579.148 59.1696C578.762 59.1696 578.698 59.2982 578.955 59.5552V60.5191L579.148 61.0974V61.483L579.694 63.1859ZM444.589 31.0241L443.239 32.3735L441.665 33.5302L440.894 34.3013L440.316 35.0724L438.966 36.4219L438.388 37.193L437.617 37.9641L437.038 38.928L435.464 42.8157V43.9723C435.464 45.0005 435.592 45.7395 435.85 46.125C436.107 47.0246 436.492 47.7636 437.006 48.2777L438.966 50.0448L439.544 50.4304L443.625 52.3903H444.203L437.777 61.5472L433.279 70.3186L432.122 73.628L431.93 77.5157L432.315 79.4756L433.472 81.4355L435.239 82.7849L437.006 83.7488L440.701 84.3271C442.275 84.3271 443.432 84.2629 444.203 84.1344L447.513 83.7488L451.593 82.7849L451.786 83.9416V85.0983L451.979 86.2549L452.171 86.8333V87.4116L452.364 88.5683L453.938 93.2592L454.324 93.6447L456.284 96.3758L458.629 98.1429L461.553 98.7212C462.324 98.9783 463.256 98.9783 464.284 98.7212L465.441 98.3357L466.598 98.1429L468.943 97.179L473.023 94.8335L473.987 94.0624L474.951 93.4841L475.337 93.0985L475.53 93.2913L476.879 94.8657L479.225 97.0183L483.53 99.9421L487.225 101.292H487.61L487.996 101.484H491.691L492.076 101.292L493.233 100.906H493.811L494.197 100.52L496.542 99.3638L497.121 98.9783L497.506 98.5927L497.892 98.3999L499.852 96.44L500.045 96.0545L500.816 95.2833L501.394 94.5122L502.551 94.8978L503.322 95.2833L506.246 96.0545H507.017L507.788 96.2472H510.712L515.21 94.8978L516.366 94.1267L517.137 93.7411L517.33 93.5484L517.716 93.3556L520.832 90.239L521.604 89.0823C521.861 88.9538 521.861 88.761 521.604 88.504C521.475 88.3755 521.282 88.3755 521.025 88.504L520.64 89.0823L519.065 90.6567L518.487 91.0422L518.101 91.4278L517.716 91.6206L517.523 91.8133L517.137 92.0061L516.945 92.1989L516.559 92.3917L516.366 92.5845L515.21 93.3556L511.9 94.3195L510.551 94.5122H509.394L509.009 94.3195H508.045L507.274 94.1267H506.695L505.346 93.7411L504.768 93.3556L503.611 92.97L503.033 92.5845L501.683 92.0061C501.169 91.7491 500.719 91.8776 500.334 92.3917L499.755 93.1628L498.984 93.7411L498.406 94.5122L498.02 94.705L497.828 95.0906L497.442 95.4761L497.056 95.6689L496.478 96.2472L496.093 96.44L495.707 96.8256L492.976 98.175H492.59L491.627 98.3678L491.241 98.5606H489.281L488.896 98.3678H488.317L487.932 98.175H487.546L486.775 97.7895L485.201 97.2111L484.43 96.6328L483.658 96.2472L481.506 94.4801L481.313 94.0945L479.546 92.5202L477.2 89.5964C476.301 88.6968 475.433 88.5683 474.662 89.2109L473.698 89.982L473.313 90.1747L472.927 90.5603L467.465 93.8696L464.541 94.8335H464.156L463.77 95.0263H462.003L460.429 94.6408L459.658 94.2552L458.501 93.0985L458.115 92.3274L457.73 91.9419L457.537 91.5563L456.573 88.6325L456.188 86.6726L455.995 86.0943V85.7087L455.802 84.5521V83.5882L455.609 82.4315V81.4676L455.416 80.3109C455.416 78.8651 454.774 78.2868 453.457 78.5438H453.071L443.914 80.5037H440.99L438.259 80.1182L437.295 79.7326L436.524 79.1543C436.01 78.6402 435.753 77.9976 435.753 77.1944L435.56 75.8449L435.753 74.4955L437.713 68.8407L440.637 63.1859L447.641 52.6473C448.284 51.8762 448.219 51.2015 447.448 50.6874L445.103 49.9163H444.717L444.139 49.7235L443.368 49.338L441.601 48.7596L440.444 48.1813L440.058 47.7958L438.902 46.8319L437.938 45.4824L437.552 44.133V43.1691L437.745 42.7835V42.398L438.131 41.6269L438.323 40.663L438.709 39.8919L439.287 39.1208L439.673 38.3496L443.978 33.2732L446.902 30.5421C447.159 30.4136 447.159 30.2209 446.902 29.9638C446.774 29.8353 446.581 29.8353 446.324 29.9638L444.589 31.0241Z" fill="#E5731B"/>
</g>
<mask id="mask4_213_4439" style="mask-type:luminance" maskUnits="userSpaceOnUse" x="-52" y="-27" width="617" height="347">
<path d="M564.889 -27H-52V320H564.889V-27Z" fill="white"/>
</mask>
<g mask="url(#mask4_213_4439)">
<path d="M-51.7754 259.308C-51.7754 259.308 -29.4453 244.4 -7.66141 244.625C14.1225 244.85 25.4964 255.806 25.4964 255.806C25.4964 255.806 37.8341 240.994 59.1361 239.067C80.438 237.139 93.4184 253.332 93.4184 253.332C93.4184 253.332 98.8483 247.709 105.081 247.356C111.315 247.003 116.102 252.786 116.102 252.786C116.102 252.786 130.175 242.28 144.344 242.986C158.513 243.693 163.011 253.3 163.011 253.3C163.011 253.3 172.971 240.512 194.081 241.251C215.19 241.99 227.656 253.686 227.656 253.686C227.656 253.686 241.15 245.653 255.127 246.617C269.103 247.581 275.593 254.649 275.593 254.649C275.593 254.649 283.08 246.842 297.056 246.617C311.032 246.36 316.527 254.425 316.527 254.425C316.527 254.425 328.511 233.701 353.476 233.476C378.44 233.219 389.429 253.718 389.429 253.718C389.429 253.718 400.16 243.019 413.879 244.593C427.599 246.167 433.093 253.332 433.093 253.332C433.093 253.332 447.069 234.89 467.279 236.496C487.488 238.103 497.224 253.332 497.224 253.332C497.224 253.332 504.453 242.537 518.429 243.019C532.406 243.468 537.643 253.332 537.643 253.332C537.643 253.332 543.876 245.621 553.354 246.36C562.832 247.131 564.889 259.244 564.889 259.244L472.484 274.891H-36.4817L-51.7754 259.308Z" fill="#E17021"/>
<path d="M564.889 259.309H-51.7754V319.969H564.889V259.309Z" fill="#ED8942"/>
</g>
<mask id="mask5_213_4439" style="mask-type:luminance" maskUnits="userSpaceOnUse" x="-52" y="-27" width="617" height="347">
<path d="M564.889 -27H-52V320H564.889V-27Z" fill="white"/>
</mask>
<g mask="url(#mask5_213_4439)">
<path d="M190.065 267.467H188.908C187.269 267.467 185.92 266.118 185.92 264.479V237.201H193.053V264.479C193.085 266.118 191.735 267.467 190.065 267.467Z" fill="#C1737A"/>
<path d="M323.885 268.238H322.728C321.09 268.238 319.74 266.888 319.74 265.25V237.972H326.873V265.25C326.873 266.888 325.524 268.238 323.885 268.238Z" fill="#C1737A"/>
<path d="M191.706 177.697H187.336V232.157H191.706V177.697Z" fill="#D4AB9E"/>
<path d="M325.491 177.697H321.121V232.157H325.491V177.697Z" fill="#D4AB9E"/>
<path d="M335.646 183.321H177.183C174.966 183.321 173.135 181.521 173.135 179.272V176.124C173.135 173.907 174.934 172.075 177.183 172.075H335.646C337.863 172.075 339.695 173.874 339.695 176.124V179.272C339.663 181.489 337.863 183.321 335.646 183.321Z" fill="#D78E61"/>
<path d="M335.646 198.454H177.183C174.966 198.454 173.135 196.655 173.135 194.406V191.257C173.135 189.04 174.934 187.209 177.183 187.209H335.646C337.863 187.209 339.695 189.008 339.695 191.257V194.406C339.663 196.623 337.863 198.454 335.646 198.454Z" fill="#D78E61"/>
<path d="M335.646 213.585H177.183C174.966 213.585 173.135 211.786 173.135 209.537V206.388C173.135 204.171 174.934 202.34 177.183 202.34H335.646C337.863 202.34 339.695 204.139 339.695 206.388V209.537C339.663 211.754 337.863 213.585 335.646 213.585Z" fill="#D78E61"/>
<path d="M335.646 239.705H177.183C174.966 239.705 173.135 237.906 173.135 235.657V232.508C173.135 230.291 174.934 228.46 177.183 228.46H335.646C337.863 228.46 339.695 230.259 339.695 232.508V235.657C339.663 237.906 337.863 239.705 335.646 239.705Z" fill="#D78E61"/>
</g>
<mask id="mask6_213_4439" style="mask-type:luminance" maskUnits="userSpaceOnUse" x="-52" y="-27" width="617" height="347">
<path d="M564.889 -27H-52V320H564.889V-27Z" fill="white"/>
</mask>
<g mask="url(#mask6_213_4439)">
<path d="M173.745 259.724C173.102 258.888 172.652 258.021 172.62 257.153C169.568 257.121 169.857 262.455 173.745 259.724ZM187.175 259.595C187.143 258.888 187.239 258.182 187.432 257.475C182.163 255.258 182.901 265.989 187.882 262.198C187.464 261.395 187.207 260.527 187.175 259.595Z" fill="#F0C294"/>
<path d="M172.651 256.318C171.623 256.158 170.338 256.222 169.245 256.35C169.053 260.238 168.988 262.423 171.462 262.808C172.844 262.262 175.061 261.62 173.776 259.724C169.888 262.455 169.631 257.121 172.651 257.154C172.587 256.864 172.619 256.575 172.651 256.318ZM185.31 253.555C182.226 256.286 179.013 263.74 182.033 266.246C184.7 268.56 190.772 265.572 187.881 262.198C182.901 265.989 182.162 255.258 187.431 257.475C187.495 256.35 188.716 255.226 188.427 254.166C187.913 253.427 186.371 252.527 185.31 253.555Z" fill="#E7B581"/>
<path d="M171.527 247.74C171.334 247.29 171.142 246.808 170.949 246.294C169.439 246.101 167.929 246.905 166.451 248.64C161.728 253.363 163.559 257.122 169.856 256.286C170.274 253.812 172.106 249.764 171.527 247.74ZM167.607 251.242C167.575 250.053 169.439 250.053 169.439 251.242C169.439 252.399 167.607 252.399 167.607 251.242ZM168.732 254.423C168.7 253.973 169.439 254.005 169.439 254.423C169.439 254.905 168.7 254.937 168.732 254.423ZM191.737 243.981C187.431 242.085 183.576 246.648 180.202 247.997C176.636 248.929 177.182 252.238 178.531 254.551C176.636 248.543 182.901 248.768 186.789 250.053C188.845 248.19 191.608 246.776 191.737 243.981Z" fill="#B2152A"/>
<path d="M168.829 254.166C168.508 254.519 169.022 255.034 169.311 254.68C169.664 254.391 169.15 253.877 168.829 254.166ZM167.865 250.6C167.03 251.403 168.347 252.72 169.15 251.853C170.018 251.05 168.668 249.732 167.865 250.6ZM172.652 251.949C172.684 251.114 171.335 251.146 171.335 251.949C171.303 252.817 172.684 252.849 172.652 251.949ZM190.806 247.997C190.42 247.997 190.388 248.672 190.806 248.672C191.255 248.704 191.255 247.997 190.806 247.997ZM194.115 249.218C194.661 248.64 193.794 247.708 193.215 248.318C192.605 248.897 193.537 249.764 194.115 249.218ZM192.637 246.68C193.087 246.326 192.412 245.684 192.026 246.069C191.673 246.487 192.251 247.098 192.637 246.68Z" fill="#D04856"/>
<path d="M170.948 246.295C172.683 249.058 170.434 253.01 169.855 256.287C172.394 256.319 178.016 256.351 177.599 253.395C176.86 250.343 174.321 247.034 170.948 246.295ZM172.49 251.5C173.068 252.11 172.137 253.042 171.526 252.432C170.884 251.821 171.912 250.889 172.49 251.5ZM197.551 252.11C195.752 248.865 196.523 245.331 191.736 243.981C191.607 246.777 188.844 248.19 186.756 250.086C189.551 250.793 201.278 256.351 196.105 259.693C199.254 258.247 199.64 256.03 197.551 252.11ZM192.764 246.391C192.764 246.937 191.864 246.97 191.896 246.391C191.864 245.813 192.796 245.845 192.764 246.391ZM194.274 248.769C194.306 249.572 192.989 249.54 193.021 248.769C193.021 247.933 194.306 247.901 194.274 248.769ZM190.611 248.126C190.932 247.805 191.35 248.287 191.093 248.608C190.74 248.865 190.29 248.415 190.611 248.126Z" fill="#BE1D2F"/>
<path d="M184.764 254.133C184.861 252.462 185.567 251.242 186.788 250.085C182.901 248.8 176.668 248.575 178.531 254.583C179.334 255.868 180.523 256.961 182.194 257.989C183.061 256.447 183.672 255.29 184.764 254.133Z" fill="#E58C5B"/>
<path d="M191.415 260.11C204.91 260.657 192.444 251.21 186.757 250.086C185.568 251.243 184.829 252.464 184.732 254.134C185.664 252.624 187.72 253.074 188.395 254.166C188.684 254.648 188.235 255.259 188.042 255.741C187.463 256.962 187.142 258.311 187.174 259.628C187.753 259.5 189.166 259.693 191.415 260.11Z" fill="#F6A76C"/>
</g>
<mask id="mask7_213_4439" style="mask-type:luminance" maskUnits="userSpaceOnUse" x="-52" y="-27" width="617" height="347">
<path d="M564.889 -27H-52V320H564.889V-27Z" fill="white"/>
</mask>
<g mask="url(#mask7_213_4439)">
<path d="M120.866 0.636849H120.812C118.548 -1.03451 116.014 -1.84323 113.264 -1.68148C115.259 -1.46582 117.254 -0.711021 119.303 0.636849C119.41 0.744678 119.518 0.798593 119.68 0.906423C119.95 1.12208 120.219 1.39166 120.543 1.66123C120.704 1.76906 120.92 1.93081 121.082 2.03864C121.19 2.09255 121.244 2.14646 121.298 2.14646C122.43 3.22476 123.238 4.41088 123.616 5.75875C123.724 5.97441 123.778 6.19008 123.832 6.40574L123.885 6.51357C124.047 7.10663 124.155 7.69969 124.155 8.29276C124.155 8.77799 124.101 9.26322 123.939 9.74845C123.832 10.1798 123.724 10.6111 123.616 10.9885C124.694 9.31714 125.072 7.75361 124.802 6.40574C124.802 6.29791 124.802 6.13616 124.748 6.08225C124.64 5.81267 124.586 5.59702 124.532 5.32744C124.478 5.21961 124.425 5.16569 124.425 5.11178C124.047 3.76391 123.292 2.57778 122.16 1.49949C121.891 1.28383 121.621 1.06817 121.351 0.906423C121.136 0.906423 120.974 0.744678 120.866 0.636849ZM40.1558 16.1104C40.5332 16.1104 40.9106 16.1104 41.288 16.1104C41.3958 16.1104 41.5575 16.1104 41.6654 16.1104C41.9889 16.1643 42.2584 16.1643 42.5819 16.1643C42.9593 16.2182 43.2828 16.2182 43.5524 16.2182C47.3803 16.4878 51.2622 17.2426 55.0902 18.5366C51.4779 16.8113 47.5421 15.8408 43.3906 15.6252C43.2289 15.6252 43.0132 15.6252 42.8515 15.5713C42.7976 15.5713 42.7437 15.5713 42.7437 15.5713C42.1506 15.5173 41.5036 15.5173 40.9645 15.5173C36.1122 15.5173 31.9607 16.5417 28.5641 18.5905C28.3484 18.6983 28.1328 18.86 27.971 18.9679C27.8093 19.0757 27.6475 19.1835 27.4858 19.2914C27.5936 19.2375 27.6475 19.1835 27.7014 19.1835C31.2059 17.1348 35.3573 16.1104 40.1558 16.1104ZM78.0039 7.53794C73.9603 4.30306 69.108 2.68561 63.4469 2.68561C58.379 2.68561 54.0119 3.97957 50.2917 6.51357C50.2378 6.56748 50.1839 6.62139 50.0761 6.62139C49.6987 6.89097 49.3213 7.16054 48.9439 7.48403C48.6204 7.75361 48.3508 7.96926 48.0273 8.23884C46.8412 9.37105 45.8168 10.6111 45.062 11.8511C45.2777 11.5816 45.4933 11.312 45.709 11.0424C46.356 10.3415 47.1108 9.64062 47.9195 8.99364C47.9734 8.99364 47.9734 8.99365 47.9734 8.93973C52.017 5.70484 56.8693 4.0874 62.5304 4.0874C68.1375 4.0874 72.9899 5.70484 77.0335 8.93973C77.95 9.69454 78.7588 10.4493 79.5136 11.2581C79.5675 11.312 79.891 11.0963 80.4301 10.6111H80.484L80.5379 10.5572C80.6458 10.4493 80.6997 10.3954 80.8075 10.3415C80.8075 10.2876 80.8075 10.2876 80.7536 10.2876C80.3762 9.80237 79.891 9.31714 79.4057 8.8319C78.9744 8.34667 78.4892 7.91535 78.0039 7.53794ZM53.0414 30.6674C52.8796 30.7752 52.7179 30.8831 52.5562 30.937C51.9631 31.2605 51.424 31.53 50.8309 31.7996C50.6691 31.8535 50.4535 31.9074 50.2378 32.0153C49.1056 31.1526 47.9195 30.1822 46.7334 29.1039C47.1647 30.1822 47.8117 31.0987 48.5665 31.7996C48.7282 32.0153 48.9439 32.2309 49.1595 32.3927C48.89 32.4466 48.6204 32.5005 48.3508 32.6622C46.0864 33.2553 43.6602 33.5249 40.9645 33.5249C36.1122 33.5249 31.9607 32.5544 28.5641 30.5596C28.3484 30.4517 28.1328 30.29 27.9171 30.0743C25.4909 28.4569 24.0352 26.6238 23.6039 24.575C23.4961 25.0063 23.4961 25.4916 23.4961 25.9768C23.4961 28.8343 25.2214 31.3144 28.618 33.3631C32.0146 35.358 36.1661 36.3284 41.0184 36.3284C44.7924 36.3284 48.1351 35.7354 51.0465 34.5493C51.424 34.3875 51.7474 34.1719 52.1248 34.0101C52.4483 33.8484 52.7179 33.6327 53.0414 33.471C56.1145 34.9806 59.619 35.7354 63.4469 35.7354C65.2801 35.7354 66.9514 35.6276 68.5689 35.358C68.6767 35.3041 68.7845 35.2502 68.8923 35.2502C69.2697 35.1962 69.5932 35.1423 69.8628 35.0345C70.8333 37.3528 72.3429 39.4555 74.4456 41.3425C78.4892 45.0626 83.3415 46.8957 89.0026 46.8957C93.3157 46.8957 97.1437 45.8174 100.486 43.7148C101.295 43.1756 102.05 42.5826 102.805 41.9895C103.02 41.7738 103.29 41.5582 103.56 41.3425C103.991 40.9112 104.422 40.426 104.907 39.9407C105.285 39.5633 105.608 39.132 105.986 38.7007C107.603 36.598 108.681 34.2258 109.221 31.7457C109.221 31.4761 109.275 31.2065 109.328 30.883C109.382 30.7213 109.382 30.5056 109.382 30.3439C109.544 30.3439 109.76 30.3439 109.921 30.3439C110.137 30.3439 110.353 30.3439 110.568 30.3439C110.676 30.3439 110.838 30.3439 110.946 30.29C112.078 30.1822 113.156 29.8048 114.127 29.2117C114.72 28.8343 115.367 28.403 115.906 27.8638V27.8099C116.014 27.7021 116.176 27.5403 116.283 27.4325C116.391 27.3247 116.499 27.1629 116.607 27.109C116.715 26.9473 116.769 26.7855 116.877 26.7316L116.93 26.7855C117.038 26.8394 117.092 26.8934 117.146 27.0012C117.254 27.109 117.416 27.2168 117.523 27.3247C120.704 30.2361 124.586 31.6918 129.169 31.6918C132.727 31.6918 135.855 30.8291 138.55 29.05C139.197 28.6186 139.898 28.1334 140.545 27.5942C140.599 27.4864 140.653 27.4325 140.815 27.3247C141.3 26.8934 141.731 26.462 142.163 25.9768C142.378 25.7611 142.594 25.5455 142.756 25.3298C144.643 22.8497 145.613 20.0462 145.613 16.9191C145.613 16.4339 145.613 15.9487 145.559 15.5173C145.451 16.8113 145.182 17.9974 144.697 19.1296C144.697 19.2375 144.697 19.2914 144.643 19.3992C143.834 21.2862 142.594 23.0115 140.869 24.575V24.6289C137.634 27.4864 133.752 28.9421 129.223 28.9421C125.611 28.9421 122.43 28.0256 119.68 26.1385C119.303 25.9229 118.979 25.7072 118.71 25.4916C118.332 25.1681 118.009 24.8985 117.631 24.575C117.416 24.3594 117.2 24.1437 116.984 23.928C116.661 24.3594 116.337 24.7907 116.014 25.1142C115.906 25.222 115.798 25.3837 115.69 25.4377C115.583 25.5455 115.421 25.6533 115.367 25.7611C113.803 27.0012 112.024 27.5942 109.975 27.5942C109.814 27.5942 109.598 27.5942 109.436 27.5942C109.382 28.0256 109.328 28.5108 109.221 28.996C109.059 29.643 108.843 30.29 108.628 30.937C108.628 31.0448 108.628 31.2065 108.574 31.4222C107.549 34.064 105.878 36.4902 103.613 38.6468L103.56 38.7007C99.5159 42.3669 94.7175 44.2 89.0565 44.2C84.4737 44.2 80.484 43.0139 76.9796 40.5877C76.1169 39.9946 75.3082 39.3477 74.4995 38.5929C72.936 37.1372 71.6959 35.5736 70.7254 33.9562C70.402 33.417 70.1324 32.8779 69.9167 32.2848C69.6472 32.3927 69.3776 32.4466 69.108 32.5005C68.6767 30.6674 68.5149 28.7804 68.6228 26.8394C68.7306 24.8446 69.1619 22.7958 69.8628 20.6392C68.2454 24.1976 67.5445 27.3247 67.7601 30.1282C67.814 30.7213 67.868 31.2605 68.0297 31.8535C68.0297 32.1231 68.0836 32.3927 68.1375 32.6622H68.0836C68.0297 32.7162 67.9758 32.7161 67.868 32.7161C66.4662 32.9318 64.9566 33.0396 63.393 33.0396C59.619 32.9857 56.1685 32.177 53.0414 30.6674ZM88.4634 -21.1986C88.8408 -21.63 89.2721 -22.0613 89.7035 -22.3848C88.8947 -21.8456 88.1399 -21.2526 87.3851 -20.5517C87.1155 -20.2821 86.846 -20.0664 86.5764 -19.7969C85.3903 -18.6646 84.3659 -17.3707 83.6111 -16.0228C81.778 -13.1653 80.7536 -9.98436 80.5379 -6.4799C80.484 -6.04858 80.484 -5.56335 80.484 -5.07811C80.484 -0.764931 81.6701 3.11693 83.9885 6.56748C84.312 7.05271 84.6355 7.53795 85.0668 7.96926C85.1207 8.02318 85.1207 8.07709 85.1207 8.07709C85.3903 8.40058 85.6598 8.67015 85.9294 8.99364C85.552 9.04756 85.1207 9.10148 84.7433 9.10148C84.8511 9.20931 85.4981 9.2093 86.5764 8.99364C88.4634 8.61624 91.1592 8.61624 94.6097 8.99364C94.5019 8.93973 94.3401 8.88581 94.2862 8.88581C94.1784 8.8319 94.1245 8.8319 94.0706 8.8319C93.6931 8.77799 93.3157 8.72407 92.9923 8.61624C91.3748 8.02318 89.5956 7.64577 87.6547 7.64577C87.3312 7.26837 87.0616 6.94488 86.7921 6.56748C84.0424 3.17084 82.5328 -0.711016 82.2632 -5.07811C82.2632 -5.56335 82.2632 -6.04858 82.2632 -6.4799C82.2632 -11.1705 83.6111 -15.268 86.2529 -18.8264C86.6842 -19.4194 87.1695 -19.9586 87.6547 -20.5517C87.9243 -20.7673 88.1938 -20.983 88.4634 -21.1986Z" fill="#F9DAB1"/>
<path d="M89.7589 -22.4923C89.705 -22.4923 89.705 -22.4923 89.705 -22.4384C89.2736 -22.061 88.8423 -21.6836 88.4649 -21.2523C88.1953 -21.0366 87.9797 -20.821 87.7101 -20.6053C87.2249 -20.0122 86.7396 -19.4731 86.3083 -18.88C83.6665 -15.3217 82.3186 -11.2241 82.3186 -6.53355C82.3186 -6.10223 82.3186 -5.617 82.3186 -5.13177C82.5882 -0.818583 84.0978 3.06329 86.8475 6.51383C87.1171 6.89124 87.3866 7.21472 87.7101 7.59213C89.5971 7.64604 91.3763 7.96953 93.0477 8.5626C93.3712 8.67043 93.6947 8.72434 94.126 8.77825C94.1799 8.77825 94.2338 8.77825 94.3416 8.83217C94.4495 8.88608 94.5573 8.94 94.6651 8.94C91.2146 8.56259 88.5188 8.56259 86.6318 8.94C85.4996 9.15566 84.9065 9.20957 84.7987 9.04783C84.583 9.10174 84.3674 9.15565 84.1517 9.15565C83.2352 9.37131 82.3186 9.64089 81.456 9.96438C81.2943 10.0722 81.0786 10.1261 80.9169 10.2339C80.809 10.2879 80.7551 10.3418 80.6473 10.4496L80.5934 10.5035H80.5394C79.9464 10.9888 79.6768 11.2044 79.6229 11.1505C78.922 10.3418 78.1133 9.58698 77.1428 8.83217C73.0992 5.59728 68.3008 3.97984 62.6397 3.97984C56.9787 3.97984 52.1263 5.59728 48.0827 8.83217C48.0827 8.88608 48.0827 8.88608 48.0288 8.88608C47.2201 9.53306 46.5192 10.234 45.8183 10.9348C45.6027 11.2044 45.387 11.474 45.1713 11.7436C44.9557 12.121 44.74 12.4445 44.5783 12.8219C44.3626 13.1993 44.2009 13.6306 44.0391 14.0619H43.9852C43.8235 14.5471 43.6617 15.0324 43.6078 15.5176C47.7592 15.7333 51.6411 16.7037 55.3073 18.429C51.4794 17.135 47.5975 16.3802 43.7696 16.1107C43.4461 16.1107 43.1226 16.1107 42.7991 16.0567C42.4756 16.0567 42.206 16.0567 41.8825 16.0028C41.7747 16.0028 41.613 16.0028 41.5051 16.0028C41.1277 16.0028 40.7503 16.0028 40.3729 16.0028C35.5206 16.0028 31.4231 17.0272 27.9725 19.076C27.9186 19.1299 27.8647 19.1838 27.7569 19.1838C27.7029 19.2377 27.649 19.2916 27.649 19.2916C27.3255 19.4534 27.056 19.669 26.7864 19.8847C25.762 20.7473 25.0072 21.61 24.522 22.5265C24.1985 23.1196 23.9828 23.7126 23.875 24.3596C24.3063 26.4623 25.762 28.2954 28.1882 29.8589C28.4038 30.0207 28.6195 30.1824 28.8352 30.3442C32.2318 32.339 36.3832 33.3095 41.2356 33.3095C43.8774 33.3095 46.3575 33.0399 48.6219 32.4468C48.8915 32.339 49.161 32.2312 49.4306 32.1773C49.2149 32.0155 48.9993 31.7999 48.8376 31.5842C48.0288 30.8294 47.4358 29.9129 47.0044 28.8885C48.1906 29.9668 49.3767 30.9372 50.5089 31.7999C50.7246 31.692 50.9402 31.6381 51.102 31.5842C51.695 31.3146 52.2342 31.0451 52.8272 30.7216C52.9351 30.6677 53.0968 30.6137 53.3125 30.452C56.3856 32.0155 59.8901 32.7703 63.718 32.7703C65.2816 32.7703 66.7373 32.6625 68.193 32.4468C68.3008 32.4468 68.3547 32.4468 68.4086 32.3929H68.4625C68.3547 32.1234 68.3547 31.8538 68.3547 31.5842C68.2469 30.9911 68.139 30.452 68.0851 29.8589C67.9234 27.0554 68.6243 23.9283 70.1878 20.3699C69.4869 22.4726 69.0556 24.5753 68.9478 26.5701C68.8399 28.5111 68.9478 30.3981 69.433 32.2312C69.7026 32.1773 69.9721 32.1234 70.2417 32.0155C70.4574 32.6086 70.727 33.1477 71.0504 33.6869C72.0209 35.3043 73.2609 36.8679 74.8245 38.3236C75.6332 39.0784 76.4419 39.7253 77.3046 40.3184C80.809 42.6907 84.8526 43.9307 89.3815 43.9307C94.9886 43.9307 99.8409 42.0976 103.885 38.4314L103.938 38.3775C106.257 36.2209 107.874 33.7947 108.899 31.1529C108.953 30.9911 108.953 30.8294 108.953 30.6677C109.168 30.0746 109.384 29.4276 109.546 28.7267C109.653 28.2415 109.707 27.7563 109.761 27.3249C109.923 27.3249 110.139 27.3249 110.3 27.3249C112.349 27.3249 114.128 26.7319 115.692 25.4918C115.8 25.384 115.908 25.2223 116.015 25.1683C116.123 25.0605 116.285 24.9527 116.339 24.8449C116.716 24.4675 117.04 24.0901 117.309 23.6587C117.525 23.8744 117.741 24.0901 117.956 24.3057C118.334 24.6292 118.657 24.8988 119.035 25.2223C119.358 25.4379 119.682 25.6536 120.005 25.8692C122.755 27.7023 125.936 28.6728 129.548 28.6728C134.077 28.6728 137.959 27.2171 141.194 24.3596V24.4135C142.919 22.85 144.159 21.1247 144.968 19.2377C145.022 19.1299 145.022 19.076 145.022 18.9681C145.507 17.8359 145.776 16.6498 145.884 15.3559C145.561 11.8514 143.997 8.83217 141.194 6.24426C138.013 3.38677 134.023 2.52414 129.332 3.65635C128.47 3.87201 127.607 4.14158 126.744 4.41115C126.637 4.46507 126.475 4.51898 126.367 4.62681C125.99 4.73464 125.612 4.84247 125.235 4.9503C125.073 5.05813 124.857 5.11204 124.696 5.21987C124.75 5.27379 124.803 5.32771 124.803 5.43554C124.857 5.6512 124.911 5.92077 125.019 6.19034C125.073 6.29817 125.073 6.406 125.073 6.51383C125.343 7.8617 124.965 9.42523 123.887 11.0966C123.995 10.7192 124.157 10.2879 124.21 9.85655C124.318 9.37131 124.426 8.88608 124.426 8.40085C124.426 7.80779 124.318 7.16081 124.157 6.62166L124.103 6.51383C124.049 6.29817 123.995 6.08252 123.887 5.86686C123.51 4.51899 122.701 3.33285 121.569 2.25456C121.515 2.20064 121.461 2.14673 121.353 2.14673C121.191 2.0389 120.976 1.87716 120.814 1.76933C120.49 1.49975 120.221 1.2841 119.951 1.01453C119.789 0.906695 119.628 0.852781 119.574 0.744951C117.525 -0.602919 115.53 -1.35773 113.535 -1.57339C116.339 -1.68122 118.873 -0.926407 121.083 0.744951H121.137C121.245 0.852781 121.407 1.01452 121.623 1.12235C121.838 0.475375 122 -0.225518 122.162 -0.926411C122.162 -1.03424 122.162 -1.08816 122.216 -1.19598C122.377 -2.43602 122.485 -3.67607 122.485 -4.97002C122.485 -5.45525 122.485 -5.94049 122.431 -6.3718C122.162 -11.4937 120.167 -15.9686 116.447 -19.7427C112.349 -23.8402 107.443 -25.835 101.62 -25.835C96.9835 -25.9429 93.1555 -24.7567 89.7589 -22.4923Z" fill="#FEF8F1"/>
<path d="M327.05 67.6749C326.393 68.2776 325.571 68.8804 324.639 69.4284C321.461 71.2915 318.173 72.3326 314.83 72.6066C311.543 72.8806 308.748 72.8806 306.446 72.6614C304.145 72.3874 301.953 71.7299 299.926 70.6339C300.802 71.7847 302.063 72.6066 303.652 73.2094C304.529 73.4286 305.405 73.6478 306.282 73.8122C307.926 74.1409 309.625 74.3053 311.433 74.3053C315.926 74.3053 319.762 73.3738 322.995 71.5655C324.913 70.4147 326.283 69.0996 327.05 67.6749ZM290.665 60.1128V60.058C288.747 59.1265 286.5 58.4141 283.98 57.9209C290.062 59.7841 294.775 62.8527 298.172 67.1269C297.295 65.3734 296.09 63.839 294.501 62.5239C294.391 62.4143 294.281 62.3595 294.172 62.2499L294.062 62.1403C293.295 61.702 292.528 61.2088 291.706 60.7156C291.322 60.4964 290.994 60.2772 290.665 60.1128ZM205.948 77.1548C206.606 79.785 208.853 81.5386 212.688 82.4701C216.469 83.4017 220.689 83.2921 225.401 82.0865C228.032 81.3742 230.443 80.3878 232.47 79.1275C234.114 80.9906 236.306 82.4701 239.155 83.5661C244.142 85.4292 249.567 85.5936 255.485 84.0592C260.417 82.7441 264.472 80.5522 267.65 77.4288C270.006 80.6618 273.185 83.4565 277.24 85.8128C282.555 88.8814 287.815 90.2513 292.966 89.9773C298.008 89.7033 301.515 87.895 303.542 84.4976C301.46 86.5251 298.501 87.6211 294.61 87.895C289.405 88.169 284.144 86.7443 278.829 83.7304C274.774 81.3742 271.595 78.5795 269.294 75.3465C266.17 78.4151 262.115 80.607 257.129 81.9769C251.211 83.5661 245.786 83.4017 240.799 81.4838C237.95 80.3878 235.758 78.9631 234.169 77.1C232.032 78.2507 229.676 79.2371 226.99 79.9494C222.333 81.2098 218.059 81.3742 214.223 80.4426C210.442 79.5111 208.195 77.7028 207.537 75.1273C207.044 73.319 207.373 71.4559 208.524 69.5928C206.222 72.1134 205.346 74.6341 205.948 77.1548ZM212.634 61.4828C211.647 57.9757 212.36 54.5235 214.716 51.0713C214.387 51.4549 214.058 51.8384 213.73 52.222C210.825 55.8934 209.948 59.6745 210.99 63.5651C211.209 64.4418 211.538 65.209 211.921 65.9761C212.031 66.1953 212.195 66.4145 212.25 66.5789C214.497 64.2774 218.497 62.5787 224.251 61.5376C219.976 61.702 216.524 62.6883 213.949 64.4966C213.346 63.6199 212.908 62.5787 212.634 61.4828Z" fill="#F9DAB1"/>
<path d="M214.717 51.0716C212.306 54.469 211.649 57.976 212.635 61.483C212.909 62.6338 213.347 63.6201 213.895 64.4969C216.526 62.6886 219.923 61.7022 224.197 61.5378C218.444 62.6338 214.443 64.2777 212.197 66.5792C211.046 67.3463 210.06 68.1683 209.073 69.0998C208.909 69.2094 208.745 69.3738 208.58 69.4834C207.429 71.3465 207.046 73.2096 207.594 75.018C208.251 77.6482 210.498 79.4017 214.279 80.3333C218.115 81.2648 222.334 81.1004 227.047 79.8401C229.677 79.1277 232.088 78.1962 234.225 76.9907C235.814 78.8538 238.006 80.2785 240.856 81.3744C245.842 83.2375 251.267 83.4019 257.185 81.8676C262.117 80.4977 266.172 78.3058 269.35 75.2371C271.652 78.4702 274.83 81.2648 278.885 83.6211C284.2 86.6898 289.461 88.0597 294.667 87.7857C298.557 87.5665 301.516 86.4158 303.599 84.3883C303.653 84.3335 303.708 84.2787 303.708 84.2787C305.571 81.1004 305.516 77.3742 303.653 73.1548C302.064 72.5521 300.859 71.7301 299.927 70.5794C302.009 71.6753 304.201 72.3329 306.448 72.6069C308.749 72.8261 311.544 72.8261 314.832 72.5521C318.175 72.2781 321.408 71.2369 324.641 69.3738C325.572 68.8259 326.394 68.2231 327.052 67.6203C327.545 66.7436 327.819 65.7572 327.819 64.7709C327.819 62.1406 326.175 59.9487 322.942 58.1404C319.764 56.2773 315.873 55.4005 311.38 55.4005C306.777 55.4005 302.941 56.3321 299.763 58.1404C298.776 58.6336 297.954 59.1815 297.352 59.8391C297.023 60.0583 296.749 60.3323 296.53 60.6063C295.927 61.3186 295.434 62.0858 295.16 62.9078C294.941 62.7434 294.721 62.579 294.502 62.4146C296.037 63.7297 297.242 65.264 298.174 67.0176C294.776 62.7982 290.064 59.7295 283.981 57.8116C286.502 58.3048 288.748 59.0172 290.666 59.9487C291.269 59.3459 291.927 58.6884 292.475 57.976C292.584 57.8664 292.639 57.702 292.749 57.6472C293.077 57.2636 293.351 56.8253 293.68 56.4417C296.804 52.0579 297.79 47.5645 296.584 43.0164C295.269 38.0298 291.708 34.4132 285.899 32.2213C280.145 30.0294 273.844 29.8102 266.994 31.6733C260.528 33.372 255.377 36.3859 251.541 40.7149C251.267 41.0436 251.048 41.3176 250.774 41.5916C249.349 43.3451 248.253 45.0986 247.541 46.907C247.157 47.8933 246.829 48.9345 246.664 49.9208C245.239 47.7837 243.048 46.1398 240.143 44.9891C235.76 43.2355 230.992 43.0711 225.841 44.4411C221.293 45.811 217.567 47.9481 214.717 51.0716Z" fill="#FEF8F1"/>
<path d="M66.1641 141.485C65.4518 141.978 64.6298 142.416 63.6435 142.8C60.3556 144.17 56.9582 144.992 53.506 145.156C50.1085 145.375 47.2043 145.375 44.848 145.211C42.4917 144.992 40.1902 144.499 38.0531 143.677C38.9847 144.499 40.245 145.156 41.8889 145.595C42.7657 145.759 43.6973 145.923 44.6288 146.033C46.3275 146.252 48.081 146.362 49.9442 146.362C54.6019 146.362 58.6021 145.649 61.8899 144.28C63.9174 143.512 65.3422 142.581 66.1641 141.485ZM28.4088 135.786C26.3813 135.019 24.0798 134.471 21.5044 134.142C27.806 135.567 32.683 137.868 36.19 141.046C35.2585 139.731 33.9982 138.581 32.409 137.594C32.2994 137.539 32.1898 137.485 32.0802 137.375L31.9158 137.265C31.1487 136.937 30.3267 136.553 29.45 136.224C29.1212 136.06 28.7376 135.95 28.4088 135.786ZM-59.4312 148.554C-58.7188 150.526 -56.4173 151.842 -52.4171 152.554C-48.4717 153.266 -44.088 153.157 -39.2658 152.225C-36.5259 151.677 -34.06 150.965 -31.923 149.978C-30.2242 151.348 -27.9228 152.499 -25.0185 153.321C-19.8128 154.746 -14.1687 154.855 -8.08616 153.65C-2.93521 152.664 1.22938 151.02 4.51721 148.718C6.92829 151.129 10.2709 153.211 14.4355 154.965C19.9152 157.266 25.395 158.308 30.7651 158.088C35.9709 157.869 39.6423 156.499 41.7793 153.979C39.6423 155.513 36.5736 156.335 32.5186 156.499C27.0937 156.719 21.6688 155.677 16.1342 153.376C11.9149 151.622 8.62701 149.54 6.27073 147.129C2.9829 149.43 -1.18169 151.074 -6.33264 152.061C-12.4699 153.266 -18.114 153.102 -23.265 151.732C-26.224 150.91 -28.4707 149.814 -30.1146 148.444C-32.3065 149.321 -34.7724 150.033 -37.5123 150.581C-42.3892 151.513 -46.773 151.622 -50.7184 150.91C-54.6638 150.198 -56.9653 148.883 -57.6229 146.91C-58.116 145.54 -57.7873 144.17 -56.5817 142.745C-59.1572 144.773 -60.0887 146.691 -59.4312 148.554ZM-52.4719 136.827C-53.5131 134.197 -52.8007 131.621 -50.28 129.046C-50.6088 129.32 -50.9376 129.594 -51.3212 129.923C-54.2802 132.663 -55.2666 135.512 -54.1706 138.416C-53.9515 139.074 -53.6227 139.677 -53.1843 140.225C-53.0199 140.389 -52.9103 140.553 -52.8555 140.663C-50.4992 138.964 -46.3894 137.704 -40.4165 136.882C-44.8551 136.991 -48.4169 137.759 -51.102 139.129C-51.7596 138.416 -52.1979 137.649 -52.4719 136.827Z" fill="#F9DAB1"/>
<path d="M-50.3343 129.046C-52.8002 131.621 -53.5126 134.197 -52.5262 136.827C-52.2522 137.649 -51.8138 138.416 -51.2111 139.129C-48.526 137.759 -44.9094 137.046 -40.5256 136.882C-46.4985 137.704 -50.6631 138.964 -52.9646 140.663C-54.1153 141.211 -55.2113 141.868 -56.1976 142.526C-56.362 142.636 -56.5264 142.745 -56.6908 142.855C-57.8963 144.28 -58.2799 145.649 -57.7319 147.019C-57.0196 148.992 -54.7181 150.307 -50.8275 151.02C-46.8821 151.732 -42.4435 151.622 -37.6214 150.691C-34.8815 150.143 -32.4156 149.431 -30.2237 148.554C-28.5798 149.924 -26.2783 151.02 -23.3741 151.842C-18.1683 153.266 -12.5242 153.376 -6.44172 152.17C-1.29078 151.184 2.87381 149.485 6.16165 147.239C8.51793 149.65 11.8058 151.732 16.0252 153.486C21.5049 155.787 26.9846 156.828 32.4095 156.609C36.4097 156.445 39.4784 155.623 41.6703 154.088C41.7251 154.033 41.7799 154.033 41.8347 153.979C43.7526 151.568 43.6978 148.828 41.7799 145.649C40.1359 145.211 38.8756 144.554 37.9441 143.732C40.0811 144.554 42.3278 145.047 44.7389 145.266C47.0952 145.43 49.9995 145.43 53.3969 145.211C56.8491 144.992 60.2465 144.225 63.5344 142.855C64.5207 142.471 65.3427 142.033 66.0551 141.54C66.5482 140.882 66.8222 140.17 66.8222 139.403C66.8222 137.43 65.1235 135.786 61.7809 134.471C58.493 133.101 54.4928 132.389 49.8351 132.389C45.0677 132.389 41.0675 133.101 37.7797 134.471C36.7385 134.854 35.9166 135.238 35.259 135.731C34.9302 135.896 34.6562 136.06 34.437 136.279C33.7795 136.827 33.3411 137.375 33.0123 137.978C32.7383 137.868 32.5191 137.759 32.2999 137.649C33.8891 138.635 35.1494 139.786 36.081 141.101C32.5739 137.923 27.697 135.622 21.3953 134.197C24.0256 134.58 26.327 135.128 28.2998 135.841C28.9573 135.348 29.5601 134.854 30.1629 134.361C30.2724 134.252 30.3272 134.197 30.4368 134.087C30.7656 133.758 31.0944 133.484 31.4232 133.156C34.711 129.868 35.6974 126.47 34.437 123.073C33.0671 119.347 29.3957 116.607 23.368 114.963C17.3951 113.319 10.8742 113.155 3.75057 114.579C-2.98949 115.84 -8.30481 118.141 -12.2502 121.374C-12.5242 121.593 -12.7982 121.813 -13.0174 122.032C-14.4969 123.347 -15.6476 124.662 -16.36 126.032C-16.7984 126.799 -17.0724 127.512 -17.2916 128.334C-18.7711 126.744 -21.0726 125.539 -24.0864 124.662C-28.6346 123.347 -33.5664 123.237 -38.9365 124.279C-43.5395 125.101 -47.3753 126.69 -50.3343 129.046Z" fill="#FEF8F1"/>
</g>
<mask id="mask8_213_4439" style="mask-type:luminance" maskUnits="userSpaceOnUse" x="-52" y="-27" width="617" height="347">
<path d="M564.889 -27H-52V320H564.889V-27Z" fill="white"/>
</mask>
<g mask="url(#mask8_213_4439)">
<path d="M390.048 249.275C390.077 249.246 390.077 249.217 390.106 249.217C389.961 249.246 389.874 249.362 389.845 249.535C389.932 249.449 389.99 249.362 390.048 249.275ZM410.839 248.061C410.694 248.119 410.578 248.176 410.405 248.263C410.202 248.379 410 248.523 409.769 248.668C409.161 249.073 408.583 249.593 407.976 250.258C407.831 250.432 407.687 250.576 407.571 250.721C406.848 251.502 406.27 252.08 405.865 252.398C405.836 252.427 405.807 252.456 405.778 252.456C405.142 252.948 404.535 253.266 403.928 253.381C403.638 253.439 403.349 253.468 403.06 253.468C402.713 253.439 402.135 253.295 401.296 253.005C400.544 252.745 399.937 252.63 399.503 252.658C399.185 252.687 398.838 252.803 398.376 253.005C397.884 253.208 397.537 253.352 397.277 253.439C396.091 253.844 394.848 253.844 393.604 253.381C392.332 252.919 391.378 252.167 390.713 251.097C390.395 250.49 390.163 250.027 389.961 249.738C389.903 249.651 389.845 249.564 389.787 249.507C389.73 249.42 389.643 249.362 389.585 249.275C389.383 249.362 389.151 249.507 388.978 249.709C388.66 250.056 388.457 250.432 388.399 250.895C388.313 251.531 388.486 252.369 388.891 253.468C388.978 253.642 389.036 253.786 389.093 253.931C389.296 254.393 389.469 254.798 389.614 255.087C389.643 255.145 389.701 255.203 389.758 255.261C391.262 257.083 392.997 258.673 394.906 260.003C394.963 260.061 395.021 260.09 395.108 260.148C395.976 260.726 396.872 261.247 397.826 261.767C399.099 261.767 400.458 261.565 401.903 261.102C401.961 261.073 402.048 261.044 402.135 261.015C402.279 260.957 402.424 260.929 402.569 260.871C402.858 260.784 403.147 260.668 403.465 260.524C403.667 260.437 403.87 260.35 404.101 260.235C404.332 260.119 404.593 260.032 404.824 259.916C406.038 259.338 407.398 258.586 408.93 257.661C409.075 257.574 409.248 257.459 409.393 257.372C409.537 257.285 409.682 257.198 409.798 257.112C410.145 256.909 410.434 256.678 410.665 256.475C411.157 256.013 411.359 255.55 411.272 255.058C411.243 254.798 411.128 254.596 410.925 254.422C410.781 254.307 410.607 254.191 410.405 254.104C410.202 254.018 410.029 253.96 409.827 253.931C409.566 253.902 409.277 253.902 408.988 253.96C408.728 254.018 408.265 254.162 407.658 254.393C407.398 254.48 407.195 254.567 406.993 254.625C406.732 254.683 406.53 254.74 406.357 254.769C406.53 254.567 406.79 254.365 407.079 254.162C407.398 253.902 407.773 253.671 408.207 253.41C409.133 252.832 409.769 252.398 410.087 252.109H410.116C410.723 251.531 411.128 250.866 411.301 250.056C411.504 249.217 411.359 248.552 410.839 248.061ZM373.739 243.608C373.681 243.463 373.623 243.318 373.623 243.174C373.565 243.289 373.536 243.434 373.507 243.579C373.479 243.723 373.479 243.897 373.479 244.099C373.507 244.793 373.797 245.574 374.346 246.441C374.635 246.933 375.127 247.656 375.763 248.61L373.16 246.962C372.958 246.846 372.756 246.731 372.553 246.673C372.293 246.586 372.091 246.586 371.917 246.615C371.57 246.702 371.368 246.962 371.281 247.396C371.223 247.772 371.252 248.147 371.368 248.552C371.541 249.073 371.772 249.622 372.062 250.172C372.293 250.576 372.582 251.01 372.929 251.444C373.132 251.704 373.363 251.964 373.594 252.254C374.23 252.977 375.242 254.046 376.63 255.463C377.498 256.504 377.989 257.054 378.076 257.169C378.279 257.372 378.481 257.545 378.684 257.719C378.741 257.777 378.799 257.806 378.828 257.863C379.146 258.124 379.464 258.326 379.811 258.5C380.737 258.933 381.835 259.02 383.108 258.789C383.397 258.731 383.686 258.673 384.033 258.586C384.091 258.557 384.178 258.528 384.264 258.5C384.554 258.413 384.872 258.326 385.219 258.21C386.549 257.459 387.792 256.533 388.891 255.492C388.689 254.943 388.515 254.393 388.371 253.815C388.168 252.948 388.081 252.051 388.081 251.126C388.081 250.576 388.197 250.143 388.399 249.796C388.573 249.507 388.862 249.304 389.238 249.188C389.296 249.16 389.383 249.16 389.469 249.131C389.267 248.957 389.093 248.813 388.949 248.726C388.284 248.437 387.503 248.523 386.578 248.957C386.086 249.188 385.363 249.622 384.467 250.258C383.541 250.895 382.819 251.328 382.327 251.56C381.517 251.936 380.679 252.08 379.869 252.022C378.944 251.964 378.221 251.589 377.758 250.981C377.642 250.837 377.556 250.663 377.469 250.461C377.267 249.998 377.093 249.362 376.977 248.552C376.833 247.367 376.573 246.528 376.255 246.065C376.052 245.776 375.676 245.429 375.156 245.053C374.606 244.62 374.201 244.302 374.028 244.07C373.912 243.926 373.797 243.781 373.739 243.608Z" fill="#E0430C"/>
<path d="M399.648 233.343C399.127 233.227 398.607 233.401 398.144 233.834C397.739 234.21 397.421 234.702 397.161 235.309C396.525 236.755 396.091 238.287 395.859 239.878C395.686 241.15 395.657 242.394 395.744 243.637C395.859 243.955 395.888 244.302 395.859 244.649C395.802 244.302 395.773 243.984 395.744 243.637C395.657 243.377 395.484 243.117 395.281 242.885C394.818 242.365 394.269 242.076 393.633 242.047C392.765 242.018 392.071 242.423 391.493 243.232C390.944 244.013 390.712 244.88 390.799 245.777C390.799 245.835 390.828 245.921 390.828 245.979C390.944 246.702 391.204 247.454 391.667 248.235C391.927 248.668 392.332 249.247 392.823 249.912C392.592 249.681 392.332 249.507 392.042 249.362C391.522 249.102 391.001 249.044 390.481 249.131C390.365 249.16 390.25 249.189 390.134 249.189C390.163 249.131 390.221 249.073 390.25 249.015C390.452 248.697 390.568 248.321 390.597 247.946C390.626 247.425 390.481 246.991 390.163 246.673C389.729 246.239 389.064 246.124 388.139 246.326C387.098 246.673 386.288 246.847 385.768 246.876C386.317 246.471 386.78 246.008 387.156 245.459C387.271 245.285 387.358 245.141 387.445 244.967C387.85 244.215 388.11 243.406 388.139 242.567C388.197 241.786 388.052 241.208 387.734 240.832C387.416 240.514 387.011 240.341 386.519 240.369C386.028 240.369 385.594 240.514 385.189 240.803C384.842 241.035 384.553 241.382 384.264 241.844C384.09 242.133 383.888 242.538 383.628 243.088C384.264 239.907 384.495 236.726 384.322 233.574C384.264 232.244 383.917 231.405 383.252 231.029C382.674 230.682 382.037 230.769 381.343 231.261C380.736 231.666 380.245 232.273 379.811 233.054C378.857 234.875 378.191 236.813 377.787 238.866C377.584 239.965 377.469 241.063 377.44 242.133C377.411 242.798 377.411 243.464 377.469 244.129C377.469 244.331 377.498 244.533 377.526 244.736C377.44 244.649 377.324 244.562 377.237 244.476C377.093 244.302 376.977 244.158 376.89 244.042C376.659 243.753 376.485 243.521 376.341 243.377C375.994 243.001 375.618 242.741 375.184 242.567C374.693 242.394 374.288 242.423 373.941 242.683C373.767 242.798 373.652 242.943 373.594 243.145C373.623 243.29 373.652 243.435 373.709 243.579C373.767 243.753 373.883 243.897 373.999 244.042C374.201 244.273 374.577 244.591 375.126 245.025C375.647 245.401 376.023 245.748 376.225 246.037C376.572 246.5 376.804 247.338 376.948 248.524C377.064 249.334 377.237 249.97 377.44 250.432C377.526 250.635 377.613 250.808 377.729 250.953C378.191 251.589 378.914 251.936 379.84 251.994C380.649 252.081 381.488 251.907 382.298 251.531C382.818 251.3 383.512 250.866 384.437 250.23C385.363 249.623 386.057 249.189 386.548 248.929C387.474 248.495 388.254 248.408 388.919 248.697C389.093 248.784 389.266 248.9 389.44 249.102C389.469 249.16 389.527 249.189 389.556 249.247C389.613 249.334 389.7 249.391 389.758 249.478C389.787 249.305 389.903 249.218 390.018 249.16C390.018 249.189 389.989 249.189 389.96 249.218C389.903 249.305 389.845 249.391 389.758 249.478C389.816 249.565 389.874 249.623 389.932 249.709C390.105 249.999 390.365 250.432 390.683 251.069C391.32 252.138 392.274 252.89 393.575 253.353C394.847 253.816 396.062 253.816 397.247 253.411C397.508 253.324 397.855 253.179 398.346 252.977C398.78 252.775 399.156 252.659 399.474 252.63C399.908 252.601 400.515 252.717 401.267 252.977C402.105 253.266 402.684 253.411 403.031 253.44C403.32 253.44 403.609 253.411 403.898 253.353C404.505 253.237 405.113 252.919 405.749 252.428C405.778 252.399 405.807 252.399 405.836 252.37C406.24 252.052 406.819 251.473 407.542 250.693C407.686 250.548 407.831 250.403 407.947 250.23C408.525 249.565 409.132 249.044 409.739 248.64C409.942 248.495 410.144 248.35 410.376 248.235C410.52 248.148 410.665 248.09 410.809 248.032C410.78 248.003 410.78 247.974 410.723 247.974C410.231 247.541 409.508 247.367 408.525 247.425C408.351 247.425 408.178 247.454 408.004 247.483C407.484 247.541 406.992 247.656 406.472 247.83C406.269 247.888 406.067 247.974 405.893 248.061C405.836 248.09 405.749 248.119 405.72 248.148C405.315 248.321 404.939 248.553 404.563 248.813C404.13 249.102 403.696 249.449 403.32 249.854C403.84 249.131 404.303 248.466 404.65 247.888C404.65 247.859 404.679 247.83 404.679 247.83C404.91 247.454 405.084 247.136 405.228 246.818C405.836 245.632 406.154 244.505 406.24 243.435C406.24 243.232 406.24 243.03 406.212 242.856C406.154 242.22 405.951 241.757 405.604 241.468C405.286 241.179 404.881 241.035 404.39 241.035C403.927 241.035 403.493 241.179 403.089 241.41C402.539 241.815 401.961 242.509 401.411 243.55C401.816 242.162 402.019 240.716 401.961 239.271C401.903 237.796 401.643 236.379 401.122 235.02C400.775 234.066 400.255 233.487 399.648 233.343Z" fill="#F05A25"/>
<path d="M389.268 249.218C388.892 249.363 388.632 249.565 388.429 249.825C388.227 250.143 388.111 250.606 388.111 251.155C388.111 252.081 388.198 252.948 388.4 253.845C388.516 254.394 388.69 254.972 388.921 255.522C389.123 255.348 389.326 255.146 389.528 254.943C389.586 255.001 389.615 255.059 389.673 255.117C389.528 254.828 389.355 254.452 389.152 253.96C389.094 253.816 389.008 253.671 388.95 253.498C388.545 252.428 388.372 251.56 388.458 250.924C388.516 250.461 388.719 250.057 389.037 249.738C389.239 249.536 389.441 249.391 389.644 249.305C389.615 249.247 389.557 249.218 389.528 249.16C389.413 249.189 389.355 249.218 389.268 249.218Z" fill="#B83203"/>
<path d="M382.258 233.712L381.685 236.652L381.659 236.756L381.451 238.057L381.425 238.161L381.009 241.206L380.488 248.361V252.863L380.514 253.045V253.097L380.775 257.495V257.521V257.547V257.573V257.651L380.827 257.937C380.853 258.119 380.905 258.301 380.957 258.457L381.009 258.64L381.035 258.692L381.113 258.874L381.217 259.056L381.295 259.186L381.321 259.212L381.347 259.264L381.373 259.29L381.425 259.316V259.342H381.451V259.368V259.394L381.503 259.42L381.529 259.446L381.763 259.472H381.789L381.945 259.446L382.023 259.42L382.05 259.394H382.076L382.128 259.368H382.154L382.206 259.342L382.232 259.316L382.258 259.29L382.284 259.264L382.336 259.186C382.44 259.03 382.44 258.874 382.414 258.692C382.362 258.509 382.258 258.379 382.128 258.301L382.102 258.249V258.223L381.945 257.599V257.521V257.495L381.451 253.045L381.191 247.607L381.659 238.318L382.284 233.842C382.284 233.816 382.284 233.816 382.284 233.816L382.258 233.712Z" fill="#B62F00"/>
<path d="M383.759 244.253L383.525 244.695L382.51 246.907L382.484 246.985L382.458 247.063L382.328 247.479L382.302 247.557L381.521 250.549L381.287 251.955C381.209 252.449 381.157 252.943 381.131 253.412L380.975 255.754V258.408L381.001 258.59C381.001 258.772 381.079 258.902 381.209 259.032C381.339 259.162 381.495 259.214 381.677 259.214C381.859 259.214 382.015 259.136 382.146 259.006C382.276 258.876 382.328 258.72 382.328 258.538L382.198 257.029C382.172 256.482 382.146 256.144 382.12 256.014V252.033L382.38 249.431L382.822 247.323L383.368 245.632L383.395 245.606L383.421 245.58L383.551 245.241L384.696 243.004C384.722 242.978 384.722 242.978 384.696 242.978C384.67 242.952 384.67 242.952 384.67 242.978L383.759 244.253Z" fill="#B62F00"/>
<path d="M386.052 247.998L385.818 248.206L385.74 248.284L385.662 248.388L384.049 250.47L383.711 251.016C383.502 251.329 383.32 251.641 383.164 251.953L382.618 253.02L382.592 253.072L382.462 253.306V253.332L381.577 255.57L381.551 255.7C381.499 255.856 381.473 255.934 381.473 255.934L381.213 256.819L380.926 258.588V258.745C380.9 258.927 380.952 259.083 381.083 259.213C381.213 259.369 381.343 259.447 381.525 259.447C381.707 259.473 381.863 259.421 381.993 259.317C382.123 259.187 382.201 259.057 382.227 258.875V258.302V258.25V258.198L382.305 257.053L382.618 255.44L383.138 253.671L383.164 253.645V253.618L383.216 253.488L384.361 250.808L384.387 250.756L384.413 250.704L384.595 250.392C384.803 250.002 384.96 249.767 385.038 249.637L385.35 249.143L385.376 249.065L385.844 248.414L385.896 248.336L386.078 248.102C386.078 248.024 386.078 247.998 386.052 247.998Z" fill="#B62F00"/>
<path d="M385.818 254.14L384.335 255.103L384.205 255.207H384.179L384.023 255.337L383.971 255.363H383.945H383.919L381.837 257.315L381.343 257.887L381.317 257.939L381.291 257.965L381.057 258.251C380.953 258.408 380.901 258.564 380.927 258.746C380.953 258.928 381.031 259.058 381.161 259.162C381.317 259.266 381.473 259.318 381.655 259.292C381.837 259.266 381.967 259.188 382.097 259.032L382.15 258.954L382.176 258.876L382.332 258.616L382.644 258.121L384.413 255.91L384.439 255.884L384.595 255.701L384.621 255.675L384.673 255.623L384.804 255.493L385.87 254.557L387.25 253.646L387.302 253.62L388.004 253.256C388.004 253.229 388.004 253.229 388.004 253.229H387.978L387.224 253.49L387.171 253.516L385.818 254.14Z" fill="#B62F00"/>
<path d="M376.373 245.373L376.633 245.92C376.789 246.232 377.05 246.7 377.388 247.351L379.079 250.473L379.574 251.67C379.756 252.139 379.886 252.555 379.99 252.919C380.094 253.258 380.198 253.674 380.302 254.142L380.458 254.871V254.949L380.51 255.157V255.235L380.536 255.313L380.692 256.354C380.744 256.744 380.771 257.265 380.797 257.915V258.514C380.797 258.696 380.875 258.852 381.005 258.982C381.135 259.112 381.291 259.164 381.473 259.164C381.655 259.164 381.811 259.112 381.941 258.982C382.072 258.852 382.124 258.696 382.124 258.514V258.462L382.045 257.837C381.993 257.343 381.915 256.796 381.811 256.198L381.525 255.053L381.499 254.975L381.447 254.767L381.421 254.689L380.77 252.711C380.614 252.295 380.406 251.878 380.224 251.488L379.678 250.447C379.678 250.421 379.626 250.369 379.6 250.291C379.522 250.109 379.391 249.927 379.261 249.719L378.923 249.172C378.845 249.068 378.637 248.73 378.247 248.184L376.451 245.425H376.425C376.373 245.347 376.373 245.373 376.373 245.373Z" fill="#B62F00"/>
<path d="M373.201 249.067C373.201 249.093 373.201 249.093 373.201 249.093L379.576 256.613C379.758 256.848 379.967 257.108 380.149 257.394L381.137 259.033C381.215 259.189 381.346 259.293 381.502 259.371C381.658 259.424 381.84 259.398 381.996 259.345C382.152 259.267 382.256 259.137 382.334 258.981C382.386 258.799 382.386 258.643 382.308 258.487L382.152 258.253L382.126 258.201L381.788 257.68L379.602 255.182L379.498 255.078C379.472 255.052 379.446 255.026 379.42 254.974L373.279 249.067C373.227 249.067 373.227 249.067 373.201 249.067Z" fill="#B62F00"/>
<path d="M398.332 237.017C398.332 236.991 398.332 236.991 398.332 237.017C398.28 236.991 398.28 237.017 398.28 237.017L398.072 257.755L398.228 260.643C398.228 260.825 398.306 260.981 398.437 261.086C398.567 261.216 398.723 261.268 398.905 261.268C399.087 261.268 399.243 261.19 399.347 261.06C399.477 260.929 399.529 260.773 399.529 260.591V260.565L398.723 251.016L398.332 237.017Z" fill="#B62F00"/>
<path d="M405.073 242.381L405.411 242.016C405.437 241.99 405.437 241.99 405.411 241.99H405.385L404.968 242.407L404.942 242.433L404.5 242.901L404.474 242.953L402.34 245.581L402.236 245.737L402.184 245.841L402.132 245.919L401.898 246.284L401.846 246.362L401.222 247.429L401.195 247.481L401.169 247.533L400.675 248.469L399.582 251.123L399.192 252.32V252.372L399.14 252.476L398.854 253.491L398.828 253.595L398.307 256.666V256.718L398.203 259.216V259.268L398.229 259.892V259.944V259.996L398.255 260.569C398.255 260.751 398.333 260.907 398.463 261.011C398.593 261.141 398.776 261.193 398.932 261.167C399.114 261.167 399.27 261.089 399.374 260.959C399.478 260.829 399.53 260.647 399.53 260.491L399.322 257.967V257.889V256.848V256.796V256.744L399.348 256.171L399.452 255.053V254.948L399.634 253.673L399.894 252.45L400.207 251.332V251.28L400.233 251.228L400.597 250.057L401.534 247.715L401.56 247.663L402.653 245.607L404.474 243.057L404.526 243.005L404.552 242.953L404.942 242.511L404.968 242.485L405.073 242.381Z" fill="#B62F00"/>
<path d="M403.381 251.487L403.355 251.513L403.173 251.696C402.809 252.06 402.47 252.398 402.21 252.684C401.95 252.997 401.638 253.361 401.3 253.803C401.065 254.116 400.779 254.532 400.493 254.974L400.103 255.651L400.077 255.677L400.051 255.703L399.816 256.145C399.608 256.535 399.426 256.926 399.27 257.316L399.088 257.732L399.062 257.81L399.036 257.862L398.75 258.643L398.281 260.36L398.255 260.465L398.229 260.543L398.203 260.699C398.177 260.881 398.203 261.037 398.281 261.193C398.385 261.349 398.515 261.453 398.698 261.479C398.88 261.505 399.036 261.479 399.192 261.375C399.348 261.271 399.426 261.141 399.452 260.959L399.764 259.033L400.181 257.628C400.285 257.29 400.441 256.9 400.597 256.483L400.779 256.041L400.805 256.015L401.143 255.312C401.326 254.922 401.56 254.532 401.82 254.116L402.601 252.997C402.861 252.658 403.147 252.294 403.459 251.956L403.641 251.748H403.667L405.827 249.614L406.296 249.042C406.4 248.937 406.478 248.807 406.582 248.651L406.66 248.547L406.686 248.521C406.712 248.495 406.712 248.495 406.686 248.495C406.66 248.469 406.66 248.469 406.66 248.495L406.634 248.521L406.556 248.625L406.243 248.963L403.407 251.435L403.381 251.487Z" fill="#B62F00"/>
<path d="M401.849 257.238L401.77 257.264L400.287 258.253L400.235 258.305L400.053 258.461L400.001 258.513L399.871 258.617C399.689 258.773 399.481 258.981 399.246 259.215L398.726 259.762L398.544 260.022L398.518 260.048L398.284 260.36L398.258 260.386L398.102 260.594C397.997 260.751 397.945 260.907 397.971 261.089C397.997 261.271 398.076 261.401 398.232 261.505C398.388 261.609 398.544 261.661 398.726 261.635C398.908 261.609 399.038 261.531 399.142 261.375L399.194 261.323L399.351 261.037L399.377 261.011L399.507 260.829L399.533 260.777L400.001 260.1L400.99 258.955L401.796 258.253L401.901 258.201L401.953 258.148L402.213 257.966L402.265 257.914L402.317 257.888L402.863 257.524H402.889L402.941 257.498L403.045 257.42L404.919 256.509L405.439 256.327C405.648 256.249 405.908 256.197 406.22 256.119L407.183 255.937H407.313L407.625 255.885H407.781L407.911 255.859C407.937 255.859 407.937 255.859 407.937 255.833C407.937 255.807 407.937 255.807 407.911 255.807L406.168 255.885C405.856 255.911 405.569 255.963 405.335 256.015L405.231 256.041L405.179 256.067H405.127L404.893 256.119H404.841L403.15 256.691L403.098 256.717L402.837 256.821L402.785 256.847L402.733 256.873L402.629 256.926L402.551 256.952L402.499 256.978L401.849 257.238Z" fill="#B62F00"/>
<path d="M394.017 246.803L393.939 246.699L393.913 246.621L393.861 246.569L392.768 244.773H392.742C392.742 244.799 392.742 244.799 392.742 244.799L393.783 246.777L395.422 250.55L395.448 250.654L395.5 250.732L396.749 254.687L397.218 256.665L397.244 256.743L397.92 260.88C397.946 261.062 398.024 261.192 398.154 261.296C398.311 261.401 398.467 261.453 398.649 261.427C398.831 261.401 398.961 261.322 399.091 261.192C399.195 261.062 399.247 260.88 399.221 260.698V260.646L399.039 259.761L399.013 259.657V259.605L398.987 259.553L398.493 257.497L397.192 253.438L395.917 250.394L394.017 246.803Z" fill="#B62F00"/>
<path d="M392.016 253.102L393.681 254.845L396.075 257.707L397.948 260.335L398.469 261.142C398.573 261.298 398.703 261.402 398.885 261.428C399.067 261.454 399.223 261.428 399.379 261.35C399.536 261.246 399.64 261.116 399.666 260.934C399.692 260.752 399.666 260.596 399.588 260.439L396.101 256.588L392.094 253.076C392.042 253.05 392.016 253.05 392.016 253.102Z" fill="#B62F00"/>
</g>
</g>
<defs>
<clipPath id="clip0_213_4439">
<rect width="500" height="270" fill="white"/>
</clipPath>
</defs>
</svg>
