<svg width="206" height="206" viewBox="0 0 206 206" fill="none" xmlns="http://www.w3.org/2000/svg">
<circle cx="102.656" cy="103.259" r="102.376" fill="#E84B23"/>
<mask id="mask0_203_2" style="mask-type:luminance" maskUnits="userSpaceOnUse" x="0" y="0" width="206" height="206">
<circle cx="102.656" cy="103.259" r="102.376" fill="white"/>
</mask>
<g mask="url(#mask0_203_2)">
<circle cx="94.0383" cy="92.9626" r="32.7571" fill="#3A3530"/>
<circle cx="86.6707" cy="48.2892" r="34.1333" fill="#3A3530"/>
<path d="M75.1341 99.3302L94.5071 138.746L122.939 127.876L98.7113 89.6983L75.1341 99.3302Z" fill="#FF9763"/>
<mask id="mask1_203_2" style="mask-type:luminance" maskUnits="userSpaceOnUse" x="75" y="89" width="48" height="50">
<path fill-rule="evenodd" clip-rule="evenodd" d="M75.1341 99.3302L94.5071 138.746L122.939 127.876L98.7113 89.6983L75.1341 99.3302Z" fill="white"/>
</mask>
<g mask="url(#mask1_203_2)">
<path d="M105.278 97.942C82.9312 109.028 92.9606 119.229 89.0655 131.632C85.1705 144.035 67.335 104.264 67.335 104.264L72.9727 94.9361L105.278 97.942Z" fill="#E84B23"/>
</g>
<path d="M103.56 98.0616C51.064 145.384 48.3997 60.3609 78.4253 39.9861C125.654 7.93787 103.56 98.0616 103.56 98.0616Z" fill="#FF9763"/>
<path d="M69.083 78.8673C67.4632 78.9924 66.0488 77.7806 65.9237 76.1609L65.5413 71.2076C65.4162 69.5878 66.6279 68.1733 68.2477 68.0483C69.8675 67.9232 71.282 69.1349 71.407 70.7547L71.7894 75.708C71.9145 77.3278 70.7028 78.7422 69.083 78.8673Z" fill="#190000"/>
<path d="M64.8801 58.4386C73.7089 57.3616 75.9643 60.8818 70.4892 61.915C65.014 62.9482 59.1119 59.1423 64.8801 58.4386Z" fill="#190000"/>
<path d="M60.7775 74.352C50.5173 82.1033 55.386 93.1625 62.6655 89.8837L60.7775 74.352Z" fill="#FF9763"/>
<circle cx="89.5922" cy="79.9304" r="9.87916" fill="#E84B23"/>
<path d="M75.1342 86.7155C72.8508 92.3681 67.7777 91.8272 67.7777 91.8272" stroke="#993443" stroke-width="3.07632" stroke-linecap="round" stroke-linejoin="round"/>
<path d="M110.624 69.7509C110.654 69.653 110.689 69.5567 110.729 69.4624L110.557 69.8698C110.64 69.6851 110.743 69.5099 110.865 69.3473L110.598 69.6926C110.748 69.5002 110.92 69.3263 111.111 69.1743L110.765 69.441C110.993 69.2662 111.242 69.1212 111.506 69.0097L111.099 69.1816C111.346 69.0819 111.604 69.0117 111.867 68.9725L111.414 69.0334C111.676 68.9991 111.941 68.9989 112.203 69.0328L111.75 68.9718C111.97 69.0053 112.186 69.0657 112.392 69.1514L111.985 68.9795C112.17 69.0622 112.346 69.1659 112.507 69.2886L112.162 69.0219C112.334 69.159 112.49 69.3156 112.626 69.4886L112.36 69.1433C112.517 69.3522 112.648 69.5797 112.75 69.8207L112.578 69.4133C112.684 69.6765 112.756 69.952 112.794 70.2333L112.733 69.7799C112.764 70.0407 112.763 70.3043 112.732 70.5651L112.793 70.1116C112.759 70.3498 112.698 70.583 112.609 70.8064L112.78 70.3989C112.694 70.6025 112.583 70.7947 112.45 70.9711L112.716 70.6259L112.678 70.6737C112.371 71.0017 112.193 71.4304 112.179 71.8798C112.182 72.3315 112.361 72.7642 112.678 73.0859C112.999 73.4048 113.432 73.5843 113.884 73.5855C114.338 73.5915 114.774 73.4109 115.091 73.0859C115.481 72.6237 115.78 72.0909 115.97 71.5163C116.112 71.0623 116.178 70.5883 116.168 70.1128C116.162 69.1486 115.861 68.2094 115.305 67.4216C114.69 66.5263 113.751 65.9046 112.686 65.687C111.599 65.4935 110.479 65.6725 109.506 66.195C108.462 66.7579 107.682 67.7098 107.335 68.8441C107.094 69.7513 107.623 70.6845 108.526 70.9424C109.432 71.1726 110.358 70.6468 110.624 69.751L110.624 69.7509Z" fill="#190000"/>
<path d="M9.72095 390.5C9.72095 390.5 33.3295 414.846 50.5745 420.933L88.4765 280.944L76.993 147.717L82.3201 155.315L39.9232 300.218L9.72095 390.5Z" fill="#589BF7"/>
<path d="M39.9232 330.464C39.9232 330.464 129.378 387.437 179.591 329.615C179.591 329.615 179.405 172.74 120.569 113.227L76.993 138.746C76.993 138.746 52.2652 178.15 56.54 247.576C58.0936 272.806 39.9232 330.464 39.9232 330.464Z" fill="#589BF7"/>
<mask id="mask2_203_2" style="mask-type:luminance" maskUnits="userSpaceOnUse" x="39" y="113" width="141" height="243">
<path fill-rule="evenodd" clip-rule="evenodd" d="M39.9232 330.464C39.9232 330.464 129.378 387.437 179.591 329.615C179.591 329.615 179.405 172.74 120.569 113.227L76.993 138.746C76.993 138.746 52.2652 178.15 56.54 247.576C58.0936 272.806 39.9232 330.464 39.9232 330.464Z" fill="white"/>
</mask>
<g mask="url(#mask2_203_2)">
<path d="M48.1022 265.869C98.7471 284.116 107.122 296.245 89.2601 215.263C81.3794 179.535 144.395 202.721 144.395 202.721C144.395 202.721 154.186 285.607 188.098 286.886C222.01 288.166 195.625 339.361 195.625 339.361C195.625 339.361 208.652 396.403 132.47 379.396L56.2875 362.389" fill="#2976DF"/>
</g>
<path d="M76.0506 139.785C76.0506 139.785 70.7494 154.67 84.8438 158.301L136.086 128.706L120.569 116.213C120.569 116.213 103.88 111.489 76.0506 139.785Z" fill="#F0F3FC"/>
<path d="M53.4325 313.844L48.1022 304.926L48.3379 303.769L73.8955 178.868C76.6891 165.219 86.1694 154.031 98.6386 149.672C115.23 143.87 133.648 151.334 142.416 167.419L216.297 302.938L211.625 305.825L137.744 170.307C130.246 156.557 114.508 150.178 100.324 155.139C89.6668 158.864 81.564 168.426 79.1767 180.093L53.8548 303.836L57.9924 310.756L53.4325 313.844Z" fill="#FFC562"/>
<path d="M24.768 248.087C24.768 248.087 7.69212 283.164 9.72092 293.984L106.894 359.86C118.201 368.711 133.502 370.514 146.556 364.533C162.737 357.121 171.704 339.561 168.221 322.107L139.676 179.072C138.063 170.993 133.149 163.955 126.119 159.658C119.09 155.361 110.585 154.197 102.66 156.446C87.4215 160.771 78.3103 176.348 82.0113 191.75L107.122 296.245L24.768 248.087Z" fill="#589BF7"/>
<path d="M81.7687 24.1512C74.3051 25.6207 68.8407 30.3617 68.8407 35.9847C68.8407 42.7801 76.8234 48.2889 86.6704 48.2889C86.727 48.2889 86.7792 48.2778 86.8346 48.2778C81.9465 56.8037 80.9774 67.0248 84.1759 76.3174C87.3745 85.61 94.4293 93.0692 103.529 96.7803C96.2506 109.04 97.3643 124.534 106.322 135.627C115.279 146.72 130.19 151.073 143.709 146.54C157.227 142.007 166.501 129.545 166.96 115.295C167.419 101.044 158.967 88.0107 145.769 82.6168C153.24 70.1092 151.933 54.2358 142.518 43.118C133.103 32.0003 117.661 28.0974 104.094 33.4063" fill="#3A3530"/>
<circle cx="68.3675" cy="179.101" r="1.54632" fill="#F0F3FC"/>
<path d="M114.209 184.791L117.09 190.627C117.521 191.5 118.353 192.105 119.316 192.245L125.758 193.181C126.871 193.343 127.797 194.123 128.145 195.193C128.492 196.264 128.202 197.439 127.396 198.224L122.735 202.768C122.038 203.447 121.72 204.426 121.885 205.385L122.985 211.8C123.175 212.91 122.719 214.031 121.809 214.692C120.898 215.354 119.691 215.441 118.695 214.917L112.934 211.888C112.072 211.436 111.043 211.436 110.182 211.888L104.42 214.917C103.424 215.441 102.217 215.354 101.307 214.692C100.396 214.031 99.94 212.91 100.13 211.8L101.231 205.385C101.395 204.426 101.077 203.447 100.38 202.768L95.7192 198.224C94.9132 197.439 94.6232 196.264 94.971 195.193C95.3187 194.123 96.244 193.343 97.3578 193.181L103.799 192.245C104.762 192.105 105.595 191.5 106.025 190.627L108.906 184.791C109.404 183.781 110.432 183.142 111.558 183.142C112.683 183.142 113.711 183.781 114.209 184.791Z" fill="#F0F3FC"/>
<path d="M130.6 76.639L128.68 79.1981C128.557 79.3877 128.488 79.6066 128.478 79.8322C128.427 80.0576 128.437 80.2925 128.508 80.5124C128.63 80.9399 128.91 81.3046 129.292 81.5318C129.69 81.7623 130.163 81.8242 130.606 81.7037L131.014 81.5318C131.267 81.3835 131.478 81.1728 131.626 80.9199L133.546 78.3608C133.669 78.1712 133.739 77.9523 133.748 77.7266C133.799 77.5013 133.789 77.2664 133.718 77.0464C133.596 76.619 133.316 76.2543 132.934 76.027C132.536 75.7966 132.063 75.7347 131.62 75.8551L131.212 76.027C130.959 76.1753 130.749 76.386 130.6 76.639Z" fill="#190000"/>
</g>
</svg>
