<svg width="205" height="205" viewBox="0 0 205 205" fill="none" xmlns="http://www.w3.org/2000/svg">
<circle cx="102.525" cy="102.376" r="102.376" fill="#FFC562"/>
<mask id="mask0_203_3" style="mask-type:luminance" maskUnits="userSpaceOnUse" x="0" y="0" width="205" height="205">
<circle cx="102.525" cy="102.376" r="102.376" fill="white"/>
</mask>
<g mask="url(#mask0_203_3)">
<ellipse cx="111.14" cy="75.8319" rx="46.0134" ry="39.7029" transform="rotate(-20.0153 111.14 75.8319)" fill="#3A3530"/>
<path d="M109.967 171.732L140.214 90.078L99.6088 98.0552C99.6088 98.0552 84.3027 126.379 73.1781 138.139" fill="#FF9763"/>
<path d="M139.357 40.739C138.692 37.8315 137.367 35.1161 135.483 32.8034C125.989 21.2506 104.569 22.1208 87.6411 34.7479C82.027 38.8696 77.3677 44.1535 73.9808 50.2392C65.8689 51.6008 58.2007 54.8839 51.6167 59.8141C32.2287 74.2748 26.9369 98.6851 39.7982 114.336C52.6584 129.987 78.8017 130.951 98.1896 116.49C109.091 108.359 115.535 97.0826 116.801 85.9866C118.961 83.0871 120.729 79.9154 122.06 76.5536C135.517 66.4971 142.037 52.0436 139.357 40.739Z" fill="#3A3530"/>
<path d="M105.459 127.391C136.622 152.032 167.042 126.698 135.421 47.5942C137.966 57.9991 131.665 71.328 118.711 80.6254C116.053 87.2985 110.826 93.955 103.391 99.2806C96.819 103.989 92.3105 104.334 85.379 105.48L88.3362 108.404" fill="#FF9763"/>
<path d="M96.6803 118.919C68.0843 106.146 85.8159 75.4578 108.04 97.4548L96.6803 118.919Z" fill="#FF9763"/>
<path d="M65.9519 147.602L77.9772 129.074L113.217 167.039L111.622 181.886" fill="#F0F3FC"/>
<path d="M294.798 161.863C294.798 161.863 262.211 164.924 260.039 166.673C257.866 168.421 168.61 258.78 168.61 258.78L96.3298 187.867L67.9952 237.502L161.576 306.775C166.684 310.557 173.144 312.024 179.385 310.818C185.626 309.612 191.075 305.844 194.406 300.43L261.777 191.594C261.777 191.594 267.428 190.826 296.756 197.712C299.23 196.533 335.825 177.596 335.825 177.596C335.825 177.596 335.93 169.537 299.881 185.656C299.881 185.656 280.285 178.91 277.026 175.631C273.767 172.351 297.147 173.272 294.798 161.863Z" fill="#FF9763"/>
<path d="M108.403 289.968C141.29 291.759 152.069 241.437 152.069 241.437C152.069 241.437 82.3333 164.705 62.1298 170.608C41.9263 176.51 53.6573 222.418 53.6573 222.418L108.403 289.968Z" fill="#BB393C"/>
<path d="M54.2417 347.051C54.2417 347.051 46.8464 306.04 79.4101 282.661C111.974 259.282 113.217 175.484 113.217 175.484L68.5556 142.387C68.5556 142.387 -0.0795326 183.395 -47.6725 271.066L54.2417 347.051Z" fill="#BB393C"/>
<path d="M297.916 168.263C297.916 168.263 263.657 171.461 261.373 173.288C259.089 175.115 165.251 269.519 165.251 269.519L101.169 207.041L59.4722 247.288L157.856 319.662C163.23 323.615 170.01 325.148 176.562 323.889C183.114 322.631 188.844 318.696 192.371 313.033L263.2 199.325C263.2 199.325 269.142 198.523 299.975 205.717C302.576 204.485 341.049 184.701 341.049 184.701C341.049 184.701 341.159 176.28 303.261 193.121C303.261 193.121 282.658 186.073 279.232 182.647C275.806 179.221 300.385 180.182 297.916 168.263Z" fill="#FF9763"/>
<path d="M44.3981 231.529L101.953 302.103C136.529 303.974 147.861 251.399 147.861 251.399C147.861 251.399 122.249 223.394 96.9154 201.761" fill="#BB393C"/>
<circle cx="104.115" cy="188.86" r="2.56804" fill="#F0F3FC"/>
<path d="M140.592 85.4962C142.268 85.6255 143.521 87.0887 143.392 88.7643L142.996 93.8881C142.867 95.5637 141.404 96.8171 139.728 96.6878C138.053 96.5584 136.799 95.0952 136.929 93.4197L137.324 88.2958C137.453 86.6202 138.917 85.3668 140.592 85.4962Z" fill="#190000"/>
<path d="M144.075 75.5556C134.943 74.4414 132.61 78.0829 138.273 79.1517C143.937 80.2205 150.042 76.2835 144.075 75.5556Z" fill="#190000"/>
<path d="M146.526 91.0922C159.459 99.8756 153.896 111.475 146.366 108.083L146.526 91.0922Z" fill="#FF9763"/>
<circle cx="120.977" cy="97.2544" r="10.2193" fill="#E84B23"/>
<path d="M128.836 105.553C133.541 111.211 139.8 109.746 139.8 109.746" stroke="#993443" stroke-width="3.65863" stroke-linecap="round" stroke-linejoin="round"/>
</g>
</svg>
