<svg width="206" height="205" viewBox="0 0 206 205" fill="none" xmlns="http://www.w3.org/2000/svg">
<circle cx="102.656" cy="102.376" r="102.376" fill="#589BF7"/>
<mask id="mask0_203_4" style="mask-type:luminance" maskUnits="userSpaceOnUse" x="0" y="0" width="206" height="205">
<circle cx="102.656" cy="102.376" r="102.376" fill="white"/>
</mask>
<g mask="url(#mask0_203_4)">
<path d="M31.8284 386.923C84.1374 400.336 186.649 360.49 186.649 360.49C186.649 360.49 179.087 148.553 171.577 142.317C164.204 136.193 24.6109 150.085 -0.824435 177.185C-14.5298 191.787 26.8046 325.203 31.8284 386.923Z" fill="#FFC562"/>
<mask id="mask1_203_4" style="mask-type:luminance" maskUnits="userSpaceOnUse" x="-4" y="140" width="191" height="250">
<path fill-rule="evenodd" clip-rule="evenodd" d="M31.8284 386.923C84.1374 400.336 186.649 360.49 186.649 360.49C186.649 360.49 179.087 148.553 171.577 142.317C164.204 136.193 24.6109 150.085 -0.824435 177.185C-14.5298 191.787 26.8046 325.203 31.8284 386.923Z" fill="white"/>
</mask>
<g mask="url(#mask1_203_4)">
<path d="M166.512 203.875C177.951 301.645 97.8075 302.465 97.8075 302.465C97.8075 302.465 126.533 331.127 131.571 331.394C136.609 331.662 213.4 276.653 213.4 276.653L186.649 216.909L166.512 203.875Z" fill="#D89D35"/>
<path d="M13.1688 234.676C50.5952 202.184 36.7095 337.964 97.8074 302.465C158.905 266.966 190.392 334.533 190.392 334.533C190.392 334.533 74.6161 387.887 127.143 380.228C179.67 372.57 -17.0169 429.266 -17.0169 429.266L1.10941 222.802" fill="#D89D35"/>
</g>
<path d="M164.982 204.141L177.319 275.087L79.715 313.841C71.8206 342.189 85.8153 366.949 85.8153 366.949C85.8153 366.949 214.638 333.218 223.25 326.759C231.862 320.3 200.739 141.278 167.802 141.278" fill="#FFC562"/>
<path d="M136.623 37.9562C132.337 34.5352 126.861 32.5773 121.174 32.0568L72.0901 27.5633C51.2876 25.6589 34.8952 43.2995 40.5462 61.5081L59.1693 121.512C59.1693 121.512 90.3344 135.417 131.795 94.3201C161.164 65.2096 147.242 46.4329 136.623 37.9562Z" fill="#4B4D5C"/>
<path d="M117.094 147.554L113.617 87.1818L71.0312 97.5653L67.1782 146.606L100.602 169.531" fill="#FF9763"/>
<path d="M93.0979 116.401C107.826 121.077 128.067 124.891 132.877 118.95C145.887 102.883 138.941 55.957 122.728 45.6397C125.614 76.7738 93.9917 86.5337 77.3566 89.4998L77.4299 96.977" fill="#FF9763"/>
<path d="M90.2812 88.2741C67.9665 63.5328 49.8908 94.5626 80.3556 101.71L90.2812 88.2741Z" fill="#FF9763"/>
<path d="M127.339 75.6121C129.068 75.3837 130.654 76.5999 130.883 78.3285L131.581 83.6147C131.809 85.3434 130.593 86.9298 128.865 87.1582C128.034 87.2679 127.195 87.0433 126.53 86.5339C125.866 86.0244 125.431 85.2719 125.321 84.4418L124.623 79.1556C124.394 77.427 125.611 75.8405 127.339 75.6122L127.339 75.6121Z" fill="#190000"/>
<path d="M128.741 64.7729C119.231 65.6025 117.645 69.7998 123.623 69.6689C129.602 69.538 134.954 64.2308 128.741 64.7729Z" fill="#190000"/>
<path d="M136.583 80.5719C149.078 86.4329 146.422 99.1268 138.05 97.3004L136.583 80.5719Z" fill="#FF9763"/>
<ellipse opacity="0.27" cx="108.848" cy="89.8225" rx="8.244" ry="7.65305" fill="#E84B23"/>
<path d="M117.095 95.4727C121.8 101.131 128.059 99.6657 128.059 99.6657" stroke="#993443" stroke-width="3.65863" stroke-linecap="round" stroke-linejoin="round"/>
<path d="M82.0706 88.0442C80.9227 85.9606 78.304 85.0203 76.0485 85.596C74.8336 85.92 73.7875 86.6941 73.1225 87.7613C72.9483 88.0607 72.8011 88.3749 72.6824 88.7004C72.6064 88.8817 72.546 89.0693 72.5018 89.2609C72.3689 89.7989 72.3204 90.3543 72.3579 90.9072C72.4856 92.2506 72.9697 93.6196 74.0459 94.5052C74.467 94.9025 75.0194 95.1313 75.5981 95.1481C76.1795 95.144 76.7363 94.9133 77.1503 94.5052C77.5607 94.0927 77.7918 93.5349 77.7933 92.953C77.7989 92.3697 77.5667 91.8092 77.1503 91.4007C76.9981 91.2755 76.8591 91.135 76.7355 90.9814L77.0788 91.4257C76.9236 91.2241 76.7938 91.0041 76.6925 90.7707L76.9138 91.2951C76.8007 91.0216 76.7232 90.7348 76.6832 90.4417L76.7616 91.0252C76.7255 90.73 76.7257 90.4314 76.7621 90.1362L76.6838 90.7198C76.7241 90.4269 76.8022 90.1404 76.916 89.8675L76.6947 90.3919C76.789 90.1768 76.9075 89.9732 77.0478 89.7848L76.7045 90.2291C76.8495 90.0428 77.0172 89.8754 77.2038 89.7309L76.7595 90.0741C76.9296 89.9486 77.1129 89.842 77.3061 89.7562L76.7818 89.9774C77.0292 89.8737 77.2889 89.8017 77.5545 89.7634L76.9709 89.8418C77.2779 89.8026 77.5886 89.8039 77.8952 89.8458L77.3117 89.7674C77.5993 89.8106 77.8806 89.8883 78.1496 89.9987L77.6252 89.7774C77.8729 89.8834 78.107 90.0186 78.3225 90.1803L77.8782 89.8371C78.0746 89.99 78.2512 90.1668 78.404 90.3634L78.0607 89.9191C78.1413 90.0277 78.2145 90.1417 78.2797 90.2602C78.6743 90.94 79.4021 91.357 80.1881 91.3535C80.9741 91.3501 81.6983 90.9268 82.0869 90.2436C82.4756 89.5605 82.4694 88.7216 82.0707 88.0443L82.0706 88.0442Z" fill="#373947"/>
<path d="M98.7548 44.2744C98.8758 44.7451 98.9711 45.2192 99.0495 45.6987C99.1165 46.1084 99.0128 45.3368 99.039 45.6197C99.0501 45.7404 99.0656 45.8607 99.0765 45.9814C99.0984 46.2229 99.1141 46.4648 99.1237 46.7072C99.142 47.1677 99.1383 47.6283 99.1126 48.0891C99.0992 48.3313 99.0799 48.5731 99.0545 48.8145C99.0497 48.8628 99.0444 48.911 99.0386 48.9592C99.0184 49.1299 99.0293 49.0557 99.0712 48.7366C99.0193 48.7904 99.0278 49.0254 99.0161 49.0964C98.8619 50.0305 98.6178 50.9475 98.2872 51.8347C98.2449 51.9483 98.1976 52.0601 98.1556 52.1737C98.0557 52.4439 98.3832 51.6718 98.1786 52.1183C98.0776 52.3388 97.9762 52.5587 97.8663 52.7751C97.6467 53.208 97.403 53.6272 97.1413 54.0361C96.5401 55.0844 96.8906 56.4212 97.9289 57.0396C98.9793 57.6244 100.304 57.2771 100.932 56.252C103.392 52.338 104.135 47.5854 102.989 43.1073C102.663 41.9426 101.456 41.2607 100.29 41.5821C99.1245 41.9036 98.438 43.1073 98.755 44.2744L98.7548 44.2744Z" fill="#373947"/>
<path d="M53.8765 64.1703L53.4187 66.4595C53.3276 66.7425 53.3141 67.0448 53.3795 67.3348C53.3922 67.6252 53.4821 67.9069 53.64 68.151C53.9474 68.6289 54.4111 68.9854 54.9519 69.1598L55.5355 69.2382C56.5233 69.2386 57.3897 68.5789 57.6522 67.6266L58.1101 65.3374C58.2012 65.0544 58.2147 64.7521 58.1493 64.4621C58.1366 64.1717 58.0467 63.89 57.8888 63.6459C57.5814 63.168 57.1177 62.8115 56.5769 62.6371L55.9933 62.5587C55.0054 62.5583 54.139 63.218 53.8765 64.1703Z" fill="#373947"/>
<path d="M102.46 178.155C100.392 174.584 105.205 168.62 105.205 168.62L65.2244 138.481C65.2244 138.481 51.2124 148.457 50.5954 154.034C50.5952 154.034 104.026 180.86 102.46 178.155Z" fill="#F0F3FC"/>
<path d="M110.881 176.024C110.881 176.024 109.153 169.36 105.204 168.62L116.863 136.402C121.887 133.815 122.577 144.267 122.577 144.267L110.881 176.024Z" fill="#F0F3FC"/>
<path d="M140.228 196.435H140.213C140.213 194.988 135.757 193.816 130.262 193.816C124.766 193.816 120.311 194.988 120.311 196.435H120.295L119.18 250.243C119.141 252.129 120.005 253.921 121.506 255.066C122.514 256.194 126.046 257.028 130.262 257.028C134.477 257.028 138.009 256.194 139.018 255.066C140.518 253.921 141.382 252.129 141.343 250.243L140.228 196.435Z" fill="#F0F3FC"/>
<ellipse cx="130.262" cy="196.435" rx="9.95088" ry="2.61877" fill="#F0F3FC"/>
<path d="M21.3259 241.395L34.754 319.345L88.6859 297.813C101.724 307.861 102.681 344.701 102.681 344.701C102.681 344.701 34.6114 412.585 11.0708 385.371C-30.3152 337.526 -21.9393 189.217 0.346298 176.024" fill="#FFC562"/>
<circle cx="107.504" cy="196.545" r="2.7286" fill="#FFC562"/>
</g>
</svg>
