<svg width="193" height="193" viewBox="0 0 193 193" fill="none" xmlns="http://www.w3.org/2000/svg">
<circle cx="96.0801" cy="96.0801" r="96.0801" fill="#FFC562"/>
<mask id="mask0_203_5" style="mask-type:luminance" maskUnits="userSpaceOnUse" x="0" y="0" width="193" height="193">
<circle cx="96.0801" cy="96.0801" r="96.0801" fill="white"/>
</mask>
<g mask="url(#mask0_203_5)">
<path d="M-84.9442 302.702C-91.2088 309.559 -58.5492 353.664 -58.5492 353.664C-58.5492 353.664 7.41659 322.418 32.935 294.398C58.4535 266.378 77.2859 162.227 77.2859 162.227C77.2859 162.227 58.8133 154.918 53.2982 155.342C25.6257 157.466 -7.2858 254.803 -7.2858 254.803L-84.9442 302.702Z" fill="#F08059"/>
<mask id="mask1_203_5" style="mask-type:luminance" maskUnits="userSpaceOnUse" x="-86" y="155" width="164" height="199">
<path fill-rule="evenodd" clip-rule="evenodd" d="M-84.9441 302.702C-91.2087 309.559 -58.5491 353.664 -58.5491 353.664C-58.5491 353.664 7.41665 322.418 32.9351 294.398C58.4536 266.378 77.286 162.227 77.286 162.227C77.286 162.227 58.8133 154.918 53.2982 155.342C25.6258 157.466 -7.28574 254.803 -7.28574 254.803L-84.9441 302.702Z" fill="white"/>
</mask>
<g mask="url(#mask1_203_5)">
<path d="M48.5972 178.592C0.661343 200.424 60.4625 201.611 17.7474 272.091C-24.9677 342.571 96.9053 301.517 96.9053 301.517L63.073 304.602V282.532" fill="#D35D3D"/>
</g>
<path d="M38.2557 175.227C32.4986 187.108 28.8972 202.683 38.1557 216.791C56.3202 244.47 9.57648 298.92 9.57648 298.92C45.2747 302.468 129.332 291.28 129.332 291.28C110.517 235.921 154.627 159.11 151.486 157.596C115.589 140.296 51.3262 155.788 51.3262 155.788" fill="#F08059"/>
<mask id="mask2_203_5" style="mask-type:luminance" maskUnits="userSpaceOnUse" x="9" y="149" width="143" height="151">
<path fill-rule="evenodd" clip-rule="evenodd" d="M38.2557 175.227C32.4986 187.108 28.8972 202.683 38.1557 216.791C56.3202 244.47 9.57648 298.92 9.57648 298.92C45.2747 302.468 129.332 291.28 129.332 291.28C110.517 235.921 154.627 159.11 151.486 157.596C115.589 140.296 51.3262 155.788 51.3262 155.788" fill="white"/>
</mask>
<g mask="url(#mask2_203_5)">
<path d="M56.0548 229.996C46.7936 184.243 86.6852 181.592 61.6114 228.42Z" fill="#FFC562"/>
<path d="M58.163 229.091C84.0931 177.287 103.994 208.863 61.73 232.332Z" fill="#FFC562"/>
<path d="M54.6293 232.211C15.6018 219.31 52.1164 183.985 58.9205 226.741Z" fill="#FFC562"/>
</g>
<path d="M150.494 157.131C160.729 160.891 204.018 197.916 204.018 197.916L252.443 141.305C282.748 159.24 277.598 189.034 277.598 189.034C277.598 189.034 224.678 275.413 204.389 277.549C177.809 280.347 120.565 212.194 109.37 198.521" fill="#F08059"/>
<mask id="mask3_203_5" style="mask-type:luminance" maskUnits="userSpaceOnUse" x="109" y="141" width="169" height="137">
<path fill-rule="evenodd" clip-rule="evenodd" d="M150.494 157.131C160.729 160.891 204.018 197.916 204.018 197.916L252.443 141.305C282.748 159.24 277.598 189.034 277.598 189.034C277.598 189.034 224.678 275.413 204.389 277.549C177.809 280.347 120.565 212.194 109.37 198.521" fill="white"/>
</mask>
<g mask="url(#mask3_203_5)">
<path d="M230.926 149.409C263.034 152.335 274.23 219.419 274.23 219.419L259.562 232.774C259.562 232.774 257.62 172.442 218.792 162.972C179.965 153.502 221.219 152.335 221.219 152.335" fill="#FFC562"/>
</g>
<path d="M79.3137 156.352L84.0503 107.706L114.065 106.735C108.751 116.982 113.824 141.369 116.972 152.188" fill="#FF9763"/>
<ellipse cx="28.2542" cy="23.0029" rx="68.1152" ry="56.4059" transform="rotate(-20.0425 28.2542 23.0029)" fill="#516DDB"/>
<mask id="mask4_203_5" style="mask-type:luminance" maskUnits="userSpaceOnUse" x="-39" y="-35" width="135" height="116">
<ellipse cx="28.2543" cy="23.0029" rx="68.1152" ry="56.4059" transform="rotate(-20.0425 28.2543 23.0029)" fill="white"/>
</mask>
<g mask="url(#mask4_203_5)">
<path d="M-37.907 5.1699C-29.4133 87.0708 56.663 73.9526 56.663 73.9526L-6.09977 109.013L-76.1274 23.0024" fill="#3152BA"/>
</g>
<ellipse cx="94.2795" cy="83.3942" rx="41.6265" ry="34.2652" transform="rotate(-20.0423 94.2795 83.3942)" fill="#516DDB"/>
<path d="M113.224 60.011C163.407 112.773 120.289 141.661 95.4664 121.252L82.8177 92.6353L113.224 60.011Z" fill="#FF9763"/>
<mask id="mask5_203_5" style="mask-type:luminance" maskUnits="userSpaceOnUse" x="82" y="60" width="55" height="68">
<path fill-rule="evenodd" clip-rule="evenodd" d="M113.224 60.011C163.407 112.773 120.289 141.661 95.4665 121.252L82.8179 92.6353L113.224 60.011Z" fill="white"/>
</mask>
<g mask="url(#mask5_203_5)">
<ellipse opacity="0.27" cx="142.048" cy="108.677" rx="6.61782" ry="8.92719" transform="rotate(-58.8976 142.048 108.677)" fill="#E84B23"/>
<ellipse opacity="0.27" cx="102.699" cy="100.483" rx="6.61782" ry="8.92719" transform="rotate(-58.8976 102.699 100.483)" fill="#E84B23"/>
<path d="M131.351 95.786C130.07 95.6116 129.173 94.4315 129.347 93.1501L129.88 89.2319C130.055 87.9506 131.235 87.0532 132.516 87.2276C133.798 87.402 134.695 88.5821 134.52 89.8634L133.987 93.7816C133.903 94.397 133.579 94.9538 133.084 95.3297C132.59 95.7056 131.967 95.8697 131.351 95.786Z" fill="#190000"/>
<path d="M116.575 93.1033C115.294 92.9288 114.397 91.7488 114.571 90.4675L115.104 86.5492C115.279 85.2679 116.459 84.3706 117.74 84.545C119.022 84.7194 119.919 85.8995 119.745 87.1808L119.211 91.0991C119.037 92.3804 117.857 93.2777 116.575 93.1033L116.575 93.1033Z" fill="#190000"/>
<path d="M133.839 81.8386C138.386 83.864 136.731 86.2673 133.806 85.1865C130.881 84.1057 130.869 80.5154 133.839 81.8386Z" fill="#190000"/>
<path d="M118.65 78.9132C113.727 79.6497 114.348 82.161 117.455 81.9013C120.563 81.6416 121.866 78.432 118.65 78.9132Z" fill="#190000"/>
<path d="M120.291 95.1623C120.043 96.9846 121.834 96.4925 123.923 96.7767C126.011 97.061 127.605 98.0138 127.853 96.1915C128.101 94.3692 126.609 92.6615 124.521 92.3774C122.433 92.0934 120.54 93.3399 120.291 95.1623Z" fill="#E84B23"/>
<path d="M130.986 106.427C124.198 121.978 110.444 111.645 112.501 101.482C112.617 100.958 113.047 100.561 113.579 100.49C115.828 100.162 122.216 99.8524 130.457 104.798C131.014 105.133 131.239 105.828 130.986 106.427Z" fill="#C1525F"/>
<mask id="mask6_203_5" style="mask-type:luminance" maskUnits="userSpaceOnUse" x="112" y="100" width="20" height="15">
<path fill-rule="evenodd" clip-rule="evenodd" d="M130.986 106.427C124.198 121.978 110.444 111.645 112.501 101.482C112.617 100.958 113.047 100.561 113.579 100.49C115.828 100.162 122.216 99.8524 130.457 104.798C131.014 105.133 131.239 105.828 130.986 106.427Z" fill="white"/>
</mask>
<g mask="url(#mask6_203_5)">
<ellipse cx="117.288" cy="112.702" rx="7.59228" ry="8.50639" transform="rotate(-57.8219 117.288 112.702)" fill="#993443"/>
<path d="M128.739 103.148C128.464 104.217 127.99 105.644 127.644 105.837C125.51 107.027 117.359 104.184 116.457 102.963C116.205 102.624 117.04 99.1648 117.04 99.1648L127.619 102.245" fill="#F0F3FC"/>
</g>
</g>
<path d="M88.1158 106.271L73.6926 91.029L97.0862 56.276L109.63 55.5191C109.63 55.5191 113.914 52.4731 115.507 55.5191" fill="#516DDB"/>
<path d="M115.507 55.519C121.026 66.0701 122.848 88.4077 88.1158 106.271L115.507 55.519Z" fill="#516DDB"/>
<path d="M99.1024 101.893C65.1165 94.3773 74.237 121.725 97.1544 121.991Z" fill="#FF9763"/>
<circle cx="86.3736" cy="121.991" r="6.72042" fill="#BB393C"/>
<path d="M28.2541 41.2004C23.5918 43.6903 18.3737 44.956 13.0887 44.8789" stroke="#3152BA" stroke-width="4.30937" stroke-linecap="round" stroke-linejoin="round"/>
<path d="M86.6207 108.608V109.013C86.6489 110.072 87.5009 110.924 88.56 110.952L89.0755 110.883C89.3991 110.793 89.694 110.622 89.9312 110.384L90.2344 109.991C90.4083 109.695 90.4997 109.357 90.4992 109.013V108.608C90.471 107.549 89.6191 106.697 88.56 106.669L88.0444 106.738C87.7208 106.828 87.4259 106.999 87.1887 107.237L86.8855 107.629C86.7116 107.926 86.6202 108.264 86.6207 108.608H86.6207Z" fill="#373947"/>
</g>
</svg>
