<svg width="7" height="110" viewBox="0 0 7 110" fill="none" xmlns="http://www.w3.org/2000/svg">
<rect x="0.154785" y="68.8828" width="6.02725" height="6.02725" rx="1" fill="#D9D9D9"/>
<rect x="0.154785" y="51.6621" width="6.02725" height="6.02725" rx="1" fill="#D9D9D9"/>
<rect x="0.154785" y="34.4414" width="6.02725" height="6.02725" rx="1" fill="#D9D9D9"/>
<rect x="0.154785" y="17.2207" width="6.02725" height="6.02725" rx="1" fill="#D9D9D9"/>
<rect x="0.154785" y="43.0518" width="6.02725" height="6.02725" rx="1" fill="#D9D9D9"/>
<rect x="0.154785" y="25.8311" width="6.02725" height="6.02725" rx="1" fill="#D9D9D9"/>
<rect x="0.154785" y="8.61035" width="6.02725" height="6.02725" rx="1" fill="#D9D9D9"/>
<rect x="0.154785" width="6.02725" height="6.02725" rx="1" fill="#D9D9D9"/>
<rect x="0.154785" y="77.4932" width="6.02725" height="6.02725" rx="1" fill="#D9D9D9"/>
<rect x="0.154785" y="86" width="6.02725" height="6.02725" rx="1" fill="#D9D9D9"/>
<rect x="0.154785" y="94.5068" width="6.02725" height="6.02725" rx="1" fill="#D9D9D9"/>
<rect x="0.154785" y="103.014" width="6.02725" height="6.02725" rx="1" fill="#D9D9D9"/>
<rect x="0.154785" y="60.2725" width="6.02725" height="6.02725" rx="1" fill="#D9D9D9"/>
</svg>
