<svg width="850" height="491" viewBox="0 0 850 491" fill="none" xmlns="http://www.w3.org/2000/svg">
<path d="M12.4274 299.413C7.04716 296.307 5.60972 291.589 8.83119 287.609V287.609C9.15425 287.21 9.94694 287.016 10.6684 287.16L12.3683 287.498C13.63 287.749 15.0292 287.562 15.9728 287.018L499.289 7.99913C503.116 5.79013 509.32 5.79012 513.146 7.99912L827.632 189.552C828.47 190.036 829.453 190.428 830.533 190.709L839.812 193.124C840.513 193.307 841.074 193.631 841.391 194.035V194.035C844.367 197.835 842.955 202.301 837.848 205.25L350.511 486.589C346.685 488.798 340.481 488.798 336.655 486.589L12.4274 299.413Z" fill="#B8B8B8"/>
<path d="M31.7487 310.567L31.7489 306.408L32.5917 306.542C35.5642 307.014 38.7464 306.528 40.9262 305.269L276.709 169.152C280.057 167.219 285.486 167.219 288.834 169.152L585.321 340.314C587.076 341.327 589.504 341.851 591.98 341.751L594.606 341.645V345.674L349.645 487.089C346.297 489.022 340.869 489.022 337.52 487.089L31.7487 310.567Z" fill="#FF8832"/>
<rect width="580.516" height="392.726" rx="8" transform="matrix(0.866044 -0.499967 0.866044 0.499967 3.46387 290.239)" fill="#E3E3E3"/>
<mask id="mask0_48_1027" style="mask-type:alpha" maskUnits="userSpaceOnUse" x="7" y="2" width="836" height="483">
<rect width="580.516" height="392.726" rx="8" transform="matrix(0.866044 -0.499967 0.866044 0.499967 3.46387 290.239)" fill="#E3E3E3"/>
</mask>
<g mask="url(#mask0_48_1027)">
<rect width="289.85" height="360.067" transform="matrix(0.866044 -0.499967 0.866044 0.499967 31.748 306.567)" fill="#FF964A"/>
</g>
<circle cx="3.26592" cy="3.26592" r="3.26592" transform="matrix(0.866044 -0.499967 0.866044 0.499967 31.041 289.015)" fill="#E30E0E"/>
<circle cx="3.26592" cy="3.26592" r="3.26592" transform="matrix(0.866044 -0.499967 0.866044 0.499967 43.062 282.075)" fill="#FFE601"/>
<circle cx="3.26592" cy="3.26592" r="3.26592" transform="matrix(0.866044 -0.499967 0.866044 0.499967 55.0825 275.135)" fill="#21D404"/>
</svg>
