<svg width="175" height="156" viewBox="0 0 175 156" fill="none" xmlns="http://www.w3.org/2000/svg">
<path fill-rule="evenodd" clip-rule="evenodd" d="M26.9714 57.3459C41.8672 57.3459 53.9427 48.3059 53.9427 37.1544C53.9427 26.0029 41.8672 16.9629 26.9714 16.9629C12.0755 16.9629 0 26.0029 0 37.1544C0 48.3059 12.0755 57.3459 26.9714 57.3459Z" fill="#E54B17"/>
<path fill-rule="evenodd" clip-rule="evenodd" d="M26.3682 22.9556V51.7203L36.8368 49.012L39.552 22.9556H26.3682Z" fill="#FB7830"/>
<path d="M35.9565 27.7498H17.9785L18.7186 35.9585H33.2297L32.5333 43.5972L25.7984 45.7277L19.4428 44.0613L19.0688 40.9582" stroke="white" stroke-width="2.99633"/>
<g filter="url(#filter0_d_63_868)">
<path d="M51.5372 87.5975C67.4236 87.5975 80.302 77.9563 80.302 66.0634C80.302 54.1704 67.4236 44.5293 51.5372 44.5293C35.6509 44.5293 22.7725 54.1704 22.7725 66.0634C22.7725 77.9563 35.6509 87.5975 51.5372 87.5975Z" fill="black"/>
</g>
<path d="M51.5372 87.5975C67.4236 87.5975 80.302 77.9563 80.302 66.0634C80.302 54.1704 67.4236 44.5293 51.5372 44.5293C35.6509 44.5293 22.7725 54.1704 22.7725 66.0634C22.7725 77.9563 35.6509 87.5975 51.5372 87.5975Z" fill="#0870B8"/>
<path fill-rule="evenodd" clip-rule="evenodd" d="M48.2383 53.3818L56.4358 81.9701L65.9824 76.3196L61.2329 49.6557L48.2383 53.3818Z" fill="#29A8DE"/>
<path d="M40.6328 61.188L57.5259 56.344L61.2374 70.4301L54.2069 75.5777L46.7823 75.2894L46.1316 73.02" stroke="white" stroke-width="2.99633"/>
<path d="M58.2762 63.8638L42.6826 68.3352" stroke="white" stroke-width="2.99633"/>
<path fill-rule="evenodd" clip-rule="evenodd" d="M96.4819 41.9486C111.955 41.9486 124.499 32.5581 124.499 20.9743C124.499 9.39052 111.955 0 96.4819 0C81.0085 0 68.4648 9.39052 68.4648 20.9743C68.4648 32.5581 81.0085 41.9486 96.4819 41.9486Z" fill="#0086C0"/>
<path fill-rule="evenodd" clip-rule="evenodd" d="M96.3334 150C111.807 150 124.35 140.609 124.35 129.026C124.35 117.442 111.807 108.051 96.3334 108.051C80.8601 108.051 68.3164 117.442 68.3164 129.026C68.3164 140.609 80.8601 150 96.3334 150Z" fill="#7651A9"/>
<g filter="url(#filter1_d_63_868)">
<path d="M42.6967 148.801C58.1701 148.801 70.7137 139.411 70.7137 127.827C70.7137 116.243 58.1701 106.853 42.6967 106.853C27.2233 106.853 14.6797 116.243 14.6797 127.827C14.6797 139.411 27.2233 148.801 42.6967 148.801Z" fill="black"/>
</g>
<path d="M42.6967 148.801C58.1701 148.801 70.7137 139.411 70.7137 127.827C70.7137 116.243 58.1701 106.853 42.6967 106.853C27.2233 106.853 14.6797 116.243 14.6797 127.827C14.6797 139.411 27.2233 148.801 42.6967 148.801Z" fill="#CF649A"/>
<path d="M52.4652 133.691C52.3345 132.964 52.1733 132.308 52.269 131.91C52.3823 131.449 52.409 131.149 52.713 130.67C53.0171 130.191 53.7153 129.624 53.7408 129.565C53.7558 129.507 53.7902 129.211 52.9937 128.865C52.1973 128.52 51.4533 128.353 51.3071 128.482C51.1608 128.611 50.8479 128.917 50.5843 129.257C50.2055 129.761 47.8999 131.138 46.6246 131.834C46.5261 131.312 46.446 130.853 46.5215 130.546C46.6349 130.085 46.6614 129.785 46.9656 129.306C47.2697 128.826 47.9679 128.26 47.9934 128.2C48.0085 128.143 48.0429 127.846 47.2464 127.501C46.4498 127.156 45.706 126.989 45.5598 127.117C45.4135 127.246 45.1653 127.594 44.837 127.893C44.5162 128.195 41.1624 130.704 40.2892 131.359C39.845 131.694 39.47 131.952 39.2052 132.122C38.938 132.299 38.8121 132.38 38.8121 132.38C38.6373 132.49 38.4599 132.584 38.4056 132.561C38.3668 132.544 38.4596 132.11 38.8255 131.615C39.6036 130.58 41.0675 129.072 41.0878 129.003C41.1005 128.973 41.3671 128.711 40.8539 128.303C40.3563 127.901 40.0402 128.085 39.9936 128.065C39.947 128.045 39.8675 128.125 39.8675 128.125C39.8675 128.125 41.3583 126.36 39.5274 125.583C38.3792 125.095 36.387 125.388 35.2295 125.937C34.644 125.936 33.4007 125.931 32.0826 125.931C31.5796 125.929 31.056 125.933 30.5633 125.929L30.5086 125.821C29.0657 123.051 25.5112 120.015 26.7249 117.63C27.166 116.764 28.5691 114.58 37.1967 114.875C44.2632 115.116 48.8553 117.822 49.0954 119.607C49.4329 122.156 44.0238 124.329 37.4774 122.194C34.9835 121.383 34.0241 120.127 33.8206 119.723C33.6065 119.299 33.5651 119.268 33.4181 119.269C33.1807 119.267 33.198 119.572 33.212 119.754C33.2379 120.211 33.7288 121.211 34.9052 122.107C35.9364 122.891 38.6917 124.252 42.5376 124.682C46.8482 125.161 51.1832 123.252 51.4335 120.225C51.6887 117.144 46.2622 113.793 40.1388 112.969C36.4911 112.482 32.3582 112.383 29.0326 113.142C25.0811 114.04 23.7911 115.741 23.657 116.618C23.1649 119.74 27.4188 123.717 28.8584 125.934C28.7398 125.933 28.6289 125.935 28.5282 125.935C27.3569 125.891 22.8578 125.813 21.1989 127.046C19.3242 128.443 20.0136 130.313 20.7752 130.849C23.1297 132.506 26.2078 132.631 28.3426 131.592C30.4695 130.55 31.2071 128.338 30.9623 127.082L31.8982 127.012C32.5095 126.996 33.1053 126.994 33.6263 126.996C33.1568 127.412 32.7163 127.953 32.2417 128.813C31.6854 129.822 31.6639 131.425 32.172 132.277C32.3986 132.649 32.784 132.82 33.0245 132.922C33.8778 133.284 34.4973 132.903 35.2012 132.431C36.0671 131.858 36.9243 131.133 36.9243 131.133C36.9243 131.133 35.2817 133.385 36.872 134.06C37.4539 134.307 38.2825 133.973 38.6735 133.785C38.7912 133.727 38.8384 133.703 38.8843 133.677C39.2544 133.452 40.0769 132.959 41.3538 132.108C43.0007 131.01 44.7717 129.513 44.7717 129.513C44.7717 129.513 44.6664 130.02 44.6278 130.909C44.605 131.437 44.7663 132.092 44.8473 132.7C44.5077 132.852 44.307 132.937 44.307 132.937C44.0447 133.059 43.7486 133.174 43.445 133.286C42.3434 133.681 41.0433 134.112 40.8174 134.299C40.5504 134.518 40.4924 134.741 40.7082 135.031C40.8668 135.24 41.229 135.422 41.6349 135.566C42.3639 135.833 42.9189 135.906 43.2028 135.927C43.6364 135.984 44.1473 136.01 44.6758 135.951C45.6398 135.837 46.3801 135.409 46.6897 134.55C46.8623 134.078 46.8617 133.541 46.8044 133.007C46.9073 132.959 47.0103 132.91 47.1156 132.856C48.929 131.992 50.5216 130.872 50.5216 130.872C50.5216 130.872 50.4163 131.379 50.3777 132.268C50.3597 132.72 50.4739 133.27 50.5596 133.802C49.1036 134.04 48.026 134.572 47.5437 135.018C46.6535 135.843 46.8145 136.456 47.4437 136.85C47.7258 137.027 48.2061 137.103 48.5776 137.134C49.0243 137.203 49.5869 137.237 50.1463 137.17C51.1103 137.056 52.1171 136.755 52.4319 135.905C52.5714 135.512 52.5998 135.078 52.574 134.643C53.6838 134.746 55.0246 135.103 56.5669 135.935C59.8869 137.712 59.8624 139.667 59.4355 140.307C59.0085 140.946 58.1243 141.023 57.8328 141.041C57.544 141.053 57.4486 141.062 57.4363 141.156C57.4138 141.295 57.525 141.335 57.7446 141.4C58.047 141.485 59.8017 141.601 60.4081 140.345C61.2009 138.736 59.9392 136.079 56.3397 134.572C54.9484 133.988 53.6366 133.736 52.4652 133.691ZM22.9097 129.767C22.3126 129.125 23.2025 127.826 25.0417 127.398C26.1597 127.137 27.5133 127.032 28.3926 126.988C28.5886 126.979 28.8852 126.971 29.2385 126.958C29.2952 126.954 29.3313 126.955 29.3313 126.955C29.3958 126.954 29.4706 126.951 29.5454 126.947C29.4445 128.63 28.4036 129.702 26.7712 130.204C25.2212 130.685 23.4601 130.369 22.9097 129.767ZM36.9705 129.363C36.2569 129.944 34.6024 131.512 34.144 131.191C33.7476 130.916 34.1021 129.348 35.3254 128.17C35.9436 127.576 36.9693 126.993 37.4996 126.822C38.3571 126.55 39.116 126.66 39.1926 126.954C39.2722 127.327 37.4172 129.001 36.9705 129.363ZM42.7732 134.825C42.5745 134.819 42.399 134.801 42.3445 134.735C42.3003 134.688 42.4625 134.651 42.4625 134.651C42.4625 134.651 43.6264 134.303 44.1076 134.119C44.383 134.009 44.7098 133.886 45.065 133.74L45.0344 133.812C44.6682 134.675 43.3534 134.796 42.7732 134.825ZM48.4764 136.143C48.3828 136.018 48.4925 135.803 49.2065 135.285C49.4865 135.079 50.0547 134.776 50.8843 134.611C50.8855 134.824 50.8584 135.018 50.7819 135.176C50.3163 136.252 49.1528 136.232 48.4764 136.143Z" fill="white"/>
<path fill-rule="evenodd" clip-rule="evenodd" d="M149.419 125.963C163.099 125.963 174.19 117.661 174.19 107.419C174.19 97.1773 163.099 88.8748 149.419 88.8748C135.738 88.8748 124.647 97.1773 124.647 107.419C124.647 117.661 135.738 125.963 149.419 125.963Z" fill="#E4D032"/>
<path fill-rule="evenodd" clip-rule="evenodd" d="M148.316 107.04H152.003V116.404C152.003 117.273 151.776 118.048 151.323 118.729C150.87 119.41 150.238 119.938 149.427 120.313C148.616 120.688 147.712 120.876 146.715 120.876C145.043 120.876 143.744 120.501 142.817 119.751C141.89 119.001 141.427 117.939 141.427 116.564H145.135C145.135 117.189 145.256 117.642 145.498 117.923C145.74 118.204 146.146 118.345 146.715 118.345C147.227 118.345 147.622 118.174 147.9 117.834C148.177 117.493 148.316 117.017 148.316 116.404V107.04ZM162.242 117.061C162.242 116.579 162.051 116.204 161.668 115.936C161.285 115.667 160.613 115.389 159.651 115.102C158.688 114.814 157.902 114.536 157.291 114.267C155.304 113.399 154.31 112.205 154.31 110.687C154.31 109.93 154.557 109.263 155.052 108.685C155.548 108.107 156.248 107.657 157.154 107.336C158.06 107.014 159.078 106.853 160.209 106.853C161.311 106.853 162.3 107.028 163.174 107.378C164.048 107.728 164.728 108.226 165.212 108.873C165.697 109.52 165.939 110.259 165.939 111.09H162.252C162.252 110.533 162.061 110.102 161.678 109.796C161.296 109.49 160.778 109.337 160.125 109.337C159.464 109.337 158.943 109.466 158.56 109.726C158.178 109.985 157.986 110.315 157.986 110.715C157.986 111.065 158.197 111.382 158.618 111.666C159.04 111.95 159.78 112.244 160.841 112.547C161.901 112.85 162.772 113.177 163.453 113.527C165.111 114.377 165.939 115.548 165.939 117.042C165.939 118.235 165.434 119.173 164.422 119.854C163.411 120.535 162.024 120.876 160.261 120.876C159.018 120.876 157.893 120.677 156.885 120.28C155.878 119.884 155.119 119.34 154.61 118.649C154.101 117.959 153.846 117.164 153.846 116.264H157.554C157.554 116.995 157.767 117.534 158.192 117.881C158.616 118.228 159.306 118.401 160.261 118.401C160.872 118.401 161.355 118.284 161.71 118.049C162.065 117.815 162.242 117.486 162.242 117.061Z" fill="#424340"/>
<path fill-rule="evenodd" clip-rule="evenodd" d="M73.4955 122.44L98.6309 112.037C99.5619 111.651 100.634 111.889 101.315 112.632L117.736 130.557C118.63 131.534 118.564 133.05 117.588 133.944C117.393 134.122 117.171 134.267 116.93 134.373L93.3543 144.691C92.4028 145.108 91.2912 144.864 90.6013 144.088L73.0578 124.343C72.6182 123.848 72.6629 123.091 73.1577 122.651C73.2577 122.562 73.3719 122.491 73.4955 122.44Z" fill="#543086"/>
<path d="M96.4815 34.941C106.741 34.941 115.059 28.7701 115.059 21.1579C115.059 13.5457 106.741 7.37476 96.4815 7.37476C86.2216 7.37476 77.9043 13.5457 77.9043 21.1579C77.9043 28.7701 86.2216 34.941 96.4815 34.941Z" stroke="white" stroke-width="1.19853"/>
<path fill-rule="evenodd" clip-rule="evenodd" d="M88.6472 34.1464L79.1025 14.6758L79.5999 13.8184L87.1776 13.4948C87.7052 13.394 87.9876 13.5656 88.0249 14.0097C88.0621 14.4537 87.7797 14.6758 87.1776 14.6758H85.1502L91.7663 29.6757L95.835 20.681L93.0282 14.6758H91.021C90.5152 14.6867 90.2446 14.5091 90.2093 14.1429C90.1739 13.7766 90.4444 13.5606 91.021 13.4948H100.754C101.625 13.394 102.045 13.5656 102.014 14.0097C101.983 14.4537 101.563 14.6758 100.754 14.6758H98.8277L105.657 29.6757L108.776 21.4831C109.207 20.0839 108.742 18.5086 107.381 16.7571C106.713 16.3997 102.644 11.7094 108.776 10.9702C109.275 11.0721 115.268 12.0194 111.326 21.4831C111.243 21.977 109.353 26.0894 105.657 33.8201L103.322 34.9409L97.1854 22.511L91.021 34.9409L88.6472 34.1464Z" fill="white"/>
<path fill-rule="evenodd" clip-rule="evenodd" d="M96.3286 137.169L84.9086 123.643L90.8909 121.083C92.8636 120.31 94.5944 120.085 96.0884 120.378C97.5825 120.672 98.8265 121.442 99.8237 122.67C100.355 123.313 100.587 123.962 100.517 124.622C100.447 125.282 100.11 125.899 99.5047 126.48C100.659 126.303 101.763 126.389 102.819 126.727C103.875 127.061 104.743 127.596 105.423 128.327C106.468 129.424 106.765 130.466 106.31 131.476C105.854 132.493 104.657 133.402 102.714 134.226L96.3286 137.169ZM93.3468 130.123L97.5046 134.711L101.502 132.927C102.624 132.452 103.322 131.895 103.597 131.25C103.872 130.606 103.684 129.944 103.035 129.253C101.642 127.729 99.7589 127.412 97.3727 128.377L93.3468 130.123ZM92.1384 128.695L95.7856 127.121C96.838 126.689 97.5133 126.157 97.8126 125.518C98.1115 124.882 97.9793 124.226 97.4173 123.541C96.7944 122.771 96.0521 122.314 95.1891 122.178C94.326 122.042 93.2994 122.207 92.1076 122.683L88.5429 124.183L92.1384 128.695Z" fill="#F0E8FA"/>
<defs>
<filter id="filter0_d_63_868" x="17.9783" y="42.1322" width="67.1176" height="52.6564" filterUnits="userSpaceOnUse" color-interpolation-filters="sRGB">
<feFlood flood-opacity="0" result="BackgroundImageFix"/>
<feColorMatrix in="SourceAlpha" type="matrix" values="0 0 0 0 0 0 0 0 0 0 0 0 0 0 0 0 0 0 127 0" result="hardAlpha"/>
<feOffset dy="2.39706"/>
<feGaussianBlur stdDeviation="2.39706"/>
<feColorMatrix type="matrix" values="0 0 0 0 0.00818295 0 0 0 0 0.155676 0 0 0 0 0.257786 0 0 0 1 0"/>
<feBlend mode="normal" in2="BackgroundImageFix" result="effect1_dropShadow_63_868"/>
<feBlend mode="normal" in="SourceGraphic" in2="effect1_dropShadow_63_868" result="shape"/>
</filter>
<filter id="filter1_d_63_868" x="9.88556" y="104.456" width="65.6224" height="51.537" filterUnits="userSpaceOnUse" color-interpolation-filters="sRGB">
<feFlood flood-opacity="0" result="BackgroundImageFix"/>
<feColorMatrix in="SourceAlpha" type="matrix" values="0 0 0 0 0 0 0 0 0 0 0 0 0 0 0 0 0 0 127 0" result="hardAlpha"/>
<feOffset dy="2.39706"/>
<feGaussianBlur stdDeviation="2.39706"/>
<feColorMatrix type="matrix" values="0 0 0 0 0 0 0 0 0 0 0 0 0 0 0 0 0 0 0.064623 0"/>
<feBlend mode="normal" in2="BackgroundImageFix" result="effect1_dropShadow_63_868"/>
<feBlend mode="normal" in="SourceGraphic" in2="effect1_dropShadow_63_868" result="shape"/>
</filter>
</defs>
</svg>
