<svg width="40" height="37" viewBox="0 0 40 37" fill="none" xmlns="http://www.w3.org/2000/svg">
<path fill-rule="evenodd" clip-rule="evenodd" d="M29.4737 35.9715C27.73 35.9715 26.3158 34.5896 26.3158 32.8858C26.3158 31.1819 27.73 29.8 29.4737 29.8C31.2174 29.8 32.6316 31.1819 32.6316 32.8858C32.6316 34.5896 31.2174 35.9715 29.4737 35.9715Z" fill="#FEFEFE"/>
<path fill-rule="evenodd" clip-rule="evenodd" d="M32.6316 32.8858C32.6316 34.5896 31.2174 35.9715 29.4737 35.9715C27.73 35.9715 26.3158 34.5896 26.3158 32.8858C26.3158 31.1819 27.73 29.8 29.4737 29.8C31.2174 29.8 32.6316 31.1819 32.6316 32.8858Z" stroke="#2D3619" stroke-width="2"/>
<path fill-rule="evenodd" clip-rule="evenodd" d="M28.9474 33.9143C28.6563 33.9143 28.4211 33.6844 28.4211 33.4C28.4211 33.1156 28.6563 32.8857 28.9474 32.8857C29.2384 32.8857 29.4737 33.1156 29.4737 33.4C29.4737 33.6844 29.2384 33.9143 28.9474 33.9143Z" fill="#94B43F"/>
<path fill-rule="evenodd" clip-rule="evenodd" d="M30.5263 32.8857C30.5263 33.4545 30.0558 33.9143 29.4737 33.9143C28.8916 33.9143 28.4211 33.4545 28.4211 32.8857C28.4211 32.3169 28.8916 31.8572 29.4737 31.8572C30.0558 31.8572 30.5263 32.3169 30.5263 32.8857Z" stroke="#2D3619"/>
<path d="M6.79175 2.02856H14.7174" stroke="#2D3619" stroke-width="3"/>
<path d="M13.6842 8.19995H29.4737" stroke="#2D3619" stroke-width="2"/>
<path d="M29.4737 6.14282V29.8" stroke="#2D3619" stroke-width="2"/>
<path d="M22.1053 24.6571H29.4737" stroke="#2D3619" stroke-width="4"/>
<path d="M29.4737 22.6H32.3445L34.7369 31.8571" stroke="#2D3619" stroke-width="2"/>
<mask id="mask0_510_57362" style="mask-type:luminance" maskUnits="userSpaceOnUse" x="0" y="1" width="40" height="36">
<path fill-rule="evenodd" clip-rule="evenodd" d="M0 37H40V1H0V37Z" fill="white"/>
</mask>
<g mask="url(#mask0_510_57362)">
<path fill-rule="evenodd" clip-rule="evenodd" d="M13.6842 21.5715H29.4737V14.3715H13.6842V21.5715Z" fill="#94B43F"/>
<path fill-rule="evenodd" clip-rule="evenodd" d="M13.6842 21.5715H29.4737V14.3715H13.6842V21.5715Z" stroke="#2D3619" stroke-width="2"/>
<path fill-rule="evenodd" clip-rule="evenodd" d="M34.7368 31.8572L38.9473 29.8Z" fill="#FEFEFE"/>
<path d="M34.7368 31.8572L38.9473 29.8" stroke="#2D3619" stroke-width="3"/>
<path fill-rule="evenodd" clip-rule="evenodd" d="M23.1579 25.1715C23.1579 30.5679 18.2093 34.9429 12.1052 34.9429C6.00118 34.9429 1.05261 30.5679 1.05261 25.1715C1.05261 19.775 6.00118 15.4 12.1052 15.4C18.2093 15.4 23.1579 19.775 23.1579 25.1715" fill="#FEFEFE"/>
<path fill-rule="evenodd" clip-rule="evenodd" d="M23.1579 24.6572C23.1579 30.3377 18.445 34.9429 12.6316 34.9429C6.8182 34.9429 2.10529 30.3377 2.10529 24.6572C2.10529 18.9767 6.8182 14.3715 12.6316 14.3715C18.445 14.3715 23.1579 18.9767 23.1579 24.6572Z" stroke="#2D3619" stroke-width="2"/>
<path fill-rule="evenodd" clip-rule="evenodd" d="M13.6842 24.6571C13.6842 25.2252 13.213 25.6857 12.6316 25.6857C12.0501 25.6857 11.5789 25.2252 11.5789 24.6571C11.5789 24.089 12.0501 23.6285 12.6316 23.6285C13.213 23.6285 13.6842 24.089 13.6842 24.6571Z" stroke="#2D3619" stroke-width="2"/>
</g>
<path d="M13.6842 1V14.3714" stroke="#2D3619" stroke-width="2"/>
</svg>
