<svg width="122" height="28" viewBox="0 0 122 28" fill="none" xmlns="http://www.w3.org/2000/svg">
<g clip-path="url(#clip0_1486_3706)">
<path fill-rule="evenodd" clip-rule="evenodd" d="M7.99992 4.00026V0H12.0001V4.00026H16.0016H20V12.0009H16.0016V8.00053H12.0011H8.00065H4.00051H0V4.00026H4.00051H7.99992ZM7.99863 16.0014H11.9993V12.0009H7.99863V16.0014ZM2.26702e-05 16.0011V19.9995V23.9997H4.00044H7.99866L7.99894 28H11.9991V23.9997H15.9995H19.998V19.9995H15.9995V20.0014H11.9991V19.9995H7.99866H4.00044V16.0011H2.26702e-05Z" fill="#6CBF44"/>
<path d="M44.0853 22.9816V19.994H37.0681L43.7338 11.7465V9.17303H33.0134V12.1607H39.0766L32.5991 20.2827V22.9816H44.0853ZM53.7513 23.4712C55.2828 23.4712 56.5193 23.1365 57.4608 22.467C58.4023 21.7975 59.1409 20.7346 59.6765 19.2784H55.8101C55.626 19.655 55.3728 19.9459 55.0506 20.1509C54.7284 20.3559 54.3581 20.4584 53.9396 20.4584C53.2199 20.4584 52.6341 20.1739 52.1822 19.6048C51.7303 19.0357 51.4583 18.2323 51.3662 17.1946H59.9777C59.9861 17.0942 59.9924 16.9791 59.9966 16.8494C60.0008 16.7197 60.0029 16.5251 60.0029 16.2657C60.0029 13.8052 59.4756 11.9264 58.4211 10.6292C57.3667 9.33204 55.8394 8.68345 53.8392 8.68345C51.973 8.68345 50.4938 9.34459 49.4016 10.6669C48.3095 11.9892 47.7634 13.7885 47.7634 16.0648C47.7634 18.3579 48.3032 20.1655 49.3828 21.4878C50.4624 22.8101 51.9186 23.4712 53.7513 23.4712ZM56.2243 14.5459H51.4415C51.4834 13.7006 51.7282 13.0144 52.1759 12.4871C52.6236 11.9599 53.1781 11.6963 53.8392 11.6963C54.5506 11.6963 55.1155 11.9452 55.5339 12.4432C55.9523 12.9411 56.1825 13.642 56.2243 14.5459ZM71.6523 8.01813V4.52832H68.0244V8.01813H71.6523ZM75.6065 22.9816V20.1321H71.6523V9.6375H64.6852V12.5122H68.0244V20.1321H63.6307V22.9816H75.6065ZM87.1806 23.4712C87.5405 23.4712 87.9547 23.4608 88.4234 23.4398C88.8921 23.4189 89.4528 23.3875 90.1055 23.3457L90.1181 20.4082C89.8587 20.4417 89.5909 20.4668 89.3147 20.4835C89.0385 20.5003 88.7372 20.5087 88.4108 20.5087C87.4484 20.5087 86.758 20.2785 86.3396 19.8182C85.9211 19.3579 85.7119 18.5336 85.7119 17.3452V12.5122H90.1181V9.6375H85.7119V5.6079H82.0966V9.6375H78.6444V12.5122H82.0966V18.6633C82.0966 20.471 82.4732 21.7242 83.2264 22.423C83.9795 23.1218 85.2976 23.4712 87.1806 23.4712ZM100.161 23.4712C102.094 23.4712 103.598 22.8226 104.674 21.5255C105.749 20.2283 106.287 18.4164 106.287 16.0899C106.287 13.755 105.745 11.9369 104.661 10.6355C103.577 9.33413 102.069 8.68345 100.136 8.68345C98.2275 8.68345 96.7357 9.33622 95.6603 10.6418C94.5849 11.9473 94.0473 13.7634 94.0473 16.0899C94.0473 18.4248 94.5849 20.2388 95.6603 21.5317C96.7357 22.8247 98.2359 23.4712 100.161 23.4712ZM100.161 20.3831C99.3656 20.3831 98.761 20.0065 98.3467 19.2533C97.9325 18.5001 97.7254 17.4038 97.7254 15.9644C97.7254 14.6337 97.9408 13.5981 98.3718 12.8574C98.8028 12.1168 99.3991 11.7465 100.161 11.7465C100.947 11.7465 101.552 12.1189 101.975 12.8637C102.397 13.6086 102.609 14.6756 102.609 16.0648C102.609 17.454 102.397 18.5211 101.975 19.2659C101.552 20.0107 100.947 20.3831 100.161 20.3831ZM113.643 22.9816V16.115C113.643 14.5417 113.825 13.4328 114.189 12.7884C114.553 12.144 115.166 11.8218 116.028 11.8218C116.656 11.8218 117.095 12.0206 117.346 12.4181C117.597 12.8156 117.723 13.7759 117.723 15.2991V22.9816H121.401V14.5961C121.401 12.2026 121.108 10.623 120.522 9.85718C119.936 9.09143 118.919 8.70856 117.472 8.70856C116.568 8.70856 115.815 8.9115 115.212 9.31739C114.609 9.72328 114.086 10.3782 113.643 11.282V9.17303H109.965V22.9816H113.643Z" fill="white"/>
</g>
<defs>
<clipPath id="clip0_1486_3706">
<rect width="122" height="28" fill="white"/>
</clipPath>
</defs>
</svg>
