<svg width="60" height="60" viewBox="0 0 60 60" fill="none" xmlns="http://www.w3.org/2000/svg">
<path d="M18 18H12V24H18V18Z" fill="white"/>
<path d="M24 6H18V12H24V6Z" fill="black"/>
<path d="M18 6H12V12H18V6Z" fill="black"/>
<path d="M30 12H24V18H30V12Z" fill="black"/>
<path d="M36 12H30V18H36V12Z" fill="black"/>
<path d="M42 6H36V12H42V6Z" fill="black"/>
<path d="M48 6H42V12H48V6Z" fill="black"/>
<path d="M54 6H48V12H54V6Z" fill="black"/>
<path d="M60 12H54V18H60V12Z" fill="black"/>
<path d="M60 18H54V24H60V18Z" fill="black"/>
<path d="M12 6H6V12H12V6Z" fill="black"/>
<path d="M6 12H0V18H6V12Z" fill="black"/>
<path d="M6 18H0V24H6V18Z" fill="black"/>
<path d="M6 24H0V30H6V24Z" fill="black"/>
<path d="M60 24H54V30H60V24Z" fill="black"/>
<path d="M12 30H6V36H12V30Z" fill="black"/>
<path d="M18 36H12V42H18V36Z" fill="black"/>
<path d="M24 42H18V48H24V42Z" fill="black"/>
<path d="M30 48H24V54H30V48Z" fill="black"/>
<path d="M36 48H30V54H36V48Z" fill="black"/>
<path d="M42 42H36V48H42V42Z" fill="black"/>
<path d="M48 36H42V42H48V36Z" fill="black"/>
<path d="M54 30H48V36H54V30Z" fill="black"/>
<path d="M12 12H6V18H12V12Z" fill="#9D0000"/>
<path d="M18 12H12V18H18V12Z" fill="#FF0000"/>
<path d="M24 12H18V18H24V12Z" fill="#FF0000"/>
<path d="M12 18H6V24H12V18Z" fill="#9D0000"/>
<path d="M18 18H12V24H18V18Z" fill="#FF0000"/>
<path d="M24 18H18V24H24V18Z" fill="#FF0000"/>
<path d="M12 24H6V30H12V24Z" fill="#9D0000"/>
<path d="M18 24H12V30H18V24Z" fill="#FF0000"/>
<path d="M24 24H18V30H24V24Z" fill="#FF0000"/>
<path d="M18 30H12V36H18V30Z" fill="#9D0000"/>
<path d="M24 30H18V36H24V30Z" fill="#FF0000"/>
<path d="M24 36H18V42H24V36Z" fill="#9D0000"/>
<path d="M30 36H24V42H30V36Z" fill="#FF0000"/>
<path d="M30 42H24V48H30V42Z" fill="#9D0000"/>
<path d="M36 42H30V48H36V42Z" fill="#FF0000"/>
<path d="M36 36H30V42H36V36Z" fill="#FF0000"/>
<path d="M30 30H24V36H30V30Z" fill="#FF0000"/>
<path d="M36 30H30V36H36V30Z" fill="#FF0000"/>
<path d="M36 24H30V30H36V24Z" fill="#FF0000"/>
<path d="M30 24H24V30H30V24Z" fill="#FF0000"/>
<path d="M30 18H24V24H30V18Z" fill="#FF0000"/>
<path d="M36 18H30V24H36V18Z" fill="#FF0000"/>
<path d="M42 24H36V30H42V24Z" fill="#FF0000"/>
<path d="M48 30H42V36H48V30Z" fill="#FF0000"/>
<path d="M42 30H36V36H42V30Z" fill="#FF0000"/>
<path d="M42 36H36V42H42V36Z" fill="#FF0000"/>
<path d="M48 24H42V30H48V24Z" fill="#FF0000"/>
<path d="M54 24H48V30H54V24Z" fill="#FF5757"/>
<path d="M42 18H36V24H42V18Z" fill="#FF0000"/>
<path d="M48 18H42V24H48V18Z" fill="#FF0000"/>
<path d="M54 18H48V24H54V18Z" fill="#FF5757"/>
<path d="M54 12H48V18H54V12Z" fill="#FF5757"/>
<path d="M48 12H42V18H48V12Z" fill="#FF5757"/>
<path d="M42 12H36V18H42V12Z" fill="#FF5757"/>
</svg>
