<svg width="376" height="62" viewBox="0 0 376 62" fill="none" xmlns="http://www.w3.org/2000/svg">
<path d="M67.2888 11.9905L70.5331 24.8501L74.224 11.9905H82.4288V46.2202H76.3633V36.0876L76.6455 20.0778L72.1553 34.9356H68.8874L64.8673 20.7125L65.1494 36.0876V46.2202H59.084V11.9905H67.2888ZM104.222 46.2202C104.065 45.9067 103.932 45.5463 103.822 45.1388C103.713 44.7312 103.619 44.3002 103.54 43.8457C103.18 44.2376 102.764 44.6059 102.294 44.9506C101.824 45.2955 101.307 45.5932 100.743 45.844C100.163 46.1104 99.528 46.3142 98.8384 46.4552C98.1489 46.612 97.4044 46.6903 96.6051 46.6903C95.3041 46.6903 94.1052 46.5022 93.0081 46.1261C91.9266 45.75 90.994 45.2249 90.2104 44.551C89.4268 43.877 88.8155 43.0778 88.3768 42.153C87.9378 41.2126 87.7184 40.1938 87.7184 39.0967C87.7184 37.6862 87.9927 36.4403 88.5413 35.3589C89.0898 34.2618 89.9126 33.3606 91.0098 32.6553C91.9972 32.0127 93.2119 31.5268 94.6537 31.1976C96.1114 30.8529 97.7805 30.6805 99.6613 30.6805H103.305V29.1758C103.305 28.5803 103.211 28.0473 103.023 27.5771C102.835 27.0914 102.553 26.6759 102.177 26.3312C101.785 25.9707 101.291 25.6964 100.696 25.5084C100.116 25.3046 99.434 25.2027 98.6503 25.2027C97.9607 25.2027 97.3652 25.289 96.8636 25.4613C96.362 25.618 95.9547 25.8453 95.6412 26.1431C95.359 26.4096 95.1474 26.7308 95.0063 27.1069C94.881 27.4832 94.8184 27.8985 94.8184 28.353H88.2827C88.2827 27.2716 88.5178 26.2449 88.988 25.2733C89.4739 24.3015 90.1791 23.4474 91.1038 22.7107C92.0128 21.9741 93.1256 21.3943 94.4421 20.971C95.7743 20.5322 97.2946 20.3129 99.0029 20.3129C100.539 20.3129 101.965 20.5008 103.282 20.877C104.614 21.2532 105.766 21.8096 106.738 22.5462C107.709 23.2828 108.469 24.2154 109.018 25.3437C109.566 26.4566 109.841 27.7496 109.841 29.2228V40.1312C109.841 41.4948 109.927 42.6232 110.099 43.5166C110.272 44.41 110.523 45.1779 110.852 45.8206V46.2202H104.222ZM97.9921 41.6358C98.6503 41.6358 99.2615 41.5575 99.8258 41.4007C100.39 41.244 100.899 41.0403 101.354 40.7895C101.808 40.5387 102.2 40.2567 102.529 39.9432C102.859 39.614 103.117 39.2849 103.305 38.9557V34.583H99.9668C98.9481 34.583 98.0783 34.6848 97.3573 34.8887C96.6363 35.0767 96.0486 35.3432 95.5941 35.6879C95.1396 36.0484 94.8027 36.4795 94.5833 36.9809C94.3637 37.4668 94.2541 37.9996 94.2541 38.5796C94.2541 39.0341 94.3325 39.4573 94.4892 39.8491C94.6616 40.2253 94.9045 40.5465 95.218 40.813C95.5314 41.0638 95.9155 41.2675 96.37 41.4242C96.8401 41.5652 97.3808 41.6358 97.9921 41.6358ZM135.513 20.3129C136.5 20.3129 137.41 20.3833 138.24 20.5243C139.086 20.6498 139.768 20.7908 140.286 20.9475L139.322 27.4596C138.46 27.2559 137.574 27.1069 136.665 27.013C135.772 26.9033 134.917 26.8484 134.103 26.8484C133.256 26.8484 132.488 26.9267 131.799 27.0835C131.125 27.2245 130.521 27.444 129.988 27.7418C129.346 28.0865 128.797 28.5254 128.343 29.0583C127.888 29.5911 127.512 30.2181 127.214 30.939V46.2202H120.679V20.783H126.768L127.026 24.3799L127.073 24.9441C128.108 23.5022 129.346 22.3738 130.788 21.5588C132.23 20.7282 133.805 20.3129 135.513 20.3129ZM155.731 35.7115L152.769 38.462V46.2202H146.233V10.1097H152.769V30.7509L154.744 28.494L161.773 20.783H169.625L160.033 31.3858L170.965 46.2202H162.949L155.731 35.7115ZM187.422 46.6903C185.463 46.6903 183.684 46.3691 182.085 45.7265C180.487 45.0839 179.115 44.2061 177.971 43.0933C176.827 41.9962 175.942 40.7032 175.315 39.2143C174.703 37.7098 174.398 36.1033 174.398 34.3949V33.4545C174.398 31.5111 174.703 29.7401 175.315 28.1414C175.926 26.5271 176.78 25.1401 177.877 23.9803C178.974 22.8205 180.275 21.9193 181.78 21.2767C183.284 20.6341 184.922 20.3129 186.693 20.3129C188.527 20.3129 190.157 20.6184 191.583 21.2296C193.025 21.8253 194.247 22.6716 195.25 23.7687C196.238 24.8658 196.99 26.1902 197.507 27.7418C198.025 29.2777 198.283 30.9782 198.283 32.8433V35.6174H181.027V35.6879C181.247 36.7066 181.529 37.5294 181.874 38.1564C182.218 38.7677 182.681 39.3241 183.261 39.8257C183.856 40.3428 184.538 40.7424 185.306 41.0246C186.074 41.3067 186.913 41.4477 187.822 41.4477C189.107 41.4477 190.353 41.2048 191.56 40.7189C192.766 40.233 193.746 39.5043 194.498 38.5326L197.766 42.059C196.935 43.2345 195.619 44.3002 193.816 45.2563C192.014 46.2124 189.882 46.6903 187.422 46.6903ZM186.646 25.6025C185.909 25.6025 185.235 25.7356 184.624 26.0021C184.013 26.2529 183.48 26.6212 183.026 27.1069C182.555 27.5928 182.164 28.1728 181.85 28.8467C181.537 29.5207 181.302 30.2729 181.145 31.1035H191.865V30.5864C191.865 29.8968 191.74 29.2464 191.489 28.6351C191.238 28.0238 190.893 27.491 190.455 27.0365C190.016 26.5976 189.475 26.2529 188.832 26.0021C188.206 25.7356 187.477 25.6025 186.646 25.6025ZM215.986 14.5529V20.783H225.484V25.6025H215.986V36.5343C215.986 37.459 216.088 38.2347 216.292 38.8616C216.511 39.473 216.816 39.9588 217.208 40.3193C217.599 40.6954 218.071 40.9619 218.619 41.1187C219.182 41.2754 219.81 41.3538 220.499 41.3538C221.002 41.3538 221.51 41.3301 222.028 41.2832C222.561 41.2362 223.069 41.1734 223.556 41.095C224.026 41.0324 224.464 40.9619 224.873 40.8836C225.296 40.8052 225.657 40.7268 225.954 40.6485L226.588 45.1388C226.134 45.4051 225.601 45.6402 224.99 45.844C224.379 46.032 223.729 46.1887 223.038 46.3142C222.35 46.4395 221.628 46.5336 220.876 46.5963C220.139 46.6746 219.411 46.7138 218.689 46.7138C217.295 46.7138 216.024 46.5336 214.882 46.1732C213.753 45.7969 212.789 45.2171 211.99 44.4335C211.174 43.6655 210.547 42.686 210.109 41.4948C209.67 40.2879 209.45 38.8461 209.45 37.169V25.6025H203.643V20.783H209.45V14.5529H215.986ZM233.007 56V20.783H239.049L239.283 23.275C239.629 22.8518 240.005 22.4757 240.412 22.1465C240.82 21.8018 241.258 21.5039 241.729 21.2532C242.292 20.9553 242.913 20.7282 243.586 20.5714C244.276 20.399 245.012 20.3129 245.795 20.3129C247.411 20.3129 248.837 20.6263 250.074 21.2532C251.313 21.8644 252.355 22.7342 253.201 23.8627C254.047 25.0068 254.683 26.3782 255.106 27.9769C255.544 29.5599 255.763 31.3152 255.763 33.243V33.7367C255.763 35.586 255.544 37.3023 255.106 38.8853C254.683 40.4681 254.056 41.8317 253.224 42.9758C252.378 44.1357 251.337 45.0447 250.097 45.703C248.86 46.3612 247.442 46.6903 245.843 46.6903C244.996 46.6903 244.212 46.5963 243.492 46.4083C242.787 46.2359 242.129 45.9773 241.518 45.6324C241.157 45.413 240.812 45.17 240.482 44.9037C240.154 44.6372 239.84 44.3394 239.542 44.0102V56H233.007ZM249.228 33.243C249.228 32.1772 249.126 31.1819 248.922 30.2572C248.734 29.3169 248.437 28.502 248.03 27.8122C247.607 27.1384 247.066 26.6055 246.406 26.2137C245.764 25.8219 244.98 25.6259 244.055 25.6259C243.524 25.6259 243.037 25.6808 242.598 25.7905C242.16 25.8845 241.76 26.0255 241.4 26.2137C240.992 26.4331 240.632 26.7073 240.317 27.0365C240.02 27.3657 239.762 27.7496 239.542 28.1885V38.8147C239.745 39.2222 239.989 39.5906 240.271 39.9196C240.569 40.2487 240.905 40.5309 241.281 40.766C241.642 40.9854 242.057 41.1579 242.528 41.2832C242.998 41.3929 243.524 41.4477 244.104 41.4477C245.027 41.4477 245.811 41.244 246.454 40.8365C247.112 40.4289 247.645 39.8726 248.053 39.1673C248.46 38.4621 248.757 37.647 248.945 36.7223C249.133 35.7819 249.228 34.7867 249.228 33.7367V33.243ZM263.192 10.1097H277.416V40.9071H284.704V46.2202H263.192V40.9071H270.81V15.4463H263.192V10.1097ZM306.638 46.2202C306.481 45.9067 306.347 45.5463 306.239 45.1388C306.128 44.7312 306.035 44.3002 305.956 43.8457C305.596 44.2376 305.18 44.6059 304.71 44.9506C304.241 45.2955 303.723 45.5932 303.158 45.844C302.579 46.1104 301.944 46.3142 301.254 46.4552C300.565 46.612 299.82 46.6903 299.021 46.6903C297.72 46.6903 296.521 46.5022 295.425 46.1261C294.342 45.75 293.41 45.2249 292.626 44.551C291.842 43.877 291.231 43.0778 290.793 42.153C290.354 41.2126 290.135 40.1938 290.135 39.0967C290.135 37.6862 290.409 36.4403 290.958 35.3589C291.506 34.2618 292.329 33.3606 293.425 32.6553C294.414 32.0127 295.628 31.5268 297.07 31.1976C298.528 30.8529 300.196 30.6805 302.078 30.6805H305.721V29.1758C305.721 28.5803 305.628 28.0473 305.439 27.5771C305.251 27.0914 304.968 26.6759 304.592 26.3312C304.2 25.9707 303.707 25.6964 303.112 25.5084C302.532 25.3046 301.849 25.2027 301.066 25.2027C300.377 25.2027 299.781 25.289 299.279 25.4613C298.778 25.618 298.371 25.8453 298.057 26.1431C297.776 26.4096 297.564 26.7308 297.423 27.1069C297.297 27.4832 297.234 27.8985 297.234 28.353H290.699C290.699 27.2716 290.934 26.2449 291.404 25.2733C291.89 24.3015 292.595 23.4474 293.52 22.7107C294.43 21.9741 295.541 21.3943 296.858 20.971C298.191 20.5322 299.711 20.3129 301.419 20.3129C302.955 20.3129 304.381 20.5008 305.698 20.877C307.03 21.2532 308.182 21.8096 309.154 22.5462C310.126 23.2828 310.886 24.2154 311.433 25.3437C311.982 26.4566 312.257 27.7496 312.257 29.2228V40.1312C312.257 41.4948 312.343 42.6232 312.516 43.5166C312.688 44.41 312.938 45.1779 313.268 45.8206V46.2202H306.638ZM300.408 41.6358C301.066 41.6358 301.678 41.5575 302.241 41.4007C302.806 41.244 303.316 41.0403 303.77 40.7895C304.225 40.5387 304.617 40.2567 304.945 39.9432C305.275 39.614 305.533 39.2849 305.721 38.9557V34.583H302.383C301.364 34.583 300.495 34.6848 299.774 34.8887C299.052 35.0767 298.464 35.3432 298.01 35.6879C297.556 36.0484 297.219 36.4795 297 36.9809C296.78 37.4668 296.67 37.9996 296.67 38.5796C296.67 39.0341 296.748 39.4573 296.905 39.8491C297.077 40.2253 297.32 40.5465 297.634 40.813C297.948 41.0638 298.332 41.2675 298.786 41.4242C299.256 41.5652 299.797 41.6358 300.408 41.6358ZM330.924 41.4713C331.566 41.4713 332.177 41.3772 332.757 41.1891C333.337 41.0011 333.847 40.7346 334.285 40.3898C334.724 40.045 335.061 39.6297 335.296 39.1439C335.548 38.658 335.656 38.1172 335.625 37.5217H341.784C341.817 38.8382 341.542 40.0608 340.962 41.1891C340.397 42.3176 339.621 43.2892 338.634 44.1043C337.647 44.9194 336.495 45.5618 335.179 46.032C333.878 46.4867 332.499 46.7138 331.04 46.7138C329.065 46.7138 327.335 46.3847 325.845 45.7265C324.356 45.0525 323.118 44.1357 322.131 42.9758C321.128 41.816 320.368 40.4603 319.85 38.9088C319.349 37.3415 319.099 35.6644 319.099 33.8777V33.1724C319.099 31.3857 319.349 29.7166 319.85 28.1649C320.352 26.5976 321.105 25.2341 322.107 24.0744C323.11 22.9144 324.348 21.9977 325.822 21.3237C327.31 20.6498 329.034 20.3129 330.993 20.3129C332.561 20.3129 334.011 20.5479 335.342 21.0181C336.675 21.4883 337.827 22.1465 338.799 22.9928C339.755 23.8548 340.5 24.8972 341.033 26.1196C341.565 27.3265 341.817 28.6822 341.784 30.1868H335.625C335.656 29.5599 335.563 28.9642 335.342 28.4C335.123 27.8359 334.803 27.35 334.38 26.9424C333.955 26.5349 333.447 26.2137 332.852 25.9786C332.256 25.7278 331.605 25.6025 330.9 25.6025C329.865 25.6025 329.011 25.8139 328.338 26.2372C327.663 26.6604 327.131 27.2245 326.739 27.9298C326.33 28.6351 326.041 29.4423 325.869 30.3513C325.712 31.2603 325.634 32.2006 325.634 33.1724V33.8777C325.634 34.865 325.712 35.8211 325.869 36.7458C326.026 37.6549 326.307 38.4543 326.715 39.1439C327.106 39.8491 327.64 40.4134 328.314 40.8365C329.003 41.2597 329.874 41.4713 330.924 41.4713ZM360.921 46.6903C358.962 46.6903 357.183 46.3691 355.585 45.7265C353.987 45.0839 352.615 44.2061 351.471 43.0933C350.327 41.9962 349.44 40.7032 348.814 39.2143C348.203 37.7098 347.898 36.1033 347.898 34.3949V33.4545C347.898 31.5111 348.203 29.7401 348.814 28.1414C349.425 26.5271 350.28 25.1401 351.376 23.9803C352.474 22.8205 353.775 21.9193 355.279 21.2767C356.784 20.6341 358.421 20.3129 360.192 20.3129C362.027 20.3129 363.656 20.6184 365.082 21.2296C366.525 21.8253 367.747 22.6716 368.75 23.7687C369.737 24.8658 370.49 26.1902 371.008 27.7418C371.524 29.2777 371.782 30.9782 371.782 32.8433V35.6174H354.526V35.6879C354.747 36.7066 355.028 37.5294 355.374 38.1564C355.717 38.7677 356.181 39.3241 356.761 39.8257C357.356 40.3428 358.037 40.7424 358.805 41.0246C359.573 41.3067 360.411 41.4477 361.321 41.4477C362.607 41.4477 363.852 41.2048 365.059 40.7189C366.265 40.233 367.245 39.5043 367.997 38.5326L371.266 42.059C370.435 43.2345 369.119 44.3002 367.316 45.2563C365.513 46.2124 363.383 46.6903 360.921 46.6903ZM360.145 25.6025C359.408 25.6025 358.735 25.7356 358.124 26.0021C357.513 26.2529 356.98 26.6212 356.526 27.1069C356.055 27.5928 355.663 28.1728 355.35 28.8467C355.036 29.5207 354.801 30.2729 354.644 31.1035H365.365V30.5864C365.365 29.8968 365.239 29.2464 364.989 28.6351C364.738 28.0238 364.393 27.491 363.955 27.0365C363.515 26.5976 362.975 26.2529 362.332 26.0021C361.705 25.7356 360.976 25.6025 360.145 25.6025Z" fill="white"/>
<g clip-path="url(#clip0_682_1281)">
<path d="M21.7678 48.981C27.1286 48.981 32.2699 46.8514 36.0606 43.0608C39.8513 39.2701 41.9809 34.1288 41.9809 28.7679C41.9809 23.4071 39.8513 18.2658 36.0606 14.4751C32.2699 10.6844 27.1286 8.55481 21.7678 8.55481C16.4069 8.55481 11.2657 10.6844 7.47497 14.4751C3.68428 18.2658 1.55469 23.4071 1.55469 28.7679C1.55469 34.1288 3.68428 39.2701 7.47497 43.0608C11.2657 46.8514 16.4069 48.981 21.7678 48.981Z" stroke="white" stroke-width="2.48" stroke-linecap="round" stroke-linejoin="round"/>
<path d="M13.9941 34.9874L21.7684 41.2068L29.5427 34.9874M21.7684 16.3291L13.9941 25.6582L21.7684 31.8776L29.5427 25.6582L21.7684 16.3291Z" stroke="white" stroke-width="2.48" stroke-linecap="round" stroke-linejoin="round"/>
</g>
<defs>
<clipPath id="clip0_682_1281">
<rect width="43.5359" height="43.5359" fill="white" transform="translate(0 7)"/>
</clipPath>
</defs>
</svg>
