<svg width="122" height="28" viewBox="0 0 122 28" fill="none" xmlns="http://www.w3.org/2000/svg">
<g clip-path="url(#clip0_673_1245)">
<path d="M72.4959 25H68.2623L62.1387 10.8023V25H57.8598V2.98527H62.1387L68.217 17.1225L68.2321 2.98527H72.4959V25ZM90.5492 15.8826H81.1143V25H76.8505V2.98527H91.7286V6.44775H81.1143V12.4353H90.5492V15.8826ZM111.354 6.44775H104.565V25H100.302V6.44775H93.6035V2.98527H111.354V6.44775Z" fill="white"/>
<path d="M17.3116 18.7234C20.246 18.7234 22.6243 16.3819 22.6243 13.4931C22.6243 10.6053 20.246 8.26379 17.3116 8.26379C14.3763 8.26379 11.998 10.6053 11.998 13.4931C11.998 16.3819 14.3773 18.7234 17.3116 18.7234Z" fill="url(#paint0_linear_673_1245)"/>
<path d="M17.3116 18.7234C20.246 18.7234 22.6243 16.3819 22.6243 13.4931C22.6243 10.6053 20.246 8.26379 17.3116 8.26379C14.3763 8.26379 11.998 10.6053 11.998 13.4931C11.998 16.3819 14.3773 18.7234 17.3116 18.7234Z" fill="url(#paint1_linear_673_1245)"/>
<path d="M17.3116 18.7234C20.246 18.7234 22.6243 16.3819 22.6243 13.4931C22.6243 10.6053 20.246 8.26379 17.3116 8.26379C14.3763 8.26379 11.998 10.6053 11.998 13.4931C11.998 16.3819 14.3773 18.7234 17.3116 18.7234Z" fill="url(#paint2_radial_673_1245)" fill-opacity="0.5"/>
<path d="M35.6378 18.7234C38.5722 18.7234 40.9504 16.3819 40.9504 13.4931C40.9504 10.6053 38.5722 8.26379 35.6378 8.26379C32.7035 8.26379 30.3242 10.6053 30.3242 13.4931C30.3242 16.3819 32.7035 18.7234 35.6378 18.7234Z" fill="url(#paint3_linear_673_1245)"/>
<g filter="url(#filter0_f_673_1245)">
<path d="M37 9.01074C37.9494 9.15412 39.7842 10.4038 40.1901 12.4111C40.659 14.1364 40.0235 16.3471 38.5703 17.2093" stroke="url(#paint4_radial_673_1245)" stroke-opacity="0.8" stroke-width="0.484375" stroke-linecap="round"/>
</g>
<path d="M26.4994 25.4541C34.2165 25.4541 38.0731 20.2722 38.0731 13.8804C38.0731 7.48861 34.2175 2.30676 26.4994 2.30676C18.7824 2.30676 14.9258 7.48861 14.9258 13.8804C14.9258 20.2722 18.7814 25.4541 26.4994 25.4541Z" fill="url(#paint5_radial_673_1245)"/>
<path d="M26.4994 25.4541C34.2165 25.4541 38.0731 20.2722 38.0731 13.8804C38.0731 7.48861 34.2175 2.30676 26.4994 2.30676C18.7824 2.30676 14.9258 7.48861 14.9258 13.8804C14.9258 20.2722 18.7814 25.4541 26.4994 25.4541Z" fill="url(#paint6_linear_673_1245)"/>
<path d="M26.4994 25.4541C34.2165 25.4541 38.0731 20.2722 38.0731 13.8804C38.0731 7.48861 34.2175 2.30676 26.4994 2.30676C18.7824 2.30676 14.9258 7.48861 14.9258 13.8804C14.9258 20.2722 18.7814 25.4541 26.4994 25.4541Z" fill="url(#paint7_radial_673_1245)"/>
<path d="M26.4994 25.4541C34.2165 25.4541 38.0731 20.2722 38.0731 13.8804C38.0731 7.48861 34.2175 2.30676 26.4994 2.30676C18.7824 2.30676 14.9258 7.48861 14.9258 13.8804C14.9258 20.2722 18.7814 25.4541 26.4994 25.4541Z" fill="url(#paint8_radial_673_1245)"/>
<g filter="url(#filter1_f_673_1245)">
<path d="M35.353 13.3881C36.2609 12.9952 36.2506 10.952 35.3299 8.82438C34.4092 6.69678 32.9268 5.29051 32.0189 5.6834C31.111 6.07628 31.1214 8.11954 32.0421 10.2471C32.9628 12.3747 34.4451 13.781 35.353 13.3881Z" fill="#C58E7D"/>
</g>
<g filter="url(#filter2_f_673_1245)">
<path d="M29.251 3.75228C29.251 3.54576 27.922 3.37835 26.2827 3.37835C24.6434 3.37835 23.3145 3.54576 23.3145 3.75228C23.3145 3.9588 24.6434 4.12622 26.2827 4.12622C27.922 4.12622 29.251 3.9588 29.251 3.75228Z" fill="#C58E7D"/>
</g>
<g filter="url(#filter3_f_673_1245)">
<path d="M22.5063 5.86218C21.6297 5.86245 20.7713 6.11259 20.0318 6.58327C19.2923 7.05396 18.7022 7.72569 18.3308 8.51974C17.9594 9.31379 17.822 10.1973 17.9348 11.0666C18.0476 11.9359 18.4058 12.7551 18.9675 13.4281C19.0188 13.4889 19.0561 13.5603 19.0765 13.6372C19.097 13.7141 19.1001 13.7945 19.0857 13.8728C18.8872 14.918 18.9219 15.994 19.1871 17.0243C19.4523 18.0546 19.9416 19.0136 20.6201 19.833C21.2986 20.6524 22.1495 21.312 23.1122 21.7648C24.0749 22.2175 25.1257 22.4523 26.1895 22.4523C27.2534 22.4523 28.3041 22.2175 29.2668 21.7648C30.2295 21.312 31.0804 20.6524 31.7589 19.833C32.4374 19.0136 32.9267 18.0546 33.1919 17.0243C33.4572 15.994 33.4918 14.918 33.2934 13.8728C33.2789 13.7948 33.2819 13.7145 33.3021 13.6378C33.3224 13.5611 33.3594 13.4898 33.4106 13.4291C33.9723 12.7561 34.3305 11.9369 34.4433 11.0676C34.556 10.1982 34.4186 9.31476 34.0472 8.52071C33.6758 7.72666 33.0858 7.05493 32.3463 6.58424C31.6067 6.11356 30.7483 5.86342 29.8717 5.86315L22.5063 5.86218Z" fill="#561E25"/>
</g>
<path d="M22.7753 5.62183C21.8885 5.62194 21.0202 5.87493 20.2721 6.35113C19.524 6.82732 18.9273 7.50696 18.5518 8.31034C18.1764 9.11371 18.0378 10.0075 18.1524 10.8868C18.2669 11.7662 18.6299 12.5946 19.1987 13.275C19.25 13.3356 19.2872 13.4068 19.3076 13.4835C19.328 13.5602 19.3312 13.6405 19.3168 13.7186C19.1157 14.7756 19.1504 15.8639 19.4183 16.9059C19.6863 17.9479 20.1809 18.918 20.8669 19.7468C21.5529 20.5757 22.4134 21.2429 23.387 21.7009C24.3606 22.1589 25.4232 22.3963 26.4992 22.3963C27.5751 22.3963 28.6377 22.1589 29.6113 21.7009C30.5849 21.2429 31.4454 20.5757 32.1314 19.7468C32.8174 18.918 33.312 17.9479 33.58 16.9059C33.8479 15.8639 33.8826 14.7756 33.6815 13.7186C33.6671 13.6405 33.6703 13.5602 33.6907 13.4835C33.7112 13.4068 33.7484 13.3356 33.7997 13.275C34.3688 12.5947 34.7321 11.7662 34.8469 10.8868C34.9617 10.0073 34.8232 9.1133 34.4477 8.30978C34.0722 7.50625 33.4752 6.82653 32.7269 6.35042C31.9786 5.8743 31.11 5.62155 30.223 5.62183H22.7753Z" fill="url(#paint9_linear_673_1245)"/>
<path d="M22.7753 5.62183C21.8885 5.62194 21.0202 5.87493 20.2721 6.35113C19.524 6.82732 18.9273 7.50696 18.5518 8.31034C18.1764 9.11371 18.0378 10.0075 18.1524 10.8868C18.2669 11.7662 18.6299 12.5946 19.1987 13.275C19.25 13.3356 19.2872 13.4068 19.3076 13.4835C19.328 13.5602 19.3312 13.6405 19.3168 13.7186C19.1157 14.7756 19.1504 15.8639 19.4183 16.9059C19.6863 17.9479 20.1809 18.918 20.8669 19.7468C21.5529 20.5757 22.4134 21.2429 23.387 21.7009C24.3606 22.1589 25.4232 22.3963 26.4992 22.3963C27.5751 22.3963 28.6377 22.1589 29.6113 21.7009C30.5849 21.2429 31.4454 20.5757 32.1314 19.7468C32.8174 18.918 33.312 17.9479 33.58 16.9059C33.8479 15.8639 33.8826 14.7756 33.6815 13.7186C33.6671 13.6405 33.6703 13.5602 33.6907 13.4835C33.7112 13.4068 33.7484 13.3356 33.7997 13.275C34.3688 12.5947 34.7321 11.7662 34.8469 10.8868C34.9617 10.0073 34.8232 9.1133 34.4477 8.30978C34.0722 7.50625 33.4752 6.82653 32.7269 6.35042C31.9786 5.8743 31.11 5.62155 30.223 5.62183H22.7753Z" fill="url(#paint10_radial_673_1245)"/>
<path d="M22.7753 5.62183C21.8885 5.62194 21.0202 5.87493 20.2721 6.35113C19.524 6.82732 18.9273 7.50696 18.5518 8.31034C18.1764 9.11371 18.0378 10.0075 18.1524 10.8868C18.2669 11.7662 18.6299 12.5946 19.1987 13.275C19.25 13.3356 19.2872 13.4068 19.3076 13.4835C19.328 13.5602 19.3312 13.6405 19.3168 13.7186C19.1157 14.7756 19.1504 15.8639 19.4183 16.9059C19.6863 17.9479 20.1809 18.918 20.8669 19.7468C21.5529 20.5757 22.4134 21.2429 23.387 21.7009C24.3606 22.1589 25.4232 22.3963 26.4992 22.3963C27.5751 22.3963 28.6377 22.1589 29.6113 21.7009C30.5849 21.2429 31.4454 20.5757 32.1314 19.7468C32.8174 18.918 33.312 17.9479 33.58 16.9059C33.8479 15.8639 33.8826 14.7756 33.6815 13.7186C33.6671 13.6405 33.6703 13.5602 33.6907 13.4835C33.7112 13.4068 33.7484 13.3356 33.7997 13.275C34.3688 12.5947 34.7321 11.7662 34.8469 10.8868C34.9617 10.0073 34.8232 9.1133 34.4477 8.30978C34.0722 7.50625 33.4752 6.82653 32.7269 6.35042C31.9786 5.8743 31.11 5.62155 30.223 5.62183H22.7753Z" fill="url(#paint11_radial_673_1245)"/>
<g filter="url(#filter4_f_673_1245)">
<path d="M16.5311 7.48669C14.9879 11.2939 15.1642 16.8661 16.8508 19.2376" stroke="url(#paint12_linear_673_1245)" stroke-opacity="0.4" stroke-width="0.775" stroke-linecap="round"/>
</g>
<g filter="url(#filter5_f_673_1245)">
<path d="M37.0781 9.55017C37.8822 12.7277 37.8047 16.8768 36.3516 19.2377" stroke="url(#paint13_linear_673_1245)" stroke-opacity="0.5" stroke-width="0.3875" stroke-linecap="round"/>
</g>
<g filter="url(#filter6_f_673_1245)">
<path d="M31.75 6.21851C33.0055 6.7116 35.3247 8.63554 34.167 11.9186" stroke="url(#paint14_linear_673_1245)" stroke-width="0.3875" stroke-linecap="round"/>
</g>
<g filter="url(#filter7_f_673_1245)">
<path d="M33.2932 13.7206C33.7776 16.5668 32.7188 18.6854 31.75 19.5631" stroke="url(#paint15_linear_673_1245)" stroke-width="0.096875" stroke-linecap="round"/>
</g>
<path d="M22.6309 16.7683C22.6309 18.9926 24.2283 20.6482 26.5 20.6482C28.9442 20.6482 30.3692 18.9218 30.3692 16.7683H22.6309Z" fill="url(#paint16_radial_673_1245)"/>
<g filter="url(#filter8_f_673_1245)">
<path d="M23.8906 10.9054C23.8906 10.4704 23.5382 10.1178 23.1035 10.1178C22.6688 10.1178 22.3164 10.4704 22.3164 10.9054V12.4786C22.3164 12.9136 22.6688 13.2662 23.1035 13.2662C23.5382 13.2662 23.8906 12.9136 23.8906 12.4786V10.9054Z" fill="#BB6F89" fill-opacity="0.6"/>
</g>
<g filter="url(#filter9_f_673_1245)">
<path d="M29.873 10.9054C29.873 10.4704 29.5206 10.1178 29.0859 10.1178C28.6512 10.1178 28.2988 10.4704 28.2988 10.9054V12.4786C28.2988 12.9136 28.6512 13.2662 29.0859 13.2662C29.5206 13.2662 29.873 12.9136 29.873 12.4786V10.9054Z" fill="#BB6F89" fill-opacity="0.6"/>
</g>
<path d="M24.3281 10.6981C24.3281 10.2947 24.001 9.96765 23.5976 9.96765C23.1942 9.96765 22.8672 10.2947 22.8672 10.6981V12.159C22.8672 12.5624 23.1942 12.8894 23.5976 12.8894C24.001 12.8894 24.3281 12.5624 24.3281 12.159V10.6981Z" fill="url(#paint17_linear_673_1245)"/>
<path d="M24.3281 10.6981C24.3281 10.2947 24.001 9.96765 23.5976 9.96765C23.1942 9.96765 22.8672 10.2947 22.8672 10.6981V12.159C22.8672 12.5624 23.1942 12.8894 23.5976 12.8894C24.001 12.8894 24.3281 12.5624 24.3281 12.159V10.6981Z" fill="url(#paint18_linear_673_1245)"/>
<path d="M30.1327 10.6981C30.1327 10.2947 29.8057 9.96765 29.4023 9.96765C28.9989 9.96765 28.6719 10.2947 28.6719 10.6981V12.159C28.6719 12.5624 28.9989 12.8894 29.4023 12.8894C29.8057 12.8894 30.1327 12.5624 30.1327 12.159V10.6981Z" fill="url(#paint19_linear_673_1245)"/>
<path d="M30.1327 10.6981C30.1327 10.2947 29.8057 9.96765 29.4023 9.96765C28.9989 9.96765 28.6719 10.2947 28.6719 10.6981V12.159C28.6719 12.5624 28.9989 12.8894 29.4023 12.8894C29.8057 12.8894 30.1327 12.5624 30.1327 12.159V10.6981Z" fill="url(#paint20_linear_673_1245)"/>
<g filter="url(#filter10_f_673_1245)">
<path d="M27.7853 13.2662H24.7706C24.1735 13.2662 23.6895 13.7503 23.6895 14.3474V14.5275C23.6895 15.1246 24.1735 15.6087 24.7706 15.6087H27.7853C28.3824 15.6087 28.8665 15.1246 28.8665 14.5275V14.3474C28.8665 13.7503 28.3824 13.2662 27.7853 13.2662Z" fill="#BB6F89"/>
</g>
<path d="M27.7859 12.875H25.21C24.6129 12.875 24.1289 13.359 24.1289 13.9561C24.1289 14.5532 24.6129 15.0373 25.21 15.0373H27.7859C28.383 15.0373 28.8671 14.5532 28.8671 13.9561C28.8671 13.359 28.383 12.875 27.7859 12.875Z" fill="url(#paint21_linear_673_1245)"/>
<path d="M27.7859 12.875H25.21C24.6129 12.875 24.1289 13.359 24.1289 13.9561C24.1289 14.5532 24.6129 15.0373 25.21 15.0373H27.7859C28.383 15.0373 28.8671 14.5532 28.8671 13.9561C28.8671 13.359 28.383 12.875 27.7859 12.875Z" fill="url(#paint22_linear_673_1245)"/>
<path d="M25.0937 14.8405C25.3676 14.8405 25.5897 14.6184 25.5897 14.3445C25.5897 14.0706 25.3676 13.8485 25.0937 13.8485C24.8197 13.8485 24.5977 14.0706 24.5977 14.3445C24.5977 14.6184 24.8197 14.8405 25.0937 14.8405Z" fill="url(#paint23_radial_673_1245)"/>
<path d="M27.8046 14.8405C28.0785 14.8405 28.3006 14.6184 28.3006 14.3445C28.3006 14.0706 28.0785 13.8485 27.8046 13.8485C27.5307 13.8485 27.3086 14.0706 27.3086 14.3445C27.3086 14.6184 27.5307 14.8405 27.8046 14.8405Z" fill="url(#paint24_radial_673_1245)"/>
<g filter="url(#filter11_f_673_1245)">
<path d="M27.7051 13.4706C28.0383 13.4028 28.4995 13.6528 28.5527 14.1594" stroke="url(#paint25_linear_673_1245)" stroke-width="0.0484375"/>
</g>
<g filter="url(#filter12_f_673_1245)">
<path d="M29.6013 10.8513C29.7532 10.8513 29.8764 10.7281 29.8764 10.5762C29.8764 10.4242 29.7532 10.301 29.6013 10.301C29.4493 10.301 29.3262 10.4242 29.3262 10.5762C29.3262 10.7281 29.4493 10.8513 29.6013 10.8513Z" fill="#795D72"/>
</g>
<g filter="url(#filter13_f_673_1245)">
<path d="M23.8552 10.9907C24.0071 10.9907 24.1303 10.8675 24.1303 10.7156C24.1303 10.5636 24.0071 10.4404 23.8552 10.4404C23.7033 10.4404 23.5801 10.5636 23.5801 10.7156C23.5801 10.8675 23.7033 10.9907 23.8552 10.9907Z" fill="#795D72"/>
</g>
</g>
<defs>
<filter id="filter0_f_673_1245" x="36.3703" y="8.38105" width="4.60117" height="9.45798" filterUnits="userSpaceOnUse" color-interpolation-filters="sRGB">
<feFlood flood-opacity="0" result="BackgroundImageFix"/>
<feBlend mode="normal" in="SourceGraphic" in2="BackgroundImageFix" result="shape"/>
<feGaussianBlur stdDeviation="0.19375" result="effect1_foregroundBlur_673_1245"/>
</filter>
<filter id="filter1_f_673_1245" x="27.9531" y="2.22693" width="11.4648" height="14.6177" filterUnits="userSpaceOnUse" color-interpolation-filters="sRGB">
<feFlood flood-opacity="0" result="BackgroundImageFix"/>
<feBlend mode="normal" in="SourceGraphic" in2="BackgroundImageFix" result="shape"/>
<feGaussianBlur stdDeviation="1.69531" result="effect1_foregroundBlur_673_1245"/>
</filter>
<filter id="filter2_f_673_1245" x="19.9238" y="-0.0123293" width="12.7168" height="7.52918" filterUnits="userSpaceOnUse" color-interpolation-filters="sRGB">
<feFlood flood-opacity="0" result="BackgroundImageFix"/>
<feBlend mode="normal" in="SourceGraphic" in2="BackgroundImageFix" result="shape"/>
<feGaussianBlur stdDeviation="1.69531" result="effect1_foregroundBlur_673_1245"/>
</filter>
<filter id="filter3_f_673_1245" x="15.959" y="3.92468" width="20.4609" height="20.4651" filterUnits="userSpaceOnUse" color-interpolation-filters="sRGB">
<feFlood flood-opacity="0" result="BackgroundImageFix"/>
<feBlend mode="normal" in="SourceGraphic" in2="BackgroundImageFix" result="shape"/>
<feGaussianBlur stdDeviation="0.96875" result="effect1_foregroundBlur_673_1245"/>
</filter>
<filter id="filter4_f_673_1245" x="14.6984" y="6.71162" width="2.92734" height="13.301" filterUnits="userSpaceOnUse" color-interpolation-filters="sRGB">
<feFlood flood-opacity="0" result="BackgroundImageFix"/>
<feBlend mode="normal" in="SourceGraphic" in2="BackgroundImageFix" result="shape"/>
<feGaussianBlur stdDeviation="0.19375" result="effect1_foregroundBlur_673_1245"/>
</filter>
<filter id="filter5_f_673_1245" x="35.7707" y="8.96882" width="2.4" height="10.8501" filterUnits="userSpaceOnUse" color-interpolation-filters="sRGB">
<feFlood flood-opacity="0" result="BackgroundImageFix"/>
<feBlend mode="normal" in="SourceGraphic" in2="BackgroundImageFix" result="shape"/>
<feGaussianBlur stdDeviation="0.19375" result="effect1_foregroundBlur_673_1245"/>
</filter>
<filter id="filter6_f_673_1245" x="31.1691" y="5.63716" width="3.89414" height="6.86277" filterUnits="userSpaceOnUse" color-interpolation-filters="sRGB">
<feFlood flood-opacity="0" result="BackgroundImageFix"/>
<feBlend mode="normal" in="SourceGraphic" in2="BackgroundImageFix" result="shape"/>
<feGaussianBlur stdDeviation="0.19375" result="effect1_foregroundBlur_673_1245"/>
</filter>
<filter id="filter7_f_673_1245" x="31.3137" y="13.2846" width="2.53672" height="6.71445" filterUnits="userSpaceOnUse" color-interpolation-filters="sRGB">
<feFlood flood-opacity="0" result="BackgroundImageFix"/>
<feBlend mode="normal" in="SourceGraphic" in2="BackgroundImageFix" result="shape"/>
<feGaussianBlur stdDeviation="0.19375" result="effect1_foregroundBlur_673_1245"/>
</filter>
<filter id="filter8_f_673_1245" x="21.3477" y="9.14905" width="3.51172" height="5.08594" filterUnits="userSpaceOnUse" color-interpolation-filters="sRGB">
<feFlood flood-opacity="0" result="BackgroundImageFix"/>
<feBlend mode="normal" in="SourceGraphic" in2="BackgroundImageFix" result="shape"/>
<feGaussianBlur stdDeviation="0.484375" result="effect1_foregroundBlur_673_1245"/>
</filter>
<filter id="filter9_f_673_1245" x="27.3301" y="9.14905" width="3.51172" height="5.08594" filterUnits="userSpaceOnUse" color-interpolation-filters="sRGB">
<feFlood flood-opacity="0" result="BackgroundImageFix"/>
<feBlend mode="normal" in="SourceGraphic" in2="BackgroundImageFix" result="shape"/>
<feGaussianBlur stdDeviation="0.484375" result="effect1_foregroundBlur_673_1245"/>
</filter>
<filter id="filter10_f_673_1245" x="22.7207" y="12.2975" width="7.11523" height="4.27991" filterUnits="userSpaceOnUse" color-interpolation-filters="sRGB">
<feFlood flood-opacity="0" result="BackgroundImageFix"/>
<feBlend mode="normal" in="SourceGraphic" in2="BackgroundImageFix" result="shape"/>
<feGaussianBlur stdDeviation="0.484375" result="effect1_foregroundBlur_673_1245"/>
</filter>
<filter id="filter11_f_673_1245" x="27.5074" y="13.2418" width="1.2625" height="1.11394" filterUnits="userSpaceOnUse" color-interpolation-filters="sRGB">
<feFlood flood-opacity="0" result="BackgroundImageFix"/>
<feBlend mode="normal" in="SourceGraphic" in2="BackgroundImageFix" result="shape"/>
<feGaussianBlur stdDeviation="0.096875" result="effect1_foregroundBlur_673_1245"/>
</filter>
<filter id="filter12_f_673_1245" x="28.3574" y="9.33228" width="2.48828" height="2.48779" filterUnits="userSpaceOnUse" color-interpolation-filters="sRGB">
<feFlood flood-opacity="0" result="BackgroundImageFix"/>
<feBlend mode="normal" in="SourceGraphic" in2="BackgroundImageFix" result="shape"/>
<feGaussianBlur stdDeviation="0.484375" result="effect1_foregroundBlur_673_1245"/>
</filter>
<filter id="filter13_f_673_1245" x="22.6113" y="9.47168" width="2.48828" height="2.48779" filterUnits="userSpaceOnUse" color-interpolation-filters="sRGB">
<feFlood flood-opacity="0" result="BackgroundImageFix"/>
<feBlend mode="normal" in="SourceGraphic" in2="BackgroundImageFix" result="shape"/>
<feGaussianBlur stdDeviation="0.484375" result="effect1_foregroundBlur_673_1245"/>
</filter>
<linearGradient id="paint0_linear_673_1245" x1="17.3116" y1="9.79248" x2="17.3116" y2="20.3887" gradientUnits="userSpaceOnUse">
<stop stop-color="#A67874"/>
<stop offset="1" stop-color="#8F5872"/>
</linearGradient>
<linearGradient id="paint1_linear_673_1245" x1="17.3116" y1="12.9409" x2="17.3116" y2="20.873" gradientUnits="userSpaceOnUse">
<stop stop-color="#B56595" stop-opacity="0"/>
<stop offset="1" stop-color="#CA6FA6"/>
</linearGradient>
<radialGradient id="paint2_radial_673_1245" cx="0" cy="0" r="1" gradientUnits="userSpaceOnUse" gradientTransform="translate(21.0597 19.3589) rotate(-135.32) scale(15.3274 18.2947)">
<stop offset="0.632" stop-color="#F39585" stop-opacity="0"/>
<stop offset="1" stop-color="#F39585"/>
</radialGradient>
<linearGradient id="paint3_linear_673_1245" x1="35.6378" y1="10.9434" x2="35.6378" y2="20.873" gradientUnits="userSpaceOnUse">
<stop offset="0.094" stop-color="#FAB8A9"/>
<stop offset="1" stop-color="#B56595"/>
</linearGradient>
<radialGradient id="paint4_radial_673_1245" cx="0" cy="0" r="1" gradientUnits="userSpaceOnUse" gradientTransform="translate(39.1148 16.907) rotate(-131.065) scale(8.11079 17.0861)">
<stop stop-color="#FFDACC" stop-opacity="0"/>
<stop offset="0.448" stop-color="#FFDACC"/>
<stop offset="1" stop-color="#FFDACC" stop-opacity="0"/>
</radialGradient>
<radialGradient id="paint5_radial_673_1245" cx="0" cy="0" r="1" gradientUnits="userSpaceOnUse" gradientTransform="translate(34.5013 7.61261) rotate(120.705) scale(20.7505 36.7739)">
<stop stop-color="#A06857"/>
<stop offset="1" stop-color="#5B3838"/>
</radialGradient>
<linearGradient id="paint6_linear_673_1245" x1="26.4994" y1="13.8804" x2="26.4994" y2="30.2106" gradientUnits="userSpaceOnUse">
<stop stop-color="#682B5B" stop-opacity="0"/>
<stop offset="1" stop-color="#682B5B"/>
</linearGradient>
<radialGradient id="paint7_radial_673_1245" cx="0" cy="0" r="1" gradientUnits="userSpaceOnUse" gradientTransform="translate(26.4994 10.9877) rotate(90) scale(20.0265 17.8842)">
<stop offset="0.688" stop-color="#FF7AF2" stop-opacity="0"/>
<stop offset="1" stop-color="#FFBCE6"/>
</radialGradient>
<radialGradient id="paint8_radial_673_1245" cx="0" cy="0" r="1" gradientUnits="userSpaceOnUse" gradientTransform="translate(33.7579 6.49075) rotate(123.75) scale(18.453)">
<stop stop-color="#A9705E"/>
<stop offset="1" stop-color="#A9705E" stop-opacity="0"/>
</radialGradient>
<linearGradient id="paint9_linear_673_1245" x1="26.4992" y1="5.6228" x2="26.4992" y2="23.1058" gradientUnits="userSpaceOnUse">
<stop stop-color="#FFC8BC"/>
<stop offset="0.188" stop-color="#FAB8A9"/>
<stop offset="0.895" stop-color="#AC628E"/>
</linearGradient>
<radialGradient id="paint10_radial_673_1245" cx="0" cy="0" r="1" gradientUnits="userSpaceOnUse" gradientTransform="translate(35.5138 8.93796) rotate(159.382) scale(19.6012 26.2977)">
<stop offset="0.818" stop-color="#A55F89" stop-opacity="0"/>
<stop offset="1" stop-color="#A55F89"/>
</radialGradient>
<radialGradient id="paint11_radial_673_1245" cx="0" cy="0" r="1" gradientUnits="userSpaceOnUse" gradientTransform="translate(26.4992 11.9148) rotate(90.0031) scale(12.3069 10.5074)">
<stop offset="0.813" stop-color="#EF5CF2" stop-opacity="0"/>
<stop offset="1" stop-color="#FF63C4"/>
</radialGradient>
<linearGradient id="paint12_linear_673_1245" x1="17.4388" y1="19.847" x2="15.0528" y2="7.57291" gradientUnits="userSpaceOnUse">
<stop stop-color="#7C6160" stop-opacity="0"/>
<stop offset="0.503" stop-color="#7C6160"/>
<stop offset="1" stop-color="#7C6160" stop-opacity="0"/>
</linearGradient>
<linearGradient id="paint13_linear_673_1245" x1="35.1968" y1="19.2377" x2="38.385" y2="11.5448" gradientUnits="userSpaceOnUse">
<stop stop-color="#BE8B89" stop-opacity="0"/>
<stop offset="0.296" stop-color="#BE8B89" stop-opacity="0.6"/>
<stop offset="0.808" stop-color="#BE8B89" stop-opacity="0"/>
</linearGradient>
<linearGradient id="paint14_linear_673_1245" x1="34.7609" y1="11.3684" x2="31.2618" y2="6.11969" gradientUnits="userSpaceOnUse">
<stop stop-color="#FFDACC" stop-opacity="0"/>
<stop offset="0.557" stop-color="#FFDACC"/>
<stop offset="1" stop-color="#FFDACC" stop-opacity="0"/>
</linearGradient>
<linearGradient id="paint15_linear_673_1245" x1="33.0549" y1="18.9993" x2="32.3962" y2="15.0526" gradientUnits="userSpaceOnUse">
<stop offset="0.026" stop-color="#FFDACC" stop-opacity="0"/>
<stop offset="1" stop-color="#FFDACC"/>
</linearGradient>
<radialGradient id="paint16_radial_673_1245" cx="0" cy="0" r="1" gradientUnits="userSpaceOnUse" gradientTransform="translate(27.1326 21.4154) rotate(-90) scale(8.7874 17.1176)">
<stop stop-color="#EF0084"/>
<stop offset="0.548" stop-color="#89029C"/>
</radialGradient>
<linearGradient id="paint17_linear_673_1245" x1="26.3566" y1="11.0265" x2="22.1464" y2="11.0265" gradientUnits="userSpaceOnUse">
<stop stop-color="#432A3D"/>
<stop offset="0.568" stop-color="#684E61"/>
<stop offset="0.766" stop-color="#43253D"/>
</linearGradient>
<linearGradient id="paint18_linear_673_1245" x1="23.928" y1="10.8715" x2="23.928" y2="13.1539" gradientUnits="userSpaceOnUse">
<stop offset="0.327" stop-color="#43253D" stop-opacity="0"/>
<stop offset="1" stop-color="#43253D"/>
</linearGradient>
<linearGradient id="paint19_linear_673_1245" x1="32.1613" y1="11.0265" x2="27.9511" y2="11.0265" gradientUnits="userSpaceOnUse">
<stop stop-color="#432A3D"/>
<stop offset="0.568" stop-color="#684E61"/>
<stop offset="0.766" stop-color="#43253D"/>
</linearGradient>
<linearGradient id="paint20_linear_673_1245" x1="29.7317" y1="10.8715" x2="29.7317" y2="13.1539" gradientUnits="userSpaceOnUse">
<stop offset="0.327" stop-color="#43253D" stop-opacity="0"/>
<stop offset="1" stop-color="#43253D"/>
</linearGradient>
<linearGradient id="paint21_linear_673_1245" x1="26.4975" y1="12.875" x2="26.4975" y2="14.9472" gradientUnits="userSpaceOnUse">
<stop stop-color="#E9A4A2"/>
<stop offset="1" stop-color="#DC89A8"/>
</linearGradient>
<linearGradient id="paint22_linear_673_1245" x1="26.0063" y1="17.6568" x2="25.2895" y2="14.1538" gradientUnits="userSpaceOnUse">
<stop offset="0.07" stop-color="#C971B6"/>
<stop offset="1" stop-color="#DC90CC" stop-opacity="0"/>
</linearGradient>
<radialGradient id="paint23_radial_673_1245" cx="0" cy="0" r="1" gradientUnits="userSpaceOnUse" gradientTransform="translate(25.4383 13.9959) rotate(133.174) scale(1.84364 1.1084)">
<stop stop-color="#3E2739"/>
<stop offset="1" stop-color="#684E61"/>
</radialGradient>
<radialGradient id="paint24_radial_673_1245" cx="0" cy="0" r="1" gradientUnits="userSpaceOnUse" gradientTransform="translate(28.0584 13.9958) rotate(129.408) scale(1.18111 1.84807)">
<stop stop-color="#3C2737"/>
<stop offset="1" stop-color="#684E61"/>
</radialGradient>
<linearGradient id="paint25_linear_673_1245" x1="28.1284" y1="13.46" x2="28.1284" y2="14.1594" gradientUnits="userSpaceOnUse">
<stop stop-color="#FFDACC" stop-opacity="0"/>
<stop offset="0.349" stop-color="#FFEBE3"/>
</linearGradient>
<clipPath id="clip0_673_1245">
<rect width="122" height="28" fill="white"/>
</clipPath>
</defs>
</svg>
