<svg width="396" height="395" viewBox="0 0 396 395" fill="none" xmlns="http://www.w3.org/2000/svg">
<g clip-path="url(#clip0_1079_70)">
<circle cx="197.867" cy="197.867" r="196.402" transform="rotate(-90.3106 197.867 197.867)" fill="#FCF200"/>
<path d="M276.002 139.105C279.245 143.431 280.495 149.161 279.705 156.075C278.914 163.007 276.08 170.981 271.348 179.509C261.888 196.559 245.069 215.406 223.077 231.891C201.086 248.375 178.278 259.231 159.258 263.529C149.744 265.679 141.296 266.162 134.42 264.977C127.562 263.795 122.413 260.988 119.171 256.663C115.928 252.337 114.678 246.607 115.468 239.693C116.259 232.761 119.093 224.787 123.825 216.259C133.286 199.208 150.104 180.361 172.096 163.877C194.087 147.392 216.896 136.536 235.916 132.238C245.429 130.088 253.877 129.606 260.753 130.791C267.611 131.972 272.76 134.779 276.002 139.105Z" fill="white" stroke="black" stroke-width="5"/>
<circle cx="180.681" cy="218.679" r="34.5" transform="rotate(-36.8544 180.681 218.679)" fill="black"/>
<circle cx="180.177" cy="232.179" r="8" transform="rotate(-36.8544 180.177 232.179)" fill="white"/>
<circle cx="228.16" cy="354.1" r="8.06127" transform="rotate(-59.7478 228.16 354.1)" fill="#1E1E1E"/>
<path d="M163.009 351.21L164.891 351.636C164.873 352.369 164.98 353.074 165.212 353.751C165.437 354.433 165.772 355.059 166.218 355.63C166.664 356.201 167.206 356.689 167.844 357.093C168.482 357.497 169.205 357.79 170.013 357.973C171.307 358.266 172.565 358.197 173.785 357.765C174.999 357.331 176.074 356.532 177.011 355.369C177.939 354.212 178.618 352.688 179.045 350.8C179.476 348.898 179.521 347.224 179.182 345.78C178.836 344.333 178.209 343.153 177.3 342.239C176.383 341.33 175.278 340.728 173.983 340.435C173.176 340.253 172.397 340.206 171.647 340.296C170.897 340.386 170.199 340.589 169.552 340.905C168.903 341.229 168.331 341.65 167.834 342.169C167.331 342.686 166.931 343.279 166.632 343.948L164.75 343.522C165.13 342.619 165.642 341.813 166.287 341.103C166.923 340.398 167.664 339.822 168.509 339.375C169.347 338.926 170.262 338.635 171.253 338.502C172.245 338.369 173.288 338.426 174.382 338.674C176.104 339.063 177.535 339.84 178.674 341.003C179.813 342.173 180.584 343.631 180.988 345.378C181.386 347.124 181.342 349.068 180.857 351.21C180.372 353.352 179.574 355.125 178.463 356.53C177.346 357.932 176.023 358.913 174.493 359.472C172.962 360.037 171.336 360.125 169.614 359.735C168.519 359.487 167.553 359.09 166.716 358.542C165.878 358.002 165.177 357.345 164.616 356.573C164.046 355.805 163.625 354.966 163.354 354.056C163.077 353.144 162.962 352.196 163.009 351.21Z" fill="#1E1E1E"/>
<path d="M117.351 327.462C118.487 325.59 119.809 324.164 121.318 323.182C122.822 322.206 124.39 321.693 126.022 321.643C127.644 321.595 129.212 322.031 130.727 322.95C132.242 323.87 133.356 325.062 134.067 326.526C134.77 327.993 135.036 329.619 134.865 331.404C134.684 333.192 134.026 335.022 132.89 336.893C131.754 338.765 130.436 340.191 128.937 341.17C127.429 342.151 125.861 342.664 124.233 342.709C122.602 342.759 121.032 342.327 119.523 341.411C118.008 340.491 116.899 339.298 116.196 337.831C115.485 336.366 115.216 334.739 115.391 332.948C115.562 331.162 116.215 329.334 117.351 327.462ZM118.948 328.431C117.972 330.04 117.405 331.581 117.247 333.054C117.086 334.533 117.286 335.859 117.846 337.031C118.407 338.204 119.278 339.149 120.46 339.866C121.636 340.58 122.873 340.915 124.172 340.871C125.472 340.827 126.741 340.397 127.981 339.581C129.215 338.761 130.322 337.544 131.302 335.929C132.278 334.321 132.845 332.78 133.003 331.307C133.16 329.834 132.961 328.508 132.403 327.329C131.843 326.157 130.971 325.212 129.79 324.494C128.608 323.777 127.368 323.441 126.069 323.484C124.764 323.525 123.494 323.955 122.26 324.775C121.022 325.6 119.918 326.819 118.948 328.431Z" fill="#1E1E1E"/>
<path d="M99.3555 300.586L83.3114 314.166L82.0714 312.701L96.7994 300.235L90.3276 292.589L91.6438 291.475L99.3555 300.586Z" fill="#1E1E1E"/>
<path d="M71.6628 263.025L52.1388 270.813L51.4277 269.03L69.3501 261.881L65.6388 252.577L67.2403 251.938L71.6628 263.025Z" fill="#1E1E1E"/>
<path d="M57.3182 218.618L36.3321 219.809L35.6415 207.635L37.363 207.538L37.9449 217.795L45.8454 217.347L45.3001 207.735L47.0216 207.637L47.5669 217.249L55.4879 216.8L54.8944 206.337L56.6159 206.24L57.3182 218.618Z" fill="#1E1E1E"/>
<path d="M48.1933 152.271L47.6857 154.133C46.9547 154.082 46.246 154.158 45.5595 154.361C44.8681 154.556 44.2275 154.863 43.6376 155.284C43.0477 155.705 42.5371 156.225 42.1056 156.845C41.6742 157.465 41.3495 158.174 41.1317 158.973C40.7825 160.254 40.7973 161.513 41.176 162.751C41.5566 163.983 42.3074 165.092 43.4285 166.078C44.5447 167.056 46.037 167.8 47.9051 168.309C49.7865 168.822 51.4564 168.941 52.9146 168.665C54.3747 168.382 55.5812 167.807 56.5342 166.939C57.4823 166.063 58.131 164.984 58.4802 163.704C58.698 162.905 58.7783 162.129 58.7213 161.376C58.6642 160.623 58.4917 159.916 58.2036 159.256C57.9089 158.594 57.5131 158.004 57.0162 157.485C56.521 156.96 55.9458 156.534 55.2905 156.206L55.7981 154.345C56.6839 154.763 57.4673 155.31 58.1485 155.985C58.8249 156.652 59.368 157.417 59.7779 158.281C60.1897 159.138 60.4406 160.064 60.5306 161.061C60.6207 162.057 60.5181 163.096 60.2229 164.179C59.7585 165.882 58.9205 167.278 57.709 168.366C56.4908 169.452 55.0001 170.159 53.237 170.487C51.4757 170.808 49.5355 170.679 47.4164 170.102C45.2974 169.524 43.5606 168.65 42.2061 167.479C40.8534 166.301 39.9312 164.937 39.4396 163.384C38.9415 161.83 38.9246 160.201 39.389 158.498C39.6842 157.415 40.1234 156.468 40.7067 155.655C41.2834 154.841 41.9699 154.17 42.7662 153.642C43.5577 153.106 44.4141 152.723 45.3352 152.492C46.2582 152.254 47.2109 152.18 48.1933 152.271Z" fill="#1E1E1E"/>
<path d="M56.3216 118.195L54.8879 117.237L63.3559 104.565L64.7895 105.523L61.0887 111.061L77.1321 121.781L76.0658 123.377L60.0224 112.657L56.3216 118.195Z" fill="#1E1E1E"/>
<path d="M90.189 73.0887L103.058 89.7089L101.54 90.884L88.6714 74.2637L90.189 73.0887Z" fill="#1E1E1E"/>
<path d="M153.075 49.2488C153.797 51.316 154.057 53.2436 153.855 55.0318C153.651 56.8135 153.05 58.3498 152.051 59.6408C151.056 60.923 149.723 61.8563 148.05 62.4405C146.377 63.0248 144.748 63.1259 143.166 62.7438C141.587 62.3529 140.163 61.5238 138.894 60.2565C137.63 58.9804 136.636 57.3088 135.914 55.2417C135.192 53.1746 134.93 51.2513 135.128 49.4718C135.33 47.6837 135.931 46.1474 136.932 44.8629C137.931 43.5719 139.263 42.6354 140.93 42.0534C142.603 41.4691 144.229 41.3724 145.808 41.7632C147.391 42.1454 148.818 42.9733 150.089 44.2471C151.358 45.5145 152.353 47.1817 153.075 49.2488ZM151.311 49.8647C150.691 48.0883 149.863 46.6708 148.826 45.6122C147.787 44.5471 146.637 43.8581 145.375 43.5449C144.114 43.2318 142.83 43.3031 141.526 43.7588C140.227 44.2122 139.182 44.9542 138.389 45.9847C137.597 47.0152 137.121 48.2684 136.962 49.7443C136.81 51.218 137.046 52.8463 137.668 54.6292C138.289 56.4057 139.117 57.8232 140.153 58.8817C141.19 59.9403 142.34 60.6294 143.604 60.949C144.866 61.2621 146.149 61.1908 147.454 60.7351C148.759 60.2795 149.808 59.5364 150.6 58.5058C151.399 57.4731 151.875 56.2199 152.027 54.7462C152.177 53.2661 151.938 51.6389 151.311 49.8647Z" fill="#1E1E1E"/>
<path d="M201.354 31.223L201.629 52.241L199.761 52.2655L187.113 34.8278L186.948 34.8299L187.179 52.4305L185.26 52.4556L184.985 31.4376L186.842 31.4132L199.532 48.8709L199.696 48.8688L199.465 31.2477L201.354 31.223Z" fill="#1E1E1E"/>
<path d="M247.533 43.4379C247.779 42.2881 247.571 41.2444 246.908 40.3067C246.246 39.369 245.253 38.6885 243.93 38.2651C242.998 37.9668 242.126 37.8636 241.314 37.9556C240.508 38.0497 239.812 38.3155 239.226 38.7532C238.649 39.1864 238.246 39.7614 238.017 40.4782C237.848 41.0061 237.814 41.5053 237.915 41.9758C238.016 42.4463 238.212 42.8865 238.505 43.2963C238.806 43.7017 239.159 44.0804 239.564 44.4326C239.975 44.7869 240.4 45.1096 240.838 45.4008L242.756 46.6827C243.338 47.063 243.905 47.4923 244.456 47.9704C245.007 48.4485 245.479 48.9805 245.874 49.5666C246.277 50.1482 246.542 50.7898 246.669 51.4916C246.805 52.1889 246.74 52.9546 246.473 53.7887C246.131 54.8575 245.546 55.7301 244.719 56.4065C243.892 57.0829 242.88 57.5061 241.683 57.6763C240.488 57.8399 239.168 57.6902 237.721 57.2272C236.359 56.7913 235.248 56.1879 234.389 55.417C233.531 54.6396 232.944 53.7584 232.627 52.7733C232.31 51.7882 232.285 50.7563 232.551 49.6776L234.428 50.2783C234.24 51.0877 234.287 51.8391 234.568 52.5325C234.849 53.2259 235.309 53.8328 235.947 54.3532C236.587 54.867 237.357 55.2678 238.256 55.5556C239.253 55.8748 240.193 55.9923 241.074 55.9081C241.965 55.8195 242.728 55.5464 243.363 55.0887C244.006 54.6265 244.456 53.9947 244.713 53.1931C244.93 52.5154 244.935 51.8921 244.729 51.3233C244.526 50.748 244.158 50.2028 243.626 49.6877C243.1 49.1746 242.462 48.6651 241.712 48.1591L239.542 46.6888C238.122 45.7169 237.111 44.6784 236.509 43.5734C235.907 42.4684 235.812 41.274 236.223 39.9902C236.567 38.9149 237.156 38.0617 237.99 37.4307C238.833 36.7952 239.819 36.4069 240.949 36.2656C242.088 36.12 243.273 36.2443 244.505 36.6385C245.749 37.0369 246.778 37.6174 247.59 38.3802C248.402 39.143 248.96 40.0149 249.263 40.9958C249.576 41.9723 249.589 42.9751 249.303 44.0042L247.533 43.4379Z" fill="#1E1E1E"/>
</g>
<defs>
<clipPath id="clip0_1079_70">
<rect width="396" height="395" fill="white"/>
</clipPath>
</defs>
</svg>
