<svg width="21" height="24" viewBox="0 0 21 24" fill="none" xmlns="http://www.w3.org/2000/svg">
<path d="M17.0103 11.7966C18.5109 11.8996 19.7135 10.9307 20.0238 9.59477C19.4798 8.82402 18.3391 8.458 17.3328 9.0966C16.4282 9.73714 16.1814 10.857 17.0103 11.7966ZM12.9476 1.36146L7.51639 4.36115L8.77233 5.02011L14.1989 2.02955L12.9476 1.36146ZM7.79424 9.61202L13.1003 21.7199L14.5168 22.5901L8.58407 5.40584L7.1709 4.64816L1.52167 15.3073L2.55254 15.8858L7.42229 9.56731C7.52881 9.44802 7.70702 9.44416 7.79424 9.61206M17.2702 12.491C15.7271 11.6416 15.7271 9.50642 17.2702 8.657C18.8133 7.80759 20.7526 8.87509 20.7526 10.574C20.7526 12.2729 18.8133 13.3405 17.2702 12.491ZM19.0231 14.0885L21 19.852L14.9632 23.3533L12.7416 21.9744L8.7632 12.9045L2.60703 16.3727L0.957031 15.4448L6.92705 4.21584L12.9391 0.890625L14.8126 1.89693L16.7097 7.44336C13.0437 9.46456 14.8861 14.589 19.0231 14.0884" fill="white"/>
</svg>
