<svg width="33" height="32" viewBox="0 0 33 32">
<path fill="currentColor" d="M20.0355 11.0501L21.4497 12.4643L20.7426 13.1714L21.4497 13.8785L20.7426 14.5856L21.4497 15.2927L20.7426 15.9999L21.4497 16.707L20.7426 17.4141L21.4497 18.1212L20.0355 19.5354L18.6212 18.1212L19.3284 17.4141L18.6212 16.707L19.3284 15.9999L18.6212 15.2927L12.2573 21.6567L10.8431 20.2425L17.207 13.8785L16.4999 13.1714L15.7928 13.8785L15.0857 13.1714L14.3786 13.8785L12.9644 12.4643L14.3786 11.0501L15.0857 11.7572L15.7928 11.0501L16.4999 11.7572L17.207 11.0501L17.9141 11.7572L18.6212 11.0501L19.3284 11.7572" fill="black"/>
</svg>
