<svg width="24" height="24" viewBox="0 0 24 24" fill="none" xmlns="http://www.w3.org/2000/svg">
<rect width="24" height="24" rx="1" fill="#6772E5"/>
<path d="M1 4.38462C1 2.51534 2.51534 1 4.38462 1H19.6154C21.4847 1 23 2.51534 23 4.38462V19.6154C23 21.4847 21.4847 23 19.6154 23H4.38462C2.51534 23 1 21.4847 1 19.6154V4.38462Z" fill="#6772E5"/>
<path d="M12.7237 8.41149C11.9467 8.41149 11.4776 8.63143 11.4776 9.20301C11.4776 10.8447 17.0623 10.0679 17.0769 14.4359C17.0769 17.0597 14.9808 18.5693 11.932 18.5693C10.6715 18.5693 9.29363 18.3202 7.93042 17.7339V14.2454C9.16171 14.9196 10.7155 15.418 11.932 15.418C12.7529 15.418 13.3392 15.1981 13.3392 14.5239C13.3392 12.7796 7.76923 13.4245 7.76923 9.37904C7.76923 6.78454 9.74803 5.23077 12.7237 5.23077C13.9402 5.23077 15.1421 5.42133 16.3587 5.90501V9.34967C15.2447 8.74871 13.8376 8.41149 12.7237 8.41149Z" fill="white"/>
</svg>
