<svg width="70" height="70" viewBox="0 0 70 70" fill="none" xmlns="http://www.w3.org/2000/svg">
<rect width="70" height="70" rx="35" fill="#FFF7EA"/>
<path d="M23.5659 33.6218C23.5659 34.2803 23.6371 34.8142 23.7616 35.2058C23.904 35.5973 24.082 36.0245 24.3312 36.4872C24.4202 36.6296 24.4558 36.772 24.4558 36.8966C24.4558 37.0745 24.349 37.2525 24.1176 37.4305L22.9964 38.178C22.8362 38.2848 22.676 38.3382 22.5336 38.3382C22.3556 38.3382 22.1777 38.2492 21.9997 38.089C21.7505 37.822 21.537 37.5373 21.359 37.2525C21.181 36.9499 21.003 36.6118 20.8073 36.2024C19.419 37.8398 17.6749 38.6585 15.5748 38.6585C14.0798 38.6585 12.8873 38.2314 12.0153 37.3771C11.1432 36.5228 10.6982 35.3838 10.6982 33.96C10.6982 32.4472 11.2322 31.2191 12.3178 30.2937C13.4035 29.3682 14.8451 28.9055 16.6782 28.9055C17.2833 28.9055 17.9063 28.9588 18.5648 29.0478C19.2233 29.1368 19.8996 29.2792 20.6115 29.4394V28.1402C20.6115 26.7875 20.3267 25.8443 19.775 25.2925C19.2055 24.7408 18.2444 24.4739 16.874 24.4739C16.2511 24.4739 15.6104 24.545 14.9519 24.7052C14.2933 24.8654 13.6526 25.0612 13.0297 25.3103C12.745 25.4349 12.5314 25.5061 12.4068 25.5417C12.2822 25.5773 12.1932 25.5951 12.122 25.5951C11.8729 25.5951 11.7483 25.4171 11.7483 25.0434V24.1713C11.7483 23.8865 11.7839 23.673 11.8729 23.5484C11.9619 23.4238 12.122 23.2992 12.3712 23.1746C12.9941 22.8543 13.7416 22.5873 14.6137 22.3737C15.4858 22.1424 16.4113 22.0356 17.3901 22.0356C19.508 22.0356 21.0564 22.5161 22.0531 23.4772C23.0319 24.4383 23.5303 25.8977 23.5303 27.8554V33.6218H23.5659ZM16.3401 36.327C16.9274 36.327 17.5325 36.2202 18.1732 36.0067C18.8139 35.7931 19.3834 35.4016 19.864 34.8676C20.1487 34.5295 20.3623 34.1557 20.4691 33.7286C20.5759 33.3014 20.6471 32.7853 20.6471 32.1802V31.4327C20.1309 31.3081 19.5792 31.2013 19.0097 31.1301C18.4402 31.059 17.8885 31.0234 17.3367 31.0234C16.1443 31.0234 15.2722 31.2547 14.6849 31.7353C14.0976 32.2158 13.8128 32.8921 13.8128 33.782C13.8128 34.6185 14.0264 35.2414 14.4713 35.6685C14.8985 36.1135 15.5214 36.327 16.3401 36.327ZM30.6315 38.2492C30.3111 38.2492 30.0976 38.1958 29.9552 38.0712C29.8128 37.9644 29.6882 37.7152 29.5814 37.3771L25.399 23.6196C25.2922 23.2636 25.2388 23.0323 25.2388 22.9077C25.2388 22.6229 25.3812 22.4627 25.666 22.4627H27.4101C27.7483 22.4627 27.9797 22.5161 28.1042 22.6407C28.2466 22.7475 28.3534 22.9967 28.4602 23.3348L31.4502 35.1168L34.2266 23.3348C34.3156 22.9789 34.4224 22.7475 34.5648 22.6407C34.7071 22.5339 34.9563 22.4627 35.2767 22.4627H36.7005C37.0386 22.4627 37.27 22.5161 37.4124 22.6407C37.5547 22.7475 37.6793 22.9967 37.7505 23.3348L40.5625 35.2592L43.6415 23.3348C43.7483 22.9789 43.8729 22.7475 43.9975 22.6407C44.1398 22.5339 44.3712 22.4627 44.6916 22.4627H46.3467C46.6315 22.4627 46.7917 22.6051 46.7917 22.9077C46.7917 22.9967 46.7739 23.0857 46.7561 23.1924C46.7383 23.2992 46.7027 23.4416 46.6315 23.6374L42.3423 37.3949C42.2355 37.7508 42.1109 37.9822 41.9685 38.089C41.8262 38.1958 41.5948 38.267 41.2922 38.267H39.7616C39.4235 38.267 39.1921 38.2136 39.0497 38.089C38.9074 37.9644 38.7828 37.733 38.7116 37.3771L35.953 25.8977L33.2121 37.3593C33.1232 37.7152 33.0164 37.9466 32.874 38.0712C32.7316 38.1958 32.4824 38.2492 32.1621 38.2492H30.6315ZM53.5014 38.7297C52.5759 38.7297 51.6504 38.6229 50.7605 38.4093C49.8707 38.1958 49.1765 37.9644 48.7138 37.6974C48.4291 37.5373 48.2333 37.3593 48.1621 37.1991C48.0909 37.0389 48.0553 36.861 48.0553 36.7008V35.7931C48.0553 35.4194 48.1977 35.2414 48.4646 35.2414C48.5714 35.2414 48.6782 35.2592 48.785 35.2948C48.8918 35.3304 49.052 35.4016 49.2299 35.4727C49.8351 35.7397 50.4936 35.9533 51.1877 36.0957C51.8996 36.238 52.5937 36.3092 53.3056 36.3092C54.4268 36.3092 55.2989 36.1135 55.904 35.7219C56.5091 35.3304 56.8295 34.7608 56.8295 34.0311C56.8295 33.5328 56.6693 33.1235 56.349 32.7853C56.0286 32.4472 55.4235 32.1446 54.5514 31.8598L51.9708 31.059C50.6715 30.6496 49.7105 30.0445 49.1232 29.2436C48.5358 28.4605 48.2333 27.5884 48.2333 26.663C48.2333 25.9155 48.3935 25.257 48.7138 24.6874C49.0342 24.1179 49.4613 23.6196 49.9952 23.228C50.5292 22.8187 51.1343 22.5161 51.8462 22.3026C52.5581 22.089 53.3056 22 54.0887 22C54.4802 22 54.8896 22.0178 55.2811 22.0712C55.6905 22.1246 56.0642 22.1958 56.438 22.267C56.7939 22.356 57.1321 22.4449 57.4524 22.5517C57.7728 22.6585 58.0219 22.7653 58.1999 22.8721C58.4491 23.0145 58.627 23.1568 58.7338 23.317C58.8406 23.4594 58.894 23.6552 58.894 23.9043V24.7408C58.894 25.1146 58.7516 25.3103 58.4847 25.3103C58.3423 25.3103 58.1109 25.2392 57.8084 25.0968C56.7939 24.634 55.6549 24.4027 54.3912 24.4027C53.3768 24.4027 52.5759 24.5628 52.0242 24.901C51.4724 25.2392 51.1877 25.7553 51.1877 26.485C51.1877 26.9833 51.3656 27.4105 51.7216 27.7486C52.0776 28.0868 52.7361 28.4249 53.6793 28.7275L56.2066 29.5284C57.488 29.9377 58.4135 30.5072 58.9652 31.2369C59.5169 31.9666 59.7839 32.8031 59.7839 33.7286C59.7839 34.4939 59.6237 35.188 59.3212 35.7931C59.0008 36.3982 58.5737 36.9321 58.0219 37.3593C57.4702 37.8042 56.8117 38.1246 56.0464 38.356C55.2455 38.6051 54.409 38.7297 53.5014 38.7297Z" fill="#252F3E"/>
<path fill-rule="evenodd" clip-rule="evenodd" d="M56.8648 47.3791C51.0094 51.7039 42.5022 53.9998 35.1874 53.9998C24.936 53.9998 15.6991 50.2089 8.72242 43.9086C8.17069 43.4102 8.66903 42.7339 9.32753 43.1255C16.8737 47.5037 26.1818 50.1555 35.8103 50.1555C42.3064 50.1555 49.4432 48.8029 56.0105 46.0265C56.9894 45.5815 57.8259 46.6672 56.8648 47.3791Z" fill="#FF9900"/>
<path fill-rule="evenodd" clip-rule="evenodd" d="M59.3037 44.6027C58.5562 43.6416 54.356 44.1399 52.4517 44.3713C51.8821 44.4425 51.7932 43.9442 52.3093 43.5704C55.6552 41.2211 61.1547 41.8975 61.7954 42.6805C62.4361 43.4814 61.6174 48.9809 58.485 51.6149C58.0045 52.0243 57.5418 51.8107 57.7553 51.2768C58.4672 49.5148 60.0512 45.5459 59.3037 44.6027Z" fill="#FF9900"/>
</svg>
