<svg width="70" height="70" viewBox="0 0 70 70" fill="none" xmlns="http://www.w3.org/2000/svg">
<circle cx="35" cy="35" r="35" fill="#264DE4"/>
<g clip-path="url(#clip0_104_158)">
<path d="M58.6333 12.3809L54.5671 57.9327L36.2893 62.9999L18.0619 57.9398L14 12.3809H58.6333Z" fill="#264DE4"/>
<path d="M51.0857 55.0321L54.5606 16.106H36.3164V59.1267L51.0857 55.0321Z" fill="#2965F1"/>
<path d="M23.3115 33.0032L23.8123 38.5907H36.3163V33.0032H23.3115Z" fill="#EBEBEB"/>
<path d="M36.3168 21.6936H36.2974H22.3057L22.8136 27.2813H36.3168V21.6936Z" fill="#EBEBEB"/>
<path d="M36.3169 53.3282V47.5147L36.2924 47.5212L30.0694 45.8409L29.6716 41.3845H26.6477H24.0625L24.8453 50.1579L36.2911 53.3353L36.3169 53.3282Z" fill="#EBEBEB"/>
<path d="M43.1774 38.5906L42.5288 45.8374L36.2969 47.5194V53.3326L47.7518 50.1579L47.8358 49.2139L49.1489 34.5035L49.2852 33.0031L50.2939 21.6936H36.2969V27.2813H44.1704L43.662 33.0031H36.2969V38.5906H43.1774Z" fill="white"/>
</g>
<defs>
<clipPath id="clip0_104_158">
<rect width="44.6333" height="63" fill="white" transform="translate(14)"/>
</clipPath>
</defs>
</svg>
