<svg width="70" height="70" viewBox="0 0 70 70" fill="none" xmlns="http://www.w3.org/2000/svg">
<rect width="70" height="70" rx="35" fill="#777777"/>
<g clip-path="url(#clip0_104_217)">
<path d="M14.3945 23.1397L18.3436 25.4363L38.691 13.6765L34.6996 11.3799L14.3945 23.1397Z" fill="white"/>
<path fill-rule="evenodd" clip-rule="evenodd" d="M34.5175 11.0652C34.5729 11.0332 34.6357 11.0164 34.6996 11.0164C34.7636 11.0164 34.8264 11.0332 34.8818 11.0652L38.8731 13.3618C38.9289 13.3936 38.9752 13.4397 39.0074 13.4952C39.0396 13.5507 39.0566 13.6138 39.0566 13.678C39.0566 13.7422 39.0396 13.8052 39.0074 13.8608C38.9752 13.9163 38.9289 13.9623 38.8731 13.9942L18.5273 25.7526C18.4717 25.7849 18.4086 25.8018 18.3444 25.8018C18.2802 25.8018 18.2171 25.7849 18.1615 25.7526L14.2124 23.4531C14.157 23.4211 14.111 23.3751 14.0791 23.3197C14.0471 23.2644 14.0303 23.2015 14.0303 23.1376C14.0303 23.0737 14.0471 23.0108 14.0791 22.9555C14.111 22.9001 14.157 22.8541 14.2124 22.8221L34.5175 11.0637V11.0652ZM34.6996 11.8025L15.1232 23.1398L18.3466 25.0138L37.9609 13.678L34.6996 11.8025Z" fill="black"/>
<path d="M14.3945 23.1399V46.6552L18.3873 48.9518L18.3436 25.4365L14.3945 23.1399Z" fill="white"/>
<path fill-rule="evenodd" clip-rule="evenodd" d="M14.2129 22.8222C14.2683 22.7903 14.3311 22.7734 14.3951 22.7734C14.459 22.7734 14.5218 22.7903 14.5772 22.8222L18.5263 25.1203C18.5816 25.1522 18.6275 25.1981 18.6595 25.2533C18.6914 25.3086 18.7083 25.3712 18.7085 25.4351L18.7507 48.9519C18.7513 49.0162 18.7347 49.0796 18.7029 49.1355C18.671 49.1913 18.6248 49.2378 18.5692 49.2701C18.5135 49.3023 18.4503 49.3193 18.3859 49.3192C18.3216 49.3191 18.2584 49.302 18.2028 49.2695L14.2129 46.9715C14.1571 46.9396 14.1108 46.8936 14.0786 46.8381C14.0463 46.7826 14.0293 46.7195 14.0293 46.6553V23.1399C14.0293 23.0757 14.0463 23.0126 14.0786 22.9571C14.1108 22.9016 14.1571 22.8541 14.2129 22.8222ZM14.7594 23.7738V46.444L18.0192 48.3209L17.9784 25.6464L14.7594 23.7738Z" fill="black"/>
<path d="M18.3428 25.4366L38.6901 13.6768V37.195L18.385 48.9534L18.3442 25.4352L18.3428 25.4366Z" fill="black"/>
<path fill-rule="evenodd" clip-rule="evenodd" d="M38.8713 13.3618C38.9268 13.3938 38.9729 13.4399 39.0049 13.4955C39.0368 13.551 39.0536 13.6139 39.0535 13.678V37.1948C39.0534 37.2586 39.0365 37.3213 39.0045 37.3766C38.9725 37.4318 38.9266 37.4777 38.8713 37.5096L18.5677 49.2694C18.5122 49.3018 18.4492 49.3189 18.385 49.3191C18.3208 49.3193 18.2576 49.3024 18.202 49.2703C18.1464 49.2382 18.1002 49.192 18.0682 49.1363C18.0362 49.0806 18.0195 49.0175 18.0198 48.9532L17.9775 25.4364C17.9774 25.3723 17.9942 25.3094 18.0262 25.2539C18.0581 25.1983 18.1042 25.1522 18.1597 25.1202L38.5056 13.3618C38.5609 13.3298 38.6238 13.313 38.6877 13.313C38.7517 13.313 38.8159 13.3298 38.8713 13.3618ZM18.7062 25.6463L18.7499 48.3208L38.3249 36.9835V14.309L18.7105 25.6463H18.7062Z" fill="black"/>
<path d="M21.3867 27.1632L25.3358 29.4612L45.6817 17.7014L41.6918 15.4048L21.3867 27.1632Z" fill="white"/>
<path fill-rule="evenodd" clip-rule="evenodd" d="M41.5077 15.0901C41.5631 15.0581 41.6259 15.0413 41.6899 15.0413C41.7538 15.0413 41.8166 15.0581 41.872 15.0901L45.8648 17.3867C45.9206 17.4185 45.9669 17.4646 45.9991 17.5201C46.0313 17.5756 46.0482 17.6387 46.0482 17.7029C46.0482 17.7671 46.0313 17.8301 45.9991 17.8857C45.9669 17.9412 45.9206 17.9872 45.8648 18.0191L25.519 29.7775C25.4632 29.81 25.3999 29.8272 25.3354 29.8272C25.2708 29.8272 25.2075 29.81 25.1517 29.7775L21.2026 27.4795C21.1473 27.4475 21.1013 27.4015 21.0693 27.3461C21.0373 27.2907 21.0205 27.2279 21.0205 27.164C21.0205 27.1 21.0373 27.0372 21.0693 26.9818C21.1013 26.9264 21.1473 26.8804 21.2026 26.8485L41.5077 15.0901ZM41.6913 15.8274L22.1134 27.1647L25.3368 29.0387L44.9512 17.7029L41.6913 15.8274Z" fill="black"/>
<path d="M21.3867 27.1631V50.6814L25.3781 52.9779L25.3358 29.4626L21.3867 27.1631Z" fill="white"/>
<path fill-rule="evenodd" clip-rule="evenodd" d="M21.2046 26.8471C21.2602 26.8148 21.3233 26.7979 21.3875 26.7979C21.4517 26.7979 21.5148 26.8148 21.5704 26.8471L25.5195 29.1451C25.5748 29.177 25.6207 29.2229 25.6526 29.2782C25.6846 29.3334 25.7015 29.3961 25.7016 29.4599L25.7424 52.9767C25.7428 53.0408 25.7263 53.1039 25.6944 53.1596C25.6626 53.2153 25.6167 53.2616 25.5612 53.2938C25.5058 53.3261 25.4428 53.3431 25.3787 53.3432C25.3145 53.3433 25.2515 53.3264 25.196 53.2944L21.2046 50.9963C21.1491 50.9643 21.1031 50.9182 21.0711 50.8627C21.0391 50.8071 21.0223 50.7442 21.0225 50.6801V27.1633C21.0223 27.0992 21.0391 27.0363 21.0711 26.9807C21.1031 26.9252 21.1491 26.8791 21.2046 26.8471ZM21.7525 27.7987V50.4688L25.0109 52.3457L24.9716 29.6712L21.7525 27.7987Z" fill="black"/>
<path d="M25.335 29.461L45.6808 17.7012V41.2194L25.3772 52.9778L25.335 29.461Z" fill="black"/>
<path fill-rule="evenodd" clip-rule="evenodd" d="M45.864 17.3867C45.9198 17.4185 45.9661 17.4646 45.9984 17.5201C46.0306 17.5756 46.0476 17.6387 46.0476 17.7029V41.2197C46.0475 41.2836 46.0306 41.3462 45.9986 41.4015C45.9667 41.4567 45.9207 41.5026 45.8655 41.5345L25.5604 53.2944C25.5049 53.3267 25.4419 53.3439 25.3777 53.344C25.3134 53.3442 25.2503 53.3273 25.1947 53.2952C25.1391 53.2631 25.0929 53.2169 25.0609 53.1612C25.0289 53.1055 25.0122 53.0424 25.0125 52.9781L24.9717 29.4613C24.9716 29.3973 24.9883 29.3343 25.0203 29.2788C25.0523 29.2232 25.0983 29.1771 25.1538 29.1451L45.4997 17.3867C45.5551 17.3547 45.6179 17.3379 45.6819 17.3379C45.7458 17.3379 45.8086 17.3547 45.864 17.3867ZM25.7032 29.6712L25.7426 52.3457L45.319 41.0084V18.3339L25.7032 29.6712Z" fill="black"/>
<path d="M25.3418 33.3957L32.7474 57.2826L36.972 55.8997L29.272 31.9836L25.3418 33.3957Z" fill="white"/>
<path fill-rule="evenodd" clip-rule="evenodd" d="M29.4338 31.6575C29.478 31.6789 29.5175 31.709 29.5498 31.7461C29.5821 31.7832 29.6066 31.8264 29.6217 31.8732L37.3203 55.7878C37.3502 55.8796 37.3424 55.9795 37.2987 56.0655C37.255 56.1516 37.1789 56.2168 37.0871 56.2468L32.8612 57.6297C32.8152 57.6449 32.7666 57.6506 32.7183 57.6468C32.6701 57.6429 32.623 57.6295 32.58 57.6072C32.537 57.585 32.4989 57.5544 32.4678 57.5172C32.4368 57.48 32.4135 57.437 32.3992 57.3907L24.995 33.5038C24.967 33.4139 24.9749 33.3167 25.017 33.2324C25.0591 33.1482 25.1322 33.0836 25.2209 33.0521L29.1511 31.6415C29.197 31.6247 29.2458 31.6174 29.2946 31.6199C29.3434 31.6224 29.3913 31.6347 29.4352 31.656L29.4338 31.6575ZM25.7965 33.6218L32.9879 56.821L36.5144 55.6654L29.0403 32.4561L25.7951 33.6218H25.7965Z" fill="black"/>
<path d="M45.6777 22.5278L53.0834 46.4147L57.3079 45.0318L49.6079 21.1172L45.6777 22.5278Z" fill="white"/>
<path fill-rule="evenodd" clip-rule="evenodd" d="M49.7702 20.7892C49.8142 20.8108 49.8534 20.841 49.8854 20.878C49.9175 20.9151 49.9417 20.9582 49.9567 21.0049L57.6553 44.921C57.6847 45.0126 57.6767 45.1121 57.633 45.1978C57.5893 45.2835 57.5135 45.3485 57.4221 45.3785L53.1961 46.7614C53.1502 46.7763 53.1018 46.782 53.0537 46.778C53.0056 46.774 52.9587 46.7605 52.9159 46.7383C52.8731 46.716 52.8351 46.6855 52.8041 46.6485C52.7732 46.6114 52.7499 46.5686 52.7356 46.5225L45.33 22.6355C45.302 22.5456 45.3098 22.4484 45.3519 22.3641C45.394 22.2799 45.4671 22.2153 45.5559 22.1838L49.486 20.7732C49.532 20.7566 49.5809 20.7495 49.6297 20.7523C49.6785 20.755 49.7263 20.7676 49.7702 20.7892ZM46.1315 22.7535L53.3229 45.9527L56.8494 44.7986L49.3767 21.5878L46.1315 22.7535Z" fill="black"/>
<path d="M29.2734 31.9852L49.6091 21.1172L57.3106 45.0318L36.9749 55.8999L29.2749 31.9838L29.2734 31.9852Z" fill="white"/>
<path fill-rule="evenodd" clip-rule="evenodd" d="M49.7466 20.7792C49.796 20.7992 49.8404 20.8298 49.8766 20.8688C49.9129 20.9079 49.9402 20.9544 49.9565 21.0051L57.655 44.9211C57.6812 45.0023 57.678 45.0901 57.646 45.1692C57.6141 45.2483 57.5554 45.3137 57.4802 45.3539L37.1445 56.222C37.0974 56.2474 37.0452 56.2622 36.9917 56.2652C36.9382 56.2682 36.8848 56.2593 36.8351 56.2393C36.7854 56.2193 36.7408 56.1885 36.7043 56.1493C36.6679 56.11 36.6406 56.0632 36.6243 56.0121L28.9257 32.096C28.8996 32.0148 28.9028 31.9271 28.9347 31.848C28.9667 31.7689 29.0254 31.7035 29.1006 31.6632L49.4363 20.7938C49.4833 20.7683 49.5354 20.7536 49.5888 20.7506C49.6422 20.7476 49.6956 20.7563 49.7452 20.7763L49.7466 20.7792ZM29.7141 32.1631L37.1853 55.3724L56.8667 44.8541L49.3969 21.6448L29.7155 32.1631H29.7141Z" fill="black"/>
<path d="M29.272 31.9852L25.3418 33.3958L45.6775 22.5278L49.6076 21.1172L29.272 31.9838V31.9852Z" fill="white"/>
<path fill-rule="evenodd" clip-rule="evenodd" d="M49.9425 20.9686C49.9804 21.0528 49.9849 21.1482 49.9551 21.2356C49.9254 21.3229 49.8636 21.3958 49.7822 21.4393L29.4436 32.3059C29.4282 32.3144 29.4121 32.3217 29.3955 32.3278L25.4654 33.7398C25.3771 33.779 25.2768 33.7816 25.1866 33.7469C25.0964 33.7122 25.0237 33.6431 24.9845 33.5547C24.9453 33.4664 24.9427 33.3662 24.9774 33.276C25.0121 33.1858 25.0813 33.1131 25.1696 33.0739L45.5067 22.2058C45.5227 22.1974 45.5392 22.1901 45.5562 22.184L49.4864 20.7734C49.573 20.7423 49.6682 20.7451 49.7528 20.7814C49.8374 20.8176 49.9052 20.8845 49.9425 20.9686Z" fill="black"/>
<path d="M40.8358 30.0369L39.4646 30.7378L38.0948 31.4387L36.9844 48.0395L39.6803 49.2446L41.7349 35.9634L52.482 42.7002L53.3447 39.6794L40.8358 30.0369Z" fill="black"/>
<path fill-rule="evenodd" clip-rule="evenodd" d="M40.671 29.7119C40.7325 29.6807 40.8015 29.6675 40.8701 29.674C40.9387 29.6804 41.0041 29.7062 41.0587 29.7483L53.5675 39.3893C53.6252 39.434 53.6681 39.495 53.6907 39.5644C53.7133 39.6338 53.7146 39.7083 53.6943 39.7784L52.8346 42.8007C52.8193 42.8556 52.7914 42.906 52.7532 42.9482C52.7149 42.9903 52.6673 43.0228 52.6142 43.0432C52.561 43.0636 52.5039 43.0713 52.4472 43.0656C52.3906 43.06 52.3361 43.0411 52.2881 43.0106L42.0102 36.5667L40.0415 49.3C40.033 49.3555 40.0118 49.4084 39.9794 49.4543C39.9471 49.5003 39.9046 49.5382 39.8552 49.565C39.8058 49.5918 39.7509 49.6068 39.6947 49.6089C39.6386 49.6109 39.5827 49.6 39.5315 49.5769L36.8356 48.3732C36.7674 48.3429 36.7102 48.2924 36.6716 48.2286C36.6331 48.1647 36.615 48.0906 36.6199 48.0162L37.7303 31.4154C37.7342 31.3524 37.7543 31.2914 37.7888 31.2385C37.8233 31.1857 37.871 31.1427 37.9271 31.1137L40.671 29.7119ZM38.4444 31.6704L37.366 47.8107L39.3916 48.7156L41.3734 35.9066C41.3826 35.8469 41.4064 35.7903 41.4428 35.7421C41.4792 35.6939 41.527 35.6555 41.5819 35.6304C41.6368 35.6052 41.6971 35.5941 41.7574 35.5981C41.8177 35.602 41.876 35.6209 41.9272 35.653L52.2648 42.1333L52.9249 39.8163L40.7964 30.4682L38.4444 31.6704Z" fill="black"/>
</g>
<defs>
<clipPath id="clip0_104_217">
<rect width="43.7484" height="46.66" fill="white" transform="translate(14 11)"/>
</clipPath>
</defs>
</svg>
