<svg width="70" height="70" viewBox="0 0 70 70" fill="none" xmlns="http://www.w3.org/2000/svg">
<rect width="70" height="70" rx="35" fill="#F0DB4F"/>
<circle cx="35.8903" cy="33.8903" r="27.3288" fill="#264DE4"/>
<g clip-path="url(#clip0_104_178)">
<path d="M7 5H64V62H7V5Z" fill="#F0DB4F"/>
<path d="M59.3349 48.4056C58.9177 45.8049 57.2217 43.6213 52.199 41.584C50.4543 40.7821 48.5092 40.2079 47.9294 38.8858C47.7236 38.1164 47.6965 37.6829 47.8265 37.2169C48.2004 35.7052 50.0046 35.2339 51.4351 35.6673C52.3562 35.9762 53.2285 36.686 53.7541 37.8184C56.2139 36.2254 56.2085 36.2362 57.9261 35.1418C57.2976 34.1665 56.9617 33.7167 56.5499 33.2996C55.0707 31.647 53.0551 30.7964 49.8313 30.8614C49.2732 30.9318 48.7097 31.0076 48.1516 31.0781C46.5424 31.4845 45.009 32.3297 44.1096 33.4621C41.4113 36.5235 42.1807 41.882 45.4641 44.0873C48.6988 46.5147 53.4506 47.0674 54.0575 49.3376C54.6481 52.1172 52.0149 53.0166 49.3978 52.6969C47.4689 52.296 46.3961 51.3153 45.2366 49.5327C43.1018 50.768 43.1018 50.768 40.9074 52.0305C41.4276 53.1683 41.9748 53.683 42.8472 54.6692C46.9759 58.8575 57.3084 58.6516 59.1615 52.3122C59.2373 52.0954 59.7359 50.6434 59.3349 48.4056ZM37.987 31.1973H32.6554C32.6554 35.8028 32.6338 40.3758 32.6338 44.9813C32.6338 47.9126 32.7855 50.6 32.3087 51.4236C31.5285 53.0436 29.5074 52.8432 28.5863 52.5289C27.649 52.0683 27.1722 51.4127 26.6195 50.4862C26.4678 50.2207 26.354 50.0148 26.316 49.9986C24.8694 50.8818 23.4281 51.7703 21.9814 52.6535C22.7021 54.1327 23.764 55.4168 25.124 56.2512C27.1559 57.4703 29.8867 57.8442 32.7421 57.1885C34.6006 56.6467 36.2044 55.5252 37.0442 53.8185C38.2579 51.5807 37.9978 48.8716 37.987 45.8753C38.014 40.988 37.987 36.1008 37.987 31.1973Z" fill="#323330"/>
</g>
<defs>
<clipPath id="clip0_104_178">
<rect width="57" height="57" fill="white" transform="translate(7 5)"/>
</clipPath>
</defs>
</svg>
