<svg width="70" height="70" viewBox="0 0 70 70" fill="none" xmlns="http://www.w3.org/2000/svg">
<g clip-path="url(#clip0_104_270)">
<rect width="70" height="70" rx="35" fill="black"/>
<circle cx="37.5" cy="37.5" r="32.5" fill="white"/>
<g clip-path="url(#clip1_104_270)">
<path d="M32.1365 -3.93941C31.9703 -3.92431 31.4417 -3.87145 30.966 -3.83369C19.9939 -2.84447 9.71651 3.07579 3.20725 12.1752C-0.417401 17.2346 -2.73567 22.9736 -3.61162 29.0524C-3.92123 31.1744 -3.95898 31.8011 -3.95898 34.6782C-3.95898 37.5553 -3.92123 38.182 -3.61162 40.3039C-1.51235 54.8101 8.81035 66.998 22.8106 71.5137C25.3176 72.3217 27.9606 72.8729 30.966 73.2052C32.1365 73.3336 37.1959 73.3336 38.3663 73.2052C43.5541 72.6313 47.949 71.3475 52.2835 69.135C52.948 68.7952 53.0764 68.7046 52.9857 68.6291C52.9253 68.5837 50.0936 64.7854 46.6955 60.1942L40.5185 51.85L32.7783 40.3946C28.5194 34.0967 25.0155 28.9467 24.9853 28.9467C24.9551 28.9392 24.9249 34.0288 24.9098 40.2435C24.8872 51.125 24.8796 51.563 24.7437 51.8198C24.5474 52.1898 24.3963 52.3408 24.0792 52.5069C23.8375 52.6277 23.6261 52.6504 22.4858 52.6504H21.1795L20.8321 52.4314C20.6056 52.2879 20.4394 52.0992 20.3262 51.8802L20.1676 51.5404L20.1827 36.3999L20.2053 21.2519L20.4394 20.9574C20.5602 20.7988 20.817 20.5949 20.9982 20.4968C21.3078 20.3457 21.4287 20.3306 22.735 20.3306C24.2755 20.3306 24.5323 20.391 24.9325 20.829C25.0458 20.9498 29.2367 27.2628 34.2508 34.867C39.2649 42.4712 46.1216 52.8543 49.4895 57.9515L55.6061 67.217L55.9157 67.0131C58.6568 65.231 61.5565 62.6937 63.8521 60.0507C68.7379 54.4401 71.8868 47.5985 72.944 40.3039C73.2536 38.182 73.2913 37.5553 73.2913 34.6782C73.2913 31.8011 73.2536 31.1744 72.944 29.0524C70.8447 14.5463 60.522 2.35841 46.5218 -2.1573C44.0525 -2.95774 41.4246 -3.50899 38.4796 -3.84125C37.7547 -3.91676 32.7632 -3.99982 32.1365 -3.93941ZM47.949 19.4245C48.3115 19.6057 48.606 19.9531 48.7117 20.3155C48.7721 20.5119 48.7872 24.7104 48.7721 34.1722L48.7494 47.7496L46.3557 44.0796L43.9543 40.4097V30.54C43.9543 24.1592 43.9845 20.5723 44.0298 20.3986C44.1507 19.9757 44.415 19.6434 44.7774 19.4471C45.087 19.2885 45.2003 19.2734 46.3859 19.2734C47.5035 19.2734 47.6998 19.2885 47.949 19.4245Z" fill="black"/>
<path d="M55.2298 67.3829C54.9655 67.5491 54.8824 67.6623 55.1165 67.534C55.2826 67.4358 55.5545 67.2319 55.5092 67.2244C55.4865 67.2244 55.3581 67.2999 55.2298 67.3829ZM54.7087 67.7228C54.5728 67.8285 54.5728 67.836 54.7389 67.753C54.8295 67.7077 54.9051 67.6548 54.9051 67.6397C54.9051 67.5793 54.8673 67.5944 54.7087 67.7228ZM54.3312 67.9493C54.1952 68.055 54.1952 68.0626 54.3614 67.9795C54.452 67.9342 54.5275 67.8813 54.5275 67.8662C54.5275 67.8058 54.4897 67.8209 54.3312 67.9493ZM53.9536 68.1758C53.8177 68.2816 53.8177 68.2891 53.9838 68.206C54.0744 68.1607 54.1499 68.1079 54.1499 68.0928C54.1499 68.0324 54.1122 68.0475 53.9536 68.1758ZM53.3797 68.4779C53.0927 68.6289 53.1078 68.6893 53.3948 68.5459C53.5232 68.4779 53.6213 68.4099 53.6213 68.3948C53.6213 68.342 53.6138 68.3495 53.3797 68.4779Z" fill="black"/>
</g>
</g>
<defs>
<clipPath id="clip0_104_270">
<rect width="70" height="70" rx="35" fill="white"/>
</clipPath>
<clipPath id="clip1_104_270">
<rect width="77.3334" height="77.3334" fill="white" transform="translate(-4 -4)"/>
</clipPath>
</defs>
</svg>
