<svg width="70" height="70" viewBox="0 0 70 70" fill="none" xmlns="http://www.w3.org/2000/svg">
<rect width="70" height="70" rx="35" fill="black"/>
<g clip-path="url(#clip0_104_202)">
<path d="M55.4629 29.787C55.4629 27.0674 52.0571 24.49 46.8352 22.8917C48.0403 17.5694 47.5048 13.3351 45.1448 11.9794C44.6008 11.6614 43.965 11.5108 43.2704 11.5108V13.3769C43.6553 13.3769 43.965 13.4523 44.2243 13.5945C45.3624 14.2472 45.8562 16.7326 45.4711 19.9293C45.3792 20.7159 45.2286 21.5444 45.0445 22.3896C43.4042 21.9879 41.6134 21.6783 39.7306 21.4774C38.6009 19.9293 37.4293 18.5234 36.2493 17.2933C38.9774 14.7577 41.5382 13.3686 43.2788 13.3686V11.5024C40.9774 11.5024 37.9649 13.1426 34.9189 15.9878C31.8727 13.1594 28.8602 11.5359 26.559 11.5359V13.402C28.2912 13.402 30.8602 14.7828 33.5883 17.3016C32.4167 18.5318 31.2451 19.9293 30.1321 21.4774C28.2409 21.6783 26.4501 21.9879 24.81 22.3979C24.6174 21.5611 24.4752 20.7494 24.3747 19.9711C23.9816 16.7745 24.4668 14.2891 25.5966 13.628C25.8476 13.4774 26.1739 13.4104 26.559 13.4104V11.5443C25.856 11.5443 25.22 11.6949 24.6678 12.0129C22.3162 13.3686 21.7891 17.5945 23.0024 22.9C17.7973 24.5067 14.4082 27.0758 14.4082 29.787C14.4082 32.5069 17.8141 35.0843 23.0359 36.6825C21.8308 42.0048 22.3663 46.239 24.7263 47.5947C25.2703 47.9127 25.9061 48.0633 26.6092 48.0633C28.9104 48.0633 31.9231 46.4232 34.969 43.578C38.015 46.4065 41.0277 48.03 43.3289 48.03C44.0318 48.03 44.6678 47.8794 45.2202 47.5612C47.5716 46.2055 48.0989 41.9796 46.8854 36.6743C52.0737 35.0759 55.4629 32.4984 55.4629 29.787ZM44.5675 24.2055C44.2578 25.285 43.8729 26.3979 43.4376 27.5109C43.0947 26.8415 42.7348 26.172 42.3415 25.5025C41.9566 24.8331 41.5464 24.1804 41.1364 23.5444C42.3246 23.7201 43.4711 23.9377 44.5675 24.2055ZM40.7347 33.1176C40.082 34.2475 39.4126 35.3186 38.718 36.3144C37.4711 36.4231 36.2076 36.4817 34.9355 36.4817C33.6719 36.4817 32.4083 36.4231 31.1699 36.3227C30.4753 35.3268 29.7973 34.2641 29.1447 33.1427C28.5086 32.0465 27.9314 30.9335 27.4041 29.8123C27.9229 28.6909 28.5086 27.5694 29.1364 26.4733C29.7891 25.3436 30.4585 24.2724 31.1531 23.2766C32.4 23.1678 33.6635 23.1092 34.9355 23.1092C36.1992 23.1092 37.4628 23.1678 38.7012 23.2682C39.3958 24.2641 40.0737 25.3268 40.7264 26.4482C41.3625 27.5444 41.9397 28.6574 42.467 29.7788C41.9397 30.9 41.3625 32.0215 40.7347 33.1176ZM43.4376 32.0299C43.8769 33.1204 44.2624 34.2319 44.5926 35.3603C43.4962 35.6281 42.3415 35.8541 41.1448 36.0298C41.5548 35.3855 41.9648 34.7244 42.3499 34.0465C42.7348 33.3772 43.0947 32.6992 43.4376 32.0299ZM34.9522 40.9588C34.174 40.1553 33.3957 39.2599 32.6259 38.2809C33.3791 38.3144 34.1489 38.3395 34.9271 38.3395C35.7138 38.3395 36.492 38.3228 37.2536 38.2809C36.5353 39.2144 35.767 40.1083 34.9522 40.9588ZM28.7263 36.0298C27.538 35.8541 26.3915 35.6365 25.2954 35.3687C25.6049 34.2892 25.99 33.1762 26.425 32.0632C26.7682 32.7327 27.128 33.4022 27.5212 34.0716C27.9145 34.7411 28.3163 35.3938 28.7263 36.0298ZM34.9105 18.6155C35.6887 19.4188 36.467 20.3142 37.2368 21.2933C36.4836 21.2598 35.7138 21.2347 34.9355 21.2347C34.1489 21.2347 33.3706 21.2515 32.6092 21.2933C33.3275 20.3599 34.0957 19.466 34.9105 18.6155ZM28.7178 23.5444C28.3079 24.1887 27.8979 24.8498 27.513 25.5276C27.128 26.1971 26.7682 26.8666 26.425 27.5359C25.9857 26.4454 25.6003 25.3339 25.2703 24.2055C26.3665 23.9461 27.5212 23.7201 28.7178 23.5444ZM21.1446 34.0214C18.1823 32.7578 16.266 31.101 16.266 29.787C16.266 28.4732 18.1823 26.808 21.1446 25.5528C21.8643 25.2431 22.651 24.967 23.4627 24.7076C23.9397 26.3477 24.5673 28.0548 25.3455 29.8039C24.5757 31.5445 23.9563 33.2432 23.4878 34.8751C22.6594 34.6155 21.8727 34.3311 21.1446 34.0214ZM25.6468 45.9797C24.5087 45.327 24.0149 42.8416 24.4 39.6448C24.492 38.8584 24.6425 38.0298 24.8266 37.1845C26.4669 37.5863 28.2577 37.896 30.1405 38.0968C31.2702 39.6448 32.4418 41.0507 33.6218 42.2808C30.8937 44.8165 28.3329 46.2055 26.5923 46.2055C26.2158 46.1973 25.8979 46.1219 25.6468 45.9797ZM45.4964 39.6031C45.8895 42.7997 45.4043 45.2851 44.2745 45.9462C44.0235 46.0968 43.6972 46.1638 43.3121 46.1638C41.5799 46.1638 39.0109 44.783 36.2828 42.2642C37.4544 41.034 38.626 39.6366 39.739 38.0883C41.6302 37.8876 43.421 37.5779 45.0611 37.1679C45.2537 38.0131 45.4043 38.8249 45.4964 39.6031ZM48.7181 34.0214C47.9984 34.3311 47.2117 34.6073 46.4 34.8667C45.923 33.2265 45.2954 31.5194 44.5172 29.7704C45.2872 28.0298 45.9064 26.3311 46.3749 24.6992C47.2035 24.9586 47.99 25.2431 48.7265 25.5528C51.6888 26.8163 53.6051 28.4732 53.6051 29.787C53.5967 31.101 51.6804 32.7662 48.7181 34.0214Z" fill="#61DAFB"/>
<path d="M34.9264 33.6113C37.0387 33.6113 38.7508 31.8991 38.7508 29.7869C38.7508 27.6748 37.0387 25.9626 34.9264 25.9626C32.8144 25.9626 31.1022 27.6748 31.1022 29.7869C31.1022 31.8991 32.8144 33.6113 34.9264 33.6113ZM16.2717 54.6478H15.0093V56.822H14.2969V51.4474H16.0761C16.6814 51.4474 17.1465 51.5853 17.4714 51.861C17.7987 52.1364 17.9623 52.5376 17.9623 53.0642C17.9623 53.3989 17.8713 53.6905 17.6892 53.9392C17.5095 54.1876 17.2585 54.3735 16.9361 54.4964L18.1986 56.7776V56.822H17.4382L16.2717 54.6478ZM15.0093 54.0683H16.0982C16.4501 54.0683 16.7294 53.9771 16.9361 53.7951C17.1453 53.613 17.2499 53.3694 17.2499 53.0642C17.2499 52.732 17.1502 52.4774 16.9509 52.3001C16.754 52.1229 16.4686 52.0331 16.0945 52.0307H15.0093V54.0683ZM20.5094 56.8959C19.9679 56.8959 19.5274 56.7187 19.1878 56.3643C18.8482 56.0074 18.6784 55.5312 18.6784 54.9358V54.8102C18.6784 54.4141 18.7535 54.061 18.9036 53.7509C19.0562 53.4382 19.2678 53.1946 19.5385 53.02C19.8117 52.8428 20.107 52.7541 20.4244 52.7541C20.9437 52.7541 21.3473 52.9251 21.6351 53.2672C21.9231 53.6093 22.067 54.099 22.067 54.7363V55.0205H19.3613C19.3712 55.4144 19.4856 55.7331 19.7046 55.9767C19.9261 56.2177 20.2066 56.3384 20.5462 56.3384C20.7874 56.3384 20.9916 56.2892 21.1589 56.1908C21.3264 56.0924 21.4727 55.9619 21.5982 55.7995L22.0153 56.1244C21.6806 56.6386 21.1787 56.8959 20.5094 56.8959ZM20.4244 53.3153C20.1488 53.3153 19.9175 53.4161 19.7304 53.6179C19.5434 53.8173 19.4278 54.0978 19.3835 54.4595H21.3842V54.4079C21.3645 54.061 21.271 53.7926 21.1037 53.6031C20.9362 53.4113 20.7098 53.3153 20.4244 53.3153ZM25.3265 56.822C25.287 56.7432 25.255 56.603 25.2305 56.4011C24.9129 56.7308 24.534 56.8959 24.0935 56.8959C23.6998 56.8959 23.3763 56.7851 23.1227 56.5635C22.8718 56.3396 22.7462 56.0566 22.7462 55.7146C22.7462 55.2988 22.9038 54.9764 23.2187 54.7475C23.5361 54.516 23.9816 54.4004 24.555 54.4004H25.2194V54.0868C25.2194 53.848 25.148 53.6585 25.0054 53.5183C24.8626 53.3755 24.6521 53.3042 24.374 53.3042C24.1304 53.3042 23.9262 53.3656 23.7614 53.4887C23.5965 53.6117 23.514 53.7606 23.514 53.9354H22.8275C22.8275 53.7361 22.8976 53.5441 23.0378 53.3594C23.1806 53.1725 23.3725 53.0249 23.6137 52.9165C23.8574 52.8084 24.1242 52.7541 24.4146 52.7541C24.875 52.7541 25.2353 52.8697 25.4962 53.1012C25.757 53.3301 25.8923 53.6463 25.9023 54.0497V55.888C25.9023 56.2548 25.949 56.5463 26.0426 56.7628V56.822H25.3265ZM24.1933 56.3016C24.4073 56.3016 24.6104 56.2462 24.8023 56.1354C24.9941 56.0246 25.1332 55.8807 25.2194 55.7035V54.8841H24.6841C23.8475 54.8841 23.4291 55.1289 23.4291 55.6186C23.4291 55.8326 23.5005 56.0001 23.6431 56.1206C23.7859 56.2411 23.9693 56.3016 24.1933 56.3016ZM28.5747 56.3384C28.8184 56.3384 29.0313 56.2645 29.2134 56.1169C29.3955 55.9692 29.4963 55.7847 29.516 55.5632H30.1621C30.1497 55.792 30.071 56.0098 29.9258 56.2166C29.7806 56.4234 29.5861 56.5882 29.3425 56.7112C29.1013 56.8343 28.8455 56.8959 28.5747 56.8959C28.031 56.8959 27.5978 56.7149 27.2754 56.3532C26.9556 55.9889 26.7956 55.4919 26.7956 54.8619V54.7475C26.7956 54.3587 26.8669 54.0129 27.0096 53.7103C27.1524 53.4075 27.3566 53.1725 27.6225 53.0052C27.8906 52.8377 28.2069 52.7541 28.571 52.7541C29.019 52.7541 29.3906 52.8883 29.6859 53.1566C29.9836 53.4248 30.1423 53.773 30.1621 54.2011H29.516C29.4963 53.9427 29.3979 53.7311 29.2207 53.5662C29.0461 53.3989 28.8294 53.3153 28.571 53.3153C28.2241 53.3153 27.9546 53.4407 27.7626 53.6918C27.5733 53.9403 27.4784 54.3009 27.4784 54.7733V54.9025C27.4784 55.3626 27.5733 55.717 27.7626 55.9655C27.9522 56.2142 28.2229 56.3384 28.5747 56.3384ZM31.8563 51.861V52.828H32.602V53.3559H31.8563V55.8326C31.8563 55.9926 31.8896 56.1131 31.956 56.1944C32.0225 56.2731 32.1357 56.3126 32.2957 56.3126C32.3743 56.3126 32.4826 56.2978 32.6203 56.2683V56.822C32.4407 56.8712 32.2661 56.8959 32.0962 56.8959C31.7912 56.8959 31.561 56.8034 31.4059 56.6189C31.251 56.4344 31.1735 56.1723 31.1735 55.8326V53.3559H30.4461V52.828H31.1735V51.861H31.8563ZM39.5158 56.822H38.8032L36.0976 52.6804V56.822H35.3852V51.4474H36.0976L38.8107 55.6075V51.4474H39.5158V56.822ZM43.1332 56.822C43.0938 56.7432 43.0618 56.603 43.0373 56.4011C42.7197 56.7308 42.3408 56.8959 41.9003 56.8959C41.5066 56.8959 41.1829 56.7851 40.9295 56.5635C40.6786 56.3396 40.553 56.0566 40.553 55.7146C40.553 55.2988 40.7104 54.9764 41.0255 54.7475C41.3429 54.516 41.7884 54.4004 42.3617 54.4004H43.0262V54.0868C43.0262 53.848 42.9547 53.6585 42.812 53.5183C42.6694 53.3755 42.4589 53.3042 42.1808 53.3042C41.9372 53.3042 41.733 53.3656 41.5682 53.4887C41.4033 53.6117 41.3208 53.7606 41.3208 53.9354H40.6342C40.6342 53.7361 40.7044 53.5441 40.8445 53.3594C40.9873 53.1725 41.1793 53.0249 41.4205 52.9165C41.6641 52.8084 41.931 52.7541 42.2214 52.7541C42.6815 52.7541 43.0421 52.8697 43.303 53.1012C43.5638 53.3301 43.6991 53.6463 43.709 54.0497V55.888C43.709 56.2548 43.7558 56.5463 43.8494 56.7628V56.822H43.1332ZM42 56.3016C42.2141 56.3016 42.4171 56.2462 42.6091 56.1354C42.8009 56.0246 42.9399 55.8807 43.0262 55.7035V54.8841H42.4909C41.6542 54.8841 41.2358 55.1289 41.2358 55.6186C41.2358 55.8326 41.3073 56.0001 41.4499 56.1206C41.5927 56.2411 41.776 56.3016 42 56.3016ZM45.706 51.861V52.828H46.4517V53.3559H45.706V55.8326C45.706 55.9926 45.7393 56.1131 45.8057 56.1944C45.8722 56.2731 45.9854 56.3126 46.1454 56.3126C46.2239 56.3126 46.3323 56.2978 46.4702 56.2683V56.822C46.2904 56.8712 46.1158 56.8959 45.9459 56.8959C45.6409 56.8959 45.4107 56.8034 45.2556 56.6189C45.1007 56.4344 45.0232 56.1723 45.0232 55.8326V53.3559H44.296V52.828H45.0232V51.861H45.706ZM47.9947 56.822H47.3117V52.828H47.9947V56.822ZM47.2563 51.7685C47.2563 51.6579 47.2896 51.5644 47.356 51.488C47.4249 51.4117 47.5258 51.3737 47.6586 51.3737C47.7917 51.3737 47.8925 51.4117 47.9614 51.488C48.0302 51.5644 48.0647 51.6579 48.0647 51.7685C48.0647 51.8793 48.0302 51.9716 47.9614 52.0455C47.8925 52.1192 47.7917 52.1562 47.6586 52.1562C47.5258 52.1562 47.4249 52.1192 47.356 52.0455C47.2896 51.9716 47.2563 51.8793 47.2563 51.7685ZM50.4088 55.8955L51.3979 52.828H52.0957L50.6634 56.822H50.1429L48.696 52.828H49.3936L50.4088 55.8955ZM54.3583 56.8959C53.817 56.8959 53.3765 56.7187 53.0369 56.3643C52.6973 56.0074 52.5275 55.5312 52.5275 54.9358V54.8102C52.5275 54.4141 52.6026 54.061 52.7526 53.7509C52.9052 53.4382 53.1168 53.1946 53.3876 53.02C53.6608 52.8428 53.956 52.7541 54.2734 52.7541C54.7927 52.7541 55.1963 52.9251 55.4843 53.2672C55.7721 53.6093 55.9161 54.099 55.9161 54.7363V55.0205H53.2104C53.2203 55.4144 53.3346 55.7331 53.5537 55.9767C53.7751 56.2177 54.0558 56.3384 54.3952 56.3384C54.6364 56.3384 54.8408 56.2892 55.008 56.1908C55.1753 56.0924 55.3218 55.9619 55.4474 55.7995L55.8645 56.1244C55.5297 56.6386 55.0277 56.8959 54.3583 56.8959ZM54.2734 53.3153C53.998 53.3153 53.7665 53.4161 53.5795 53.6179C53.3924 53.8173 53.2768 54.0978 53.2326 54.4595H55.2331V54.4079C55.2135 54.061 55.1199 53.7926 54.9527 53.6031C54.7854 53.4113 54.5589 53.3153 54.2734 53.3153Z" fill="#61DAFB"/>
</g>
<defs>
<clipPath id="clip0_104_202">
<rect width="62.2145" height="49.896" fill="white" transform="translate(4 7)"/>
</clipPath>
</defs>
</svg>
