<svg width="70" height="70" viewBox="0 0 70 70" fill="none" xmlns="http://www.w3.org/2000/svg">
<rect width="70" height="70" rx="35" fill="black"/>
<path d="M35.2582 39.8326C37.7799 39.8326 39.8241 37.7884 39.8241 35.2668C39.8241 32.7451 37.7799 30.7009 35.2582 30.7009C32.7366 30.7009 30.6924 32.7451 30.6924 35.2668C30.6924 37.7884 32.7366 39.8326 35.2582 39.8326Z" fill="#61DAFB"/>
<path d="M35.258 25.9841C41.3871 25.9841 47.0816 26.8638 51.3743 28.341C56.5467 30.1215 59.7274 32.8208 59.7274 35.2652C59.7274 37.8122 56.3566 40.6806 50.8024 42.5199C46.6032 43.9111 41.0762 44.6383 35.258 44.6383C29.2919 44.6383 23.6442 43.9563 19.3967 42.5048C14.0236 40.6685 10.7871 37.7639 10.7871 35.2652C10.7871 32.8405 13.8245 30.1622 18.9245 28.3847C23.2338 26.8834 29.0686 25.9841 35.258 25.9841Z" stroke="#61DAFB" stroke-width="2.18403" stroke-miterlimit="10"/>
<path d="M27.1784 30.6526C30.2399 25.3429 33.8476 20.8495 37.2728 17.8695C41.3995 14.2783 45.3271 12.8721 47.4441 14.0927C49.65 15.3647 50.4513 19.7178 49.2698 25.45C48.3766 29.7835 46.246 34.9333 43.3384 39.9745C40.3584 45.1424 36.9453 49.6946 33.567 52.649C29.2923 56.3865 25.158 57.7384 22.9943 56.4906C20.8939 55.279 20.0912 51.3106 21.0976 46.0039C21.9486 41.5165 24.0852 36.0137 27.1784 30.6526Z" stroke="#61DAFB" stroke-width="2.18403" stroke-miterlimit="10"/>
<path d="M27.1843 39.9851C24.1137 34.6799 22.0224 29.3114 21.1503 24.8557C20.1001 19.4871 20.8425 15.3814 22.9579 14.1577C25.1624 12.8812 29.3329 14.3614 33.7087 18.2468C37.0176 21.1846 40.4141 25.6025 43.3292 30.6392C46.3183 35.8025 48.559 41.0323 49.4296 45.4337C50.5326 51.0044 49.6393 55.261 47.4771 56.5118C45.3783 57.7265 41.5397 56.4409 37.4446 52.9177C33.9863 49.9407 30.285 45.3416 27.1843 39.9851Z" stroke="#61DAFB" stroke-width="2.18403" stroke-miterlimit="10"/>
</svg>
