<svg width="70" height="70" viewBox="0 0 70 70" fill="none" xmlns="http://www.w3.org/2000/svg">
<rect width="70" height="70" rx="35" fill="#06B6D4"/>
<g clip-path="url(#clip0_104_303)">
<path d="M34.5816 19C27.4961 19 23.0679 22.5418 21.2963 29.6246C23.9536 26.0829 27.0535 24.7552 30.5959 25.6403C32.6173 26.1453 34.062 27.6119 35.6614 29.2346C38.2662 31.8779 41.281 34.9373 47.8669 34.9373C54.9517 34.9373 59.3806 31.3955 61.1515 24.312C58.4948 27.8537 55.3949 29.1821 51.8519 28.297C49.8311 27.7919 48.3865 26.3254 46.7871 24.7027C44.1822 22.0593 41.1668 19 34.5816 19ZM21.2963 34.9373C14.2115 34.9373 9.7826 38.479 8.01172 45.5626C10.6684 42.0208 13.7682 40.6925 17.3113 41.5782C19.3321 42.0839 20.7767 43.5498 22.3761 45.1718C24.981 47.8152 27.9964 50.8752 34.5816 50.8752C41.6671 50.8752 46.0953 47.3335 47.8669 40.2499C45.2095 43.7917 42.1097 45.12 38.5672 44.2342C36.5458 43.7299 35.1012 42.2627 33.5018 40.6406C30.897 37.9973 27.8821 34.9373 21.2963 34.9373Z" fill="white"/>
</g>
<defs>
<clipPath id="clip0_104_303">
<rect width="53.1608" height="31.8752" fill="white" transform="translate(8 19)"/>
</clipPath>
</defs>
</svg>
