<svg width="70" height="70" viewBox="0 0 70 70" fill="none" xmlns="http://www.w3.org/2000/svg">
<rect width="70" height="70" rx="35" fill="#007ACC"/>
<g clip-path="url(#clip0_104_340)">
<path d="M7 33.5V5H64V62H7" fill="#007ACC"/>
<path d="M19.4971 33.5997V35.9224H26.9071V57.0124H32.1653V35.9224H39.5753V33.6424C39.5753 32.3599 39.5753 31.3197 39.5183 31.2912C39.5183 31.2484 35.0011 31.2342 29.5148 31.2342L19.5398 31.2769V33.6139L19.4971 33.5997ZM52.7993 31.2199C54.2528 31.5619 55.3643 32.2174 56.3618 33.2577C56.8891 33.8277 57.6728 34.8252 57.7298 35.0817C57.7298 35.1672 55.2646 36.8344 53.7683 37.7607C53.7113 37.8034 53.4833 37.5612 53.2553 37.1907C52.5143 36.1362 51.7591 35.6802 50.5763 35.5947C48.8663 35.4807 47.7263 36.3784 47.7263 37.8747C47.7263 38.3307 47.8118 38.5872 47.9828 38.9577C48.3676 39.7414 49.0801 40.2117 51.2888 41.1807C55.3643 42.9334 57.1313 44.0877 58.2001 45.7407C59.4113 47.5932 59.6821 50.5002 58.8698 52.6804C57.9578 55.0602 55.7348 56.6704 52.5571 57.1977C51.5596 57.3687 49.2796 57.3402 48.2108 57.1549C45.9308 56.7274 43.7506 55.5874 42.4111 54.1197C41.8838 53.5497 40.8721 52.0249 40.9291 51.9252L41.4706 51.5832L43.6081 50.3434L45.2183 49.4029L45.5888 49.9017C46.0591 50.6427 47.1136 51.6402 47.7263 51.9822C49.5788 52.9369 52.0583 52.8087 53.2838 51.6972C53.8111 51.2127 54.0391 50.6997 54.0391 49.9872C54.0391 49.3317 53.9393 49.0324 53.6116 48.5337C53.1556 47.9067 52.2436 47.3937 49.6786 46.2537C46.7288 44.9997 45.4748 44.2017 44.3063 42.9762C43.6366 42.2352 43.0238 41.0809 42.7388 40.1262C42.5251 39.2997 42.4538 37.2762 42.6533 36.4639C43.2661 33.6139 45.4178 31.6189 48.4958 31.0489C49.4933 30.8494 51.8446 30.9349 52.8278 31.1914L52.7993 31.2199Z" fill="white"/>
</g>
<defs>
<clipPath id="clip0_104_340">
<rect width="57" height="57" fill="white" transform="translate(7 5)"/>
</clipPath>
</defs>
</svg>
